<svg xmlns="http://www.w3.org/2000/svg" xmlns:xlink="http://www.w3.org/1999/xlink" width="500" zoomAndPan="magnify" viewBox="0 0 375 374.999991" height="500" preserveAspectRatio="xMidYMid meet" version="1.0"><defs><clipPath id="8b7562a18b"><path d="M 28.15625 4.609375 L 346.90625 4.609375 L 346.90625 370.609375 L 28.15625 370.609375 Z M 28.15625 4.609375 " clip-rule="nonzero"/></clipPath></defs><g clip-path="url(#8b7562a18b)"><path fill="#ffffff" d="M 183.28125 283.484375 C 174.238281 287.15625 164.707031 289.921875 154.796875 291.648438 L 150.585938 292.382812 C 149.914062 292.5 149.226562 292.5 148.554688 292.382812 L 144.347656 291.648438 C 77.554688 280.003906 28.183594 221.382812 28.183594 153.542969 L 28.183594 60.160156 C 28.183594 57.800781 29.589844 55.667969 31.757812 54.738281 L 147.246094 5.234375 C 148.730469 4.597656 150.410156 4.597656 151.894531 5.234375 L 267.382812 54.738281 C 269.550781 55.667969 270.957031 57.800781 270.957031 60.160156 L 270.957031 153.542969 C 270.957031 156.292969 270.875 159.023438 270.71875 161.742188 L 316.472656 161.742188 C 317.988281 161.742188 319.4375 162.339844 320.507812 163.410156 L 345.164062 188.070312 C 346.234375 189.136719 346.835938 190.589844 346.835938 192.101562 L 346.835938 364.636719 C 346.835938 367.785156 344.28125 370.339844 341.132812 370.339844 L 188.984375 370.339844 C 185.832031 370.339844 183.28125 367.785156 183.28125 364.636719 Z M 258.894531 161.742188 C 259.070312 159.027344 259.15625 156.292969 259.15625 153.542969 L 259.15625 64.050781 L 149.570312 17.074219 L 39.984375 64.050781 L 39.984375 153.542969 C 39.984375 215.671875 85.203125 269.359375 146.375 280.023438 L 149.570312 280.582031 L 152.765625 280.023438 C 163.480469 278.15625 173.703125 274.96875 183.28125 270.648438 L 183.28125 249.539062 C 173.28125 255.046875 162.308594 259.046875 150.644531 261.207031 C 149.933594 261.335938 149.207031 261.335938 148.496094 261.207031 C 96.953125 251.65625 58.878906 206.082031 58.878906 153.542969 L 58.878906 80.378906 C 58.878906 78.019531 60.289062 75.886719 62.457031 74.957031 L 147.246094 38.636719 C 148.730469 38.003906 150.410156 38.003906 151.894531 38.636719 L 236.714844 74.957031 C 238.882812 75.882812 240.289062 78.019531 240.289062 80.378906 L 240.289062 153.542969 C 240.289062 156.296875 240.1875 159.03125 239.980469 161.742188 Z M 183.28125 235.8125 L 183.28125 167.445312 C 183.28125 164.292969 185.832031 161.742188 188.984375 161.742188 L 228.144531 161.742188 C 228.375 159.035156 228.492188 156.300781 228.492188 153.542969 L 228.492188 84.269531 L 149.570312 50.480469 C 136.300781 56.164062 70.679688 84.269531 70.679688 84.269531 L 70.679688 153.542969 C 70.679688 200.058594 104.125 240.449219 149.570312 249.398438 C 161.820312 246.988281 173.195312 242.292969 183.28125 235.8125 Z M 310.769531 173.148438 L 194.691406 173.148438 L 194.691406 358.929688 C 221.699219 358.929688 335.425781 358.929688 335.425781 358.929688 L 335.425781 197.808594 L 316.472656 197.808594 C 313.324219 197.808594 310.769531 195.253906 310.769531 192.101562 Z M 327.359375 186.398438 C 325.664062 184.703125 323.875 182.914062 322.179688 181.21875 C 322.179688 184.15625 322.179688 186.398438 322.179688 186.398438 Z M 221.539062 201.222656 L 243.652344 201.222656 C 248.382812 201.222656 252.246094 205.085938 252.246094 209.8125 L 252.246094 231.925781 C 252.246094 236.652344 248.382812 240.515625 243.652344 240.515625 L 221.539062 240.515625 C 216.8125 240.515625 212.949219 236.652344 212.949219 231.925781 L 212.949219 209.8125 C 212.949219 205.085938 216.8125 201.222656 221.539062 201.222656 Z M 224.359375 212.632812 L 224.359375 229.105469 L 240.835938 229.105469 L 240.835938 212.632812 Z M 269.335938 219.914062 C 266.1875 219.914062 263.628906 217.359375 263.628906 214.207031 C 263.628906 211.0625 266.1875 208.503906 269.335938 208.503906 L 311.472656 208.503906 C 314.617188 208.503906 317.175781 211.0625 317.175781 214.207031 C 317.175781 217.359375 314.617188 219.914062 311.472656 219.914062 Z M 269.335938 266.242188 C 266.1875 266.242188 263.628906 263.683594 263.628906 260.539062 C 263.628906 257.386719 266.1875 254.832031 269.335938 254.832031 L 311.472656 254.832031 C 314.617188 254.832031 317.175781 257.386719 317.175781 260.539062 C 317.175781 263.683594 314.617188 266.242188 311.472656 266.242188 Z M 221.539062 247.550781 L 243.652344 247.550781 C 248.382812 247.550781 252.246094 251.410156 252.246094 256.140625 L 252.246094 278.253906 C 252.246094 282.980469 248.382812 286.84375 243.652344 286.84375 L 221.539062 286.84375 C 216.8125 286.84375 212.949219 282.980469 212.949219 278.253906 L 212.949219 256.140625 C 212.949219 251.410156 216.8125 247.550781 221.539062 247.550781 Z M 224.359375 258.960938 L 224.359375 275.433594 L 240.835938 275.433594 L 240.835938 258.960938 Z M 221.542969 293.882812 L 243.648438 293.882812 C 248.371094 293.882812 252.238281 297.761719 252.238281 302.480469 L 252.238281 324.589844 C 252.238281 329.316406 248.378906 333.179688 243.648438 333.179688 L 221.542969 333.179688 C 216.816406 333.179688 212.953125 329.316406 212.953125 324.589844 L 212.953125 302.480469 C 212.953125 297.761719 216.820312 293.882812 221.542969 293.882812 Z M 224.363281 321.769531 L 240.832031 321.769531 L 240.832031 305.292969 L 224.363281 305.292969 Z M 269.335938 233.234375 C 266.1875 233.234375 263.628906 230.679688 263.628906 227.53125 C 263.628906 224.378906 266.1875 221.824219 269.335938 221.824219 L 296.765625 221.824219 C 299.914062 221.824219 302.46875 224.378906 302.46875 227.53125 C 302.46875 230.679688 299.914062 233.234375 296.765625 233.234375 Z M 269.335938 325.902344 C 266.1875 325.902344 263.628906 323.34375 263.628906 320.195312 C 263.628906 317.046875 266.1875 314.492188 269.335938 314.492188 L 296.765625 314.492188 C 299.914062 314.492188 302.46875 317.046875 302.46875 320.195312 C 302.46875 323.34375 299.914062 325.902344 296.765625 325.902344 Z M 269.335938 279.5625 C 266.1875 279.5625 263.628906 277.007812 263.628906 273.855469 C 263.628906 270.710938 266.1875 268.152344 269.335938 268.152344 L 296.765625 268.152344 C 299.914062 268.152344 302.46875 270.710938 302.46875 273.855469 C 302.46875 277.007812 299.914062 279.5625 296.765625 279.5625 Z M 269.335938 312.582031 C 266.1875 312.582031 263.628906 310.023438 263.628906 306.875 C 263.628906 303.726562 266.1875 301.171875 269.335938 301.171875 L 311.472656 301.171875 C 314.617188 301.171875 317.175781 303.726562 317.175781 306.875 C 317.175781 310.023438 314.617188 312.582031 311.472656 312.582031 Z M 95.320312 161.378906 L 95.308594 161.363281 C 88.113281 154.203125 88.117188 142.578125 95.3125 135.414062 C 102.46875 128.265625 114.042969 128.257812 121.238281 135.410156 C 121.242188 135.414062 121.246094 135.417969 121.25 135.421875 L 136.101562 150.273438 L 177.929688 108.042969 L 177.9375 108.035156 C 185.058594 100.867188 196.65625 100.828125 203.820312 107.949219 C 211.027344 115.113281 211.023438 126.703125 203.914062 133.855469 C 180.152344 157.851562 173 165.332031 149.089844 189.207031 C 141.925781 196.402344 130.296875 196.398438 123.148438 189.207031 Z M 103.652344 153.023438 L 131.492188 180.863281 C 131.496094 180.867188 131.5 180.871094 131.503906 180.875 C 134.050781 183.4375 138.1875 183.4375 140.734375 180.875 C 140.742188 180.871094 140.746094 180.867188 140.75 180.859375 C 164.640625 157.003906 171.789062 149.53125 195.527344 125.554688 L 195.539062 125.546875 C 198.070312 122.996094 198.070312 118.871094 195.503906 116.320312 C 192.957031 113.789062 188.839844 113.808594 186.308594 116.351562 L 140.3125 162.789062 C 139.207031 163.902344 137.703125 164.53125 136.132812 164.535156 C 134.566406 164.539062 133.058594 163.917969 131.949219 162.808594 C 131.949219 162.808594 112.917969 143.777344 112.917969 143.777344 C 110.34375 141.222656 106.207031 141.210938 103.652344 143.765625 C 103.648438 143.769531 103.640625 143.773438 103.636719 143.777344 C 101.074219 146.324219 101.074219 150.460938 103.636719 153.011719 C 103.640625 153.011719 103.648438 153.019531 103.652344 153.023438 Z M 103.652344 153.023438 " fill-opacity="1" fill-rule="evenodd"/></g></svg>