<svg xmlns="http://www.w3.org/2000/svg" xmlns:xlink="http://www.w3.org/1999/xlink" width="500" zoomAndPan="magnify" viewBox="0 0 375 374.999991" height="500" preserveAspectRatio="xMidYMid meet" version="1.0"><defs><clipPath id="a2aefc8c25"><path d="M 43.015625 50.027344 L 337 50.027344 L 337 350 L 43.015625 350 Z M 43.015625 50.027344 " clip-rule="nonzero"/></clipPath></defs><g clip-path="url(#a2aefc8c25)"><path fill="#ffffff" d="M 276.785156 221.605469 C 276.285156 223.476562 274.363281 224.585938 272.488281 224.085938 C 270.617188 223.589844 269.507812 221.664062 270.007812 219.792969 L 286.660156 158.1875 L 286.710938 158.007812 L 286.816406 157.605469 C 288.191406 152.257812 290.070312 148.140625 292.441406 145.46875 C 295.355469 142.1875 298.878906 140.910156 302.988281 141.917969 L 303.015625 141.925781 L 303.015625 141.917969 L 303.109375 141.941406 C 303.417969 142.019531 303.703125 142.136719 303.972656 142.285156 L 305.128906 137.84375 L 305.125 137.84375 C 307.378906 129.890625 312.703125 125.441406 318.285156 124.152344 C 320.582031 123.625 322.921875 123.632812 325.113281 124.148438 C 327.34375 124.679688 329.441406 125.738281 331.207031 127.300781 C 335.121094 130.769531 337.335938 136.617188 335.644531 144.453125 L 321.457031 237.804688 C 320.320312 245.292969 318.511719 252.34375 315.589844 258.886719 C 312.636719 265.507812 308.5625 271.546875 302.917969 276.894531 L 268.632812 309.414062 C 267.34375 310.636719 266.257812 312.039062 265.671875 313.523438 C 265.246094 314.597656 265.097656 315.730469 265.367188 316.859375 L 268.164062 328.640625 L 268.230469 328.957031 C 268.632812 331 268.269531 333.242188 267.296875 335.089844 C 266.246094 337.105469 264.46875 338.707031 262.164062 339.257812 C 245.539062 342.601562 228.902344 345.882812 212.265625 349.1875 C 208.648438 349.910156 205.976562 349.300781 203.925781 347.714844 C 201.953125 346.1875 200.859375 343.949219 200.214844 341.261719 C 198.09375 332.355469 197.230469 316.761719 196.707031 307.296875 C 196.519531 304.023438 196.382812 301.507812 196.25 300.351562 C 195.183594 291.28125 196.554688 282.960938 199.640625 275.625 C 203.042969 267.539062 208.527344 260.695312 215.148438 255.382812 C 219.867188 251.601562 225.324219 249.226562 230.753906 246.867188 C 234.628906 245.1875 238.484375 243.507812 241.785156 241.414062 L 241.78125 241.410156 L 261.265625 228.0625 C 265.757812 224.9375 270.484375 224.660156 274.429688 226.066406 C 276.515625 226.804688 278.378906 228.03125 279.859375 229.554688 C 281.367188 231.109375 282.5 232.980469 283.101562 234.996094 C 284.117188 238.40625 283.671875 242.164062 281.105469 245.472656 L 269.128906 263.445312 C 269.070312 263.53125 269.007812 263.613281 268.949219 263.691406 C 268.097656 264.929688 267.179688 266.011719 266.136719 266.964844 C 264.996094 268.015625 263.738281 268.898438 262.316406 269.65625 L 262.121094 269.746094 L 236.390625 283.363281 C 234.679688 284.265625 232.558594 283.609375 231.65625 281.890625 C 230.753906 280.183594 231.410156 278.058594 233.125 277.160156 L 258.84375 263.554688 L 259.019531 263.453125 C 259.9375 262.964844 260.714844 262.425781 261.390625 261.804688 C 262.039062 261.214844 262.617188 260.539062 263.152344 259.761719 L 263.28125 259.550781 L 275.277344 241.550781 L 275.285156 241.558594 C 275.34375 241.472656 275.40625 241.390625 275.472656 241.308594 C 276.582031 239.929688 276.789062 238.386719 276.378906 237 C 276.097656 236.066406 275.558594 235.183594 274.839844 234.441406 C 274.089844 233.671875 273.152344 233.050781 272.097656 232.675781 C 270.113281 231.972656 267.675781 232.152344 265.269531 233.824219 L 265.269531 233.820312 L 245.734375 247.203125 L 245.726562 247.199219 L 245.636719 247.257812 C 241.808594 249.703125 237.6875 251.492188 233.554688 253.289062 C 228.554688 255.464844 223.523438 257.648438 219.539062 260.84375 C 213.773438 265.472656 209.015625 271.390625 206.089844 278.335938 C 203.460938 284.585938 202.300781 291.71875 203.21875 299.554688 C 203.363281 300.796875 203.511719 303.449219 203.699219 306.910156 C 204.214844 316.109375 205.050781 331.265625 207.046875 339.636719 C 207.34375 340.867188 207.703125 341.78125 208.207031 342.171875 C 208.648438 342.507812 209.488281 342.585938 210.921875 342.300781 L 260.542969 332.425781 C 260.742188 332.378906 260.941406 332.152344 261.097656 331.851562 C 261.34375 331.386719 261.441406 330.820312 261.34375 330.320312 L 258.535156 318.484375 C 257.90625 315.832031 258.214844 313.292969 259.144531 310.949219 C 260.128906 308.457031 261.824219 306.214844 263.808594 304.335938 L 298.089844 271.820312 C 303.035156 267.125 306.605469 261.839844 309.195312 256.035156 C 311.816406 250.164062 313.457031 243.699219 314.511719 236.761719 L 328.703125 143.40625 L 328.714844 143.414062 L 328.761719 143.164062 C 329.910156 138.050781 328.75 134.476562 326.570312 132.542969 C 325.699219 131.777344 324.652344 131.25 323.519531 130.980469 C 322.34375 130.703125 321.089844 130.703125 319.851562 130.992188 C 316.546875 131.753906 313.339844 134.578125 311.871094 139.734375 L 311.867188 139.734375 L 290.214844 223.03125 C 289.730469 224.902344 287.820312 226.027344 285.949219 225.542969 C 284.074219 225.058594 282.953125 223.144531 283.4375 221.277344 L 302.261719 148.855469 C 301.980469 148.855469 301.691406 148.816406 301.40625 148.746094 L 301.3125 148.722656 L 301.3125 148.71875 C 299.972656 148.402344 298.757812 148.894531 297.683594 150.105469 C 296.058594 151.9375 294.6875 155.070312 293.59375 159.332031 L 293.5 159.714844 C 293.484375 159.808594 293.464844 159.90625 293.4375 160 Z M 226.652344 61.296875 C 228.015625 59.933594 230.226562 59.933594 231.585938 61.296875 C 232.949219 62.660156 232.949219 64.863281 231.585938 66.226562 L 207.824219 89.988281 C 206.464844 91.355469 204.253906 91.355469 202.890625 89.988281 C 201.53125 88.625 201.53125 86.421875 202.890625 85.058594 Z M 186.199219 53.558594 C 186.199219 51.628906 187.761719 50.066406 189.6875 50.066406 C 191.617188 50.066406 193.175781 51.628906 193.175781 53.558594 L 193.175781 87.160156 C 193.175781 89.082031 191.617188 90.644531 189.6875 90.644531 C 187.761719 90.644531 186.199219 89.082031 186.199219 87.160156 Z M 148.574219 66.226562 C 147.214844 64.863281 147.214844 62.660156 148.574219 61.296875 C 149.9375 59.933594 152.144531 59.933594 153.507812 61.296875 L 177.273438 85.058594 C 178.628906 86.421875 178.628906 88.625 177.273438 89.988281 C 175.90625 91.355469 173.699219 91.355469 172.335938 89.988281 Z M 190.082031 101.167969 C 208.234375 101.167969 224.675781 108.527344 236.570312 120.421875 C 248.46875 132.320312 255.828125 148.761719 255.828125 166.914062 C 255.828125 185.070312 248.46875 201.507812 236.570312 213.410156 C 224.675781 225.304688 208.234375 232.664062 190.082031 232.664062 C 171.925781 232.664062 155.488281 225.304688 143.589844 213.410156 C 131.695312 201.507812 124.335938 185.070312 124.335938 166.914062 C 124.335938 148.761719 131.695312 132.320312 143.589844 120.421875 C 155.488281 108.527344 171.925781 101.167969 190.082031 101.167969 Z M 231.636719 125.359375 C 221.003906 114.722656 206.308594 108.144531 190.082031 108.144531 C 173.851562 108.144531 159.160156 114.722656 148.523438 125.359375 C 137.890625 135.992188 131.308594 150.683594 131.308594 166.914062 C 131.308594 183.148438 137.890625 197.839844 148.523438 208.472656 C 159.160156 219.109375 173.851562 225.6875 190.082031 225.6875 C 206.308594 225.6875 221.003906 219.109375 231.636719 208.472656 C 242.273438 197.839844 248.851562 183.148438 248.851562 166.914062 C 248.851562 150.683594 242.273438 135.992188 231.636719 125.359375 Z M 196.429688 124.644531 L 204.875 150.800781 L 232.371094 150.75 C 233.832031 150.746094 235.191406 151.199219 236.300781 152 C 237.414062 152.8125 238.269531 153.960938 238.722656 155.347656 C 239.171875 156.742188 239.160156 158.171875 238.734375 159.480469 C 238.304688 160.792969 237.472656 161.96875 236.292969 162.820312 L 214.019531 178.933594 L 222.566406 205.070312 C 223.015625 206.445312 223 207.875 222.582031 209.183594 C 222.152344 210.503906 221.320312 211.683594 220.140625 212.539062 C 218.96875 213.390625 217.601562 213.816406 216.21875 213.808594 C 214.84375 213.808594 213.472656 213.378906 212.292969 212.519531 L 190.082031 196.316406 L 167.863281 212.519531 C 166.691406 213.378906 165.320312 213.808594 163.945312 213.808594 C 162.5625 213.816406 161.191406 213.390625 160.019531 212.539062 C 158.84375 211.683594 158.011719 210.503906 157.582031 209.183594 C 157.15625 207.875 157.144531 206.445312 157.597656 205.070312 L 166.144531 178.933594 L 143.871094 162.820312 C 142.691406 161.96875 141.859375 160.792969 141.429688 159.480469 C 141.003906 158.171875 140.984375 156.742188 141.4375 155.347656 C 141.890625 153.960938 142.746094 152.8125 143.863281 152 C 144.972656 151.199219 146.332031 150.746094 147.792969 150.75 L 175.289062 150.800781 L 183.730469 124.644531 C 184.179688 123.257812 185.035156 122.101562 186.152344 121.289062 C 187.28125 120.46875 188.640625 120.007812 190.082031 120.007812 C 191.523438 120.007812 192.882812 120.46875 194.011719 121.289062 C 195.125 122.101562 195.984375 123.257812 196.429688 124.644531 Z M 199.03125 155.34375 L 190.082031 127.617188 L 181.132812 155.34375 C 180.679688 156.742188 179.371094 157.757812 177.820312 157.757812 L 148.679688 157.699219 L 172.285156 174.785156 C 173.476562 175.644531 174.03125 177.207031 173.554688 178.679688 L 164.492188 206.386719 L 187.976562 189.253906 C 189.171875 188.347656 190.855469 188.289062 192.125 189.210938 L 215.667969 206.386719 L 206.648438 178.804688 C 206.125 177.378906 206.585938 175.71875 207.875 174.785156 L 231.484375 157.699219 L 202.503906 157.753906 C 200.972656 157.828125 199.523438 156.875 199.03125 155.34375 Z M 110.210938 220.179688 C 110.710938 222.054688 109.601562 223.976562 107.730469 224.476562 C 105.855469 224.976562 103.933594 223.867188 103.433594 221.992188 L 86.726562 160 C 86.699219 159.90625 86.679688 159.808594 86.664062 159.714844 L 86.570312 159.332031 C 85.472656 155.070312 84.105469 151.9375 82.476562 150.105469 C 81.40625 148.894531 80.191406 148.402344 78.84375 148.71875 L 78.847656 148.722656 L 78.757812 148.746094 C 78.46875 148.816406 78.179688 148.855469 77.898438 148.855469 L 96.726562 221.277344 C 97.210938 223.144531 96.089844 225.058594 94.214844 225.542969 C 92.34375 226.027344 90.433594 224.902344 89.949219 223.03125 L 68.289062 139.734375 C 66.824219 134.578125 63.617188 131.753906 60.3125 130.992188 C 59.074219 130.703125 57.816406 130.703125 56.640625 130.980469 C 55.507812 131.25 54.457031 131.777344 53.59375 132.542969 C 51.414062 134.476562 50.253906 138.050781 51.402344 143.164062 L 51.449219 143.414062 L 51.457031 143.40625 L 65.644531 236.761719 C 66.703125 243.699219 68.347656 250.164062 70.96875 256.035156 C 73.554688 261.839844 77.128906 267.125 82.070312 271.820312 L 116.355469 304.335938 C 118.339844 306.214844 120.035156 308.457031 121.019531 310.949219 C 121.949219 313.292969 122.253906 315.832031 121.625 318.484375 L 118.816406 330.320312 C 118.722656 330.820312 118.820312 331.386719 119.0625 331.851562 C 119.222656 332.152344 119.421875 332.378906 119.617188 332.425781 L 169.242188 342.300781 C 170.675781 342.585938 171.515625 342.507812 171.949219 342.171875 C 172.460938 341.78125 172.820312 340.867188 173.109375 339.636719 C 175.109375 331.265625 175.949219 316.109375 176.457031 306.910156 C 176.652344 303.449219 176.800781 300.796875 176.945312 299.554688 C 177.859375 291.71875 176.703125 284.585938 174.074219 278.335938 C 171.144531 271.390625 166.390625 265.472656 160.625 260.84375 C 156.636719 257.648438 151.609375 255.464844 146.609375 253.289062 C 142.476562 251.492188 138.351562 249.703125 134.527344 247.257812 L 134.4375 247.199219 L 134.429688 247.203125 L 114.894531 233.820312 L 114.890625 233.824219 C 112.484375 232.152344 110.050781 231.972656 108.066406 232.675781 C 107.011719 233.050781 106.074219 233.671875 105.324219 234.441406 C 104.597656 235.183594 104.0625 236.066406 103.785156 237 C 103.375 238.386719 103.578125 239.929688 104.691406 241.308594 C 104.757812 241.390625 104.816406 241.472656 104.875 241.558594 L 104.882812 241.550781 L 116.878906 259.550781 L 117.011719 259.761719 C 117.546875 260.539062 118.125 261.214844 118.773438 261.804688 C 119.445312 262.425781 120.226562 262.964844 121.140625 263.453125 L 121.320312 263.554688 L 147.039062 277.160156 C 148.753906 278.058594 149.410156 280.183594 148.507812 281.890625 C 147.605469 283.609375 145.484375 284.265625 143.773438 283.363281 L 118.042969 269.746094 L 117.847656 269.65625 C 116.425781 268.898438 115.167969 268.015625 114.023438 266.964844 C 112.984375 266.011719 112.066406 264.929688 111.214844 263.691406 C 111.148438 263.613281 111.089844 263.53125 111.035156 263.445312 L 99.054688 245.472656 C 96.492188 242.164062 96.046875 238.40625 97.0625 234.996094 C 97.664062 232.980469 98.792969 231.109375 100.300781 229.554688 C 101.785156 228.03125 103.640625 226.804688 105.730469 226.066406 C 109.675781 224.660156 114.398438 224.9375 118.898438 228.0625 L 138.382812 241.410156 L 138.378906 241.414062 C 141.679688 243.507812 145.535156 245.1875 149.40625 246.867188 C 154.835938 249.226562 160.296875 251.601562 165.011719 255.382812 C 171.636719 260.695312 177.117188 267.539062 180.523438 275.625 C 183.609375 282.960938 184.972656 291.28125 183.914062 300.351562 C 183.777344 301.507812 183.636719 304.023438 183.457031 307.296875 C 182.933594 316.761719 182.070312 332.355469 179.945312 341.261719 C 179.304688 343.949219 178.210938 346.1875 176.234375 347.714844 C 174.1875 349.300781 171.515625 349.910156 167.894531 349.1875 C 151.261719 345.882812 134.621094 342.605469 118 339.257812 C 115.695312 338.707031 113.917969 337.105469 112.859375 335.089844 C 111.894531 333.242188 111.523438 331 111.929688 328.957031 L 112 328.640625 L 114.792969 316.859375 C 115.066406 315.730469 114.914062 314.597656 114.488281 313.523438 C 113.902344 312.039062 112.820312 310.636719 111.523438 309.414062 L 77.242188 276.894531 C 71.601562 271.546875 67.527344 265.507812 64.574219 258.886719 C 61.652344 252.34375 59.84375 245.292969 58.707031 237.804688 L 44.515625 144.453125 C 42.824219 136.617188 45.042969 130.769531 48.957031 127.300781 C 50.722656 125.738281 52.816406 124.679688 55.050781 124.148438 C 57.242188 123.632812 59.578125 123.625 61.875 124.152344 C 67.453125 125.441406 72.78125 129.890625 75.039062 137.84375 L 75.035156 137.84375 L 76.191406 142.285156 C 76.453125 142.136719 76.746094 142.019531 77.054688 141.941406 L 77.148438 141.917969 L 77.148438 141.925781 L 77.175781 141.917969 C 81.285156 140.910156 84.808594 142.1875 87.722656 145.46875 C 90.09375 148.140625 91.96875 152.257812 93.347656 157.605469 L 93.449219 158.007812 L 93.503906 158.1875 Z M 110.210938 220.179688 " fill-opacity="1" fill-rule="nonzero"/></g></svg>