<svg xmlns="http://www.w3.org/2000/svg" xmlns:xlink="http://www.w3.org/1999/xlink" width="500" zoomAndPan="magnify" viewBox="0 0 375 374.999991" height="500" preserveAspectRatio="xMidYMid meet" version="1.0"><path fill="#ffffff" d="M 267.632812 239.144531 L 267.632812 277.34375 L 197.191406 277.34375 L 197.191406 315.488281 L 126.828125 315.488281 L 126.828125 353.675781 L 88.605469 353.675781 L 88.605469 374.558594 L 147.734375 374.558594 L 147.734375 336.34375 L 218.074219 336.34375 L 218.074219 298.226562 L 288.519531 298.226562 L 288.519531 260.027344 L 326.765625 260.027344 L 326.765625 239.144531 Z M 267.632812 239.144531 " fill-opacity="1" fill-rule="evenodd"/><path fill="#ffffff" d="M 112.25 177.589844 L 113.296875 178.195312 C 115.488281 182.207031 119.679688 184.296875 124.015625 184.363281 L 124.511719 184.648438 C 125.371094 185.160156 125.605469 186.085938 125.109375 186.917969 L 122.398438 191.667969 L 107.25 182.925781 L 109.988281 178.195312 C 110.558594 177.199219 111.390625 177.089844 112.25 177.589844 Z M 159.597656 88.925781 C 157.066406 88.925781 154.5625 89.675781 152.480469 91.144531 L 117.3125 114.625 C 113.816406 116.953125 111.734375 120.863281 111.734375 125.085938 L 111.734375 169.082031 C 108.160156 168.980469 104.617188 170.722656 102.710938 174.015625 L 99.972656 178.738281 L 82.09375 168.410156 C 78.492188 166.316406 73.902344 167.550781 71.816406 171.148438 L 47.914062 212.542969 C 45.828125 216.171875 47.054688 220.738281 50.675781 222.8125 L 116.140625 260.617188 C 119.738281 262.710938 124.328125 261.488281 126.410156 257.890625 L 150.320312 216.460938 C 152.40625 212.859375 151.179688 208.265625 147.582031 206.191406 L 129.644531 195.867188 L 132.382812 191.117188 C 134.128906 188.09375 134.050781 184.46875 132.539062 181.523438 C 135.148438 179.402344 136.917969 176.160156 136.863281 171.667969 L 136.863281 131.828125 L 148.808594 123.851562 L 148.808594 182.746094 C 148.808594 187.78125 151.570312 192.386719 156.023438 194.738281 L 207.226562 221.828125 L 224.796875 256.558594 C 232.644531 273.707031 258.195312 260.753906 248.992188 244.300781 L 229.492188 205.761719 C 228.214844 203.257812 226.238281 201.238281 223.734375 199.925781 L 190.699219 182.375 L 190.699219 102.507812 C 190.730469 95.027344 184.628906 88.925781 177.144531 88.925781 Z M 159.597656 88.925781 " fill-opacity="1" fill-rule="nonzero"/><path fill="#ffffff" d="M 198.574219 141.144531 L 232.984375 151.9375 C 247.742188 156.574219 240.785156 178.6875 226.023438 174.042969 L 198.574219 165.40625 Z M 198.574219 141.144531 " fill-opacity="1" fill-rule="nonzero"/><path fill="#ffffff" d="M 163.558594 207.800781 L 190.699219 222.121094 L 190.699219 239.113281 C 190.699219 241.472656 190.101562 243.789062 188.902344 245.84375 L 162.777344 291.394531 C 153.757812 307.066406 130.214844 293.566406 139.238281 277.863281 L 163.558594 235.492188 Z M 163.558594 207.800781 " fill-opacity="1" fill-rule="nonzero"/><path fill="#ffffff" d="M 195.132812 36.574219 C 202.773438 50.59375 197.402344 68.144531 183.089844 75.816406 C 168.804688 83.472656 151 78.289062 143.355469 64.320312 C 135.691406 50.308594 141.0625 32.757812 155.347656 25.105469 C 169.691406 17.414062 187.464844 22.601562 195.132812 36.574219 Z M 195.132812 36.574219 " fill-opacity="1" fill-rule="evenodd"/></svg>