<svg xmlns="http://www.w3.org/2000/svg" xmlns:xlink="http://www.w3.org/1999/xlink" width="500" zoomAndPan="magnify" viewBox="0 0 375 374.999991" height="500" preserveAspectRatio="xMidYMid meet" version="1.0"><defs><clipPath id="543967ccff"><path d="M 6.417969 350 L 368.667969 350 L 368.667969 362.777344 L 6.417969 362.777344 Z M 6.417969 350 " clip-rule="nonzero"/></clipPath><clipPath id="d8e121c2aa"><path d="M 235 12.527344 L 357 12.527344 L 357 179 L 235 179 Z M 235 12.527344 " clip-rule="nonzero"/></clipPath></defs><path fill="#ffffff" d="M 96.996094 157.328125 L 84.925781 157.328125 L 84.925781 169.394531 L 96.996094 169.394531 L 96.996094 157.328125 " fill-opacity="1" fill-rule="nonzero"/><path fill="#ffffff" d="M 211.628906 308.160156 L 187.496094 308.160156 C 184.164062 308.160156 181.460938 305.460938 181.460938 302.128906 L 181.460938 277.996094 C 181.460938 274.664062 184.164062 271.960938 187.496094 271.960938 L 211.628906 271.960938 C 214.960938 271.960938 217.660156 274.664062 217.660156 277.996094 L 217.660156 302.128906 C 217.660156 305.460938 214.960938 308.160156 211.628906 308.160156 Z M 181.460938 223.695312 C 181.460938 220.363281 184.164062 217.660156 187.496094 217.660156 L 211.628906 217.660156 C 214.960938 217.660156 217.660156 220.363281 217.660156 223.695312 L 217.660156 247.828125 C 217.660156 251.160156 214.960938 253.859375 211.628906 253.859375 L 187.496094 253.859375 C 184.164062 253.859375 181.460938 251.160156 181.460938 247.828125 Z M 223.695312 277.996094 C 223.695312 274.664062 226.394531 271.960938 229.726562 271.960938 L 253.859375 271.960938 C 257.191406 271.960938 259.894531 274.664062 259.894531 277.996094 L 259.894531 302.128906 C 259.894531 305.460938 257.191406 308.160156 253.859375 308.160156 L 229.726562 308.160156 C 226.394531 308.160156 223.695312 305.460938 223.695312 302.128906 Z M 223.695312 223.695312 C 223.695312 220.363281 226.394531 217.660156 229.726562 217.660156 L 253.859375 217.660156 C 257.191406 217.660156 259.894531 220.363281 259.894531 223.695312 L 259.894531 247.828125 C 259.894531 251.160156 257.191406 253.859375 253.859375 253.859375 L 229.726562 253.859375 C 226.394531 253.859375 223.695312 251.160156 223.695312 247.828125 Z M 175.425781 247.828125 C 175.425781 251.160156 172.726562 253.859375 169.394531 253.859375 L 145.261719 253.859375 C 141.929688 253.859375 139.226562 251.160156 139.226562 247.828125 L 139.226562 223.695312 C 139.226562 220.363281 141.929688 217.660156 145.261719 217.660156 L 169.394531 217.660156 C 172.726562 217.660156 175.425781 220.363281 175.425781 223.695312 Z M 265.925781 344.359375 L 265.925781 199.5625 L 133.195312 199.5625 L 133.195312 265.929688 L 140.734375 265.929688 C 144.9375 265.929688 148.5625 268.398438 150.261719 271.960938 L 169.394531 271.960938 C 172.726562 271.960938 175.425781 274.664062 175.425781 277.996094 L 175.425781 302.128906 C 175.425781 305.460938 172.726562 308.160156 169.394531 308.160156 L 151.292969 308.160156 L 151.292969 344.359375 L 181.460938 344.359375 L 181.460938 320.226562 C 181.460938 316.894531 184.164062 314.195312 187.496094 314.195312 L 211.628906 314.195312 C 214.960938 314.195312 217.660156 316.894531 217.660156 320.226562 L 217.660156 344.359375 L 265.925781 344.359375 " fill-opacity="1" fill-rule="nonzero"/><path fill="#ffffff" d="M 193.527344 296.09375 L 205.59375 296.09375 L 205.59375 284.027344 L 193.527344 284.027344 L 193.527344 296.09375 " fill-opacity="1" fill-rule="nonzero"/><path fill="#ffffff" d="M 205.59375 344.359375 L 205.59375 326.261719 L 193.527344 326.261719 L 193.527344 344.359375 L 205.59375 344.359375 " fill-opacity="1" fill-rule="nonzero"/><path fill="#ffffff" d="M 96.996094 109.0625 L 84.925781 109.0625 L 84.925781 121.128906 L 96.996094 121.128906 L 96.996094 109.0625 " fill-opacity="1" fill-rule="nonzero"/><path fill="#ffffff" d="M 145.261719 157.328125 L 133.195312 157.328125 L 133.195312 169.394531 L 145.261719 169.394531 L 145.261719 157.328125 " fill-opacity="1" fill-rule="nonzero"/><path fill="#ffffff" d="M 145.261719 109.0625 L 133.195312 109.0625 L 133.195312 121.128906 L 145.261719 121.128906 L 145.261719 109.0625 " fill-opacity="1" fill-rule="nonzero"/><path fill="#ffffff" d="M 151.292969 284.027344 L 151.292969 296.09375 L 163.359375 296.09375 L 163.359375 284.027344 L 151.292969 284.027344 " fill-opacity="1" fill-rule="nonzero"/><path fill="#ffffff" d="M 314.195312 302.128906 L 302.128906 302.128906 L 302.128906 314.195312 L 314.195312 314.195312 L 314.195312 302.128906 " fill-opacity="1" fill-rule="nonzero"/><path fill="#ffffff" d="M 205.59375 229.726562 L 193.527344 229.726562 L 193.527344 241.792969 L 205.59375 241.792969 L 205.59375 229.726562 " fill-opacity="1" fill-rule="nonzero"/><path fill="#ffffff" d="M 290.0625 296.09375 C 290.0625 292.761719 292.761719 290.0625 296.09375 290.0625 L 320.226562 290.0625 C 323.558594 290.0625 326.261719 292.761719 326.261719 296.09375 L 326.261719 320.226562 C 326.261719 323.558594 323.558594 326.261719 320.226562 326.261719 L 296.09375 326.261719 C 292.761719 326.261719 290.0625 323.558594 290.0625 320.226562 Z M 290.0625 253.859375 C 290.0625 250.53125 292.761719 247.828125 296.09375 247.828125 L 320.226562 247.828125 C 323.558594 247.828125 326.261719 250.53125 326.261719 253.859375 L 326.261719 277.996094 C 326.261719 281.328125 323.558594 284.027344 320.226562 284.027344 L 296.09375 284.027344 C 292.761719 284.027344 290.0625 281.328125 290.0625 277.996094 Z M 277.996094 344.359375 L 332.292969 344.359375 L 332.292969 241.792969 L 277.996094 241.792969 L 277.996094 344.359375 " fill-opacity="1" fill-rule="nonzero"/><path fill="#ffffff" d="M 314.195312 259.894531 L 302.128906 259.894531 L 302.128906 271.960938 L 314.195312 271.960938 L 314.195312 259.894531 " fill-opacity="1" fill-rule="nonzero"/><path fill="#ffffff" d="M 247.828125 284.027344 L 235.761719 284.027344 L 235.761719 296.09375 L 247.828125 296.09375 L 247.828125 284.027344 " fill-opacity="1" fill-rule="nonzero"/><path fill="#ffffff" d="M 247.828125 229.726562 L 235.761719 229.726562 L 235.761719 241.792969 L 247.828125 241.792969 L 247.828125 229.726562 " fill-opacity="1" fill-rule="nonzero"/><path fill="#ffffff" d="M 151.292969 241.792969 L 163.359375 241.792969 L 163.359375 229.726562 L 151.292969 229.726562 L 151.292969 241.792969 " fill-opacity="1" fill-rule="nonzero"/><path fill="#ffffff" d="M 151.292969 48.726562 C 151.292969 45.402344 148.585938 42.695312 145.261719 42.695312 L 84.925781 42.695312 C 81.601562 42.695312 78.894531 45.402344 78.894531 48.726562 L 78.894531 60.792969 L 151.292969 60.792969 L 151.292969 48.726562 " fill-opacity="1" fill-rule="nonzero"/><path fill="#ffffff" d="M 115.09375 308.160156 L 115.09375 296.09375 L 103.027344 296.09375 L 103.027344 308.160156 L 115.09375 308.160156 " fill-opacity="1" fill-rule="nonzero"/><path fill="#ffffff" d="M 90.960938 308.160156 L 90.960938 296.09375 L 78.894531 296.09375 L 78.894531 308.160156 L 90.960938 308.160156 " fill-opacity="1" fill-rule="nonzero"/><path fill="#ffffff" d="M 139.226562 308.160156 L 139.226562 296.09375 L 127.160156 296.09375 L 127.160156 308.160156 L 139.226562 308.160156 " fill-opacity="1" fill-rule="nonzero"/><path fill="#ffffff" d="M 139.226562 277.996094 L 30.628906 277.996094 L 30.628906 284.027344 L 139.226562 284.027344 L 139.226562 277.996094 " fill-opacity="1" fill-rule="nonzero"/><path fill="#ffffff" d="M 169.402344 78.894531 L 169.394531 72.859375 L 60.792969 72.859375 L 60.792969 78.894531 L 169.394531 78.894531 C 169.398438 78.894531 169.402344 78.894531 169.402344 78.894531 " fill-opacity="1" fill-rule="nonzero"/><path fill="#ffffff" d="M 66.828125 308.160156 L 66.828125 296.09375 L 54.761719 296.09375 L 54.761719 308.160156 L 66.828125 308.160156 " fill-opacity="1" fill-rule="nonzero"/><path fill="#ffffff" d="M 42.695312 332.292969 C 42.695312 328.960938 45.394531 326.261719 48.726562 326.261719 L 72.859375 326.261719 C 76.191406 326.261719 78.894531 328.960938 78.894531 332.292969 L 78.894531 344.359375 L 139.226562 344.359375 L 139.226562 320.226562 L 30.628906 320.226562 L 30.628906 344.359375 L 42.695312 344.359375 L 42.695312 332.292969 " fill-opacity="1" fill-rule="nonzero"/><path fill="#ffffff" d="M 42.695312 296.09375 L 30.628906 296.09375 L 30.628906 308.160156 L 42.695312 308.160156 L 42.695312 296.09375 " fill-opacity="1" fill-rule="nonzero"/><g clip-path="url(#543967ccff)"><path fill="#ffffff" d="M 6.492188 350.394531 L 6.492188 362.460938 L 368.496094 362.460938 L 368.496094 350.394531 L 6.492188 350.394531 " fill-opacity="1" fill-rule="nonzero"/></g><path fill="#ffffff" d="M 84.925781 217.660156 L 96.996094 217.660156 L 96.996094 205.59375 L 84.925781 205.59375 L 84.925781 217.660156 " fill-opacity="1" fill-rule="nonzero"/><path fill="#ffffff" d="M 66.828125 344.359375 L 66.828125 338.328125 L 54.761719 338.328125 L 54.761719 344.359375 L 66.828125 344.359375 " fill-opacity="1" fill-rule="nonzero"/><path fill="#ffffff" d="M 96.996094 265.929688 L 96.996094 253.859375 L 84.925781 253.859375 L 84.925781 265.929688 L 96.996094 265.929688 " fill-opacity="1" fill-rule="nonzero"/><path fill="#ffffff" d="M 103.027344 229.726562 L 78.894531 229.726562 C 75.5625 229.726562 72.859375 227.027344 72.859375 223.695312 L 72.859375 199.5625 C 72.859375 196.230469 75.5625 193.527344 78.894531 193.527344 L 103.027344 193.527344 C 106.359375 193.527344 109.0625 196.230469 109.0625 199.5625 L 109.0625 223.695312 C 109.0625 227.027344 106.359375 229.726562 103.027344 229.726562 Z M 72.859375 151.292969 C 72.859375 147.960938 75.5625 145.261719 78.894531 145.261719 L 103.027344 145.261719 C 106.359375 145.261719 109.0625 147.960938 109.0625 151.292969 L 109.0625 175.429688 C 109.0625 178.757812 106.359375 181.460938 103.027344 181.460938 L 78.894531 181.460938 C 75.5625 181.460938 72.859375 178.757812 72.859375 175.429688 Z M 72.859375 103.027344 C 72.859375 99.695312 75.5625 96.996094 78.894531 96.996094 L 103.027344 96.996094 C 106.359375 96.996094 109.0625 99.695312 109.0625 103.027344 L 109.0625 127.160156 C 109.0625 130.492188 106.359375 133.195312 103.027344 133.195312 L 78.894531 133.195312 C 75.5625 133.195312 72.859375 130.492188 72.859375 127.160156 Z M 121.128906 151.292969 C 121.128906 147.960938 123.828125 145.261719 127.160156 145.261719 L 151.292969 145.261719 C 154.625 145.261719 157.328125 147.960938 157.328125 151.292969 L 157.328125 175.429688 C 157.328125 178.757812 154.625 181.460938 151.292969 181.460938 L 127.160156 181.460938 C 123.828125 181.460938 121.128906 178.757812 121.128906 175.429688 Z M 121.128906 103.027344 C 121.128906 99.695312 123.828125 96.996094 127.160156 96.996094 L 151.292969 96.996094 C 154.625 96.996094 157.328125 99.695312 157.328125 103.027344 L 157.328125 127.160156 C 157.328125 130.492188 154.625 133.195312 151.292969 133.195312 L 127.160156 133.195312 C 123.828125 133.195312 121.128906 130.492188 121.128906 127.160156 Z M 121.128906 265.929688 L 121.128906 193.527344 C 121.128906 190.195312 123.828125 187.496094 127.160156 187.496094 L 163.359375 187.496094 L 163.359375 90.960938 L 66.828125 90.960938 L 66.828125 265.929688 L 72.859375 265.929688 L 72.859375 247.828125 C 72.859375 244.496094 75.5625 241.792969 78.894531 241.792969 L 103.027344 241.792969 C 106.359375 241.792969 109.0625 244.496094 109.0625 247.828125 L 109.0625 265.929688 L 121.128906 265.929688 " fill-opacity="1" fill-rule="nonzero"/><path fill="#ffffff" d="M 332.292969 72.859375 C 332.292969 52.898438 316.054688 36.660156 296.09375 36.660156 C 276.132812 36.660156 259.894531 52.898438 259.894531 72.859375 C 259.894531 92.824219 276.132812 109.0625 296.09375 109.0625 C 316.054688 109.0625 332.292969 92.824219 332.292969 72.859375 " fill-opacity="1" fill-rule="nonzero"/><g clip-path="url(#d8e121c2aa)"><path fill="#ffffff" d="M 247.828125 72.859375 C 247.828125 46.246094 269.480469 24.59375 296.09375 24.59375 C 322.707031 24.59375 344.359375 46.246094 344.359375 72.859375 C 344.359375 99.476562 322.707031 121.128906 296.09375 121.128906 C 269.480469 121.128906 247.828125 99.476562 247.828125 72.859375 Z M 356.425781 72.859375 C 356.425781 39.59375 329.363281 12.527344 296.09375 12.527344 C 262.824219 12.527344 235.761719 39.59375 235.761719 72.859375 C 235.761719 98.957031 275.761719 153.222656 296.09375 178.070312 C 316.425781 153.21875 356.425781 98.941406 356.425781 72.859375 " fill-opacity="1" fill-rule="nonzero"/></g></svg>