<svg xmlns="http://www.w3.org/2000/svg" xmlns:xlink="http://www.w3.org/1999/xlink" width="500" zoomAndPan="magnify" viewBox="0 0 375 374.999991" height="500" preserveAspectRatio="xMidYMid meet" version="1.0"><path fill="#bfb18e" d="M 0 350.804688 L 375 350.804688 L 375 375 L 0 375 Z M 0 350.804688 " fill-opacity="1" fill-rule="nonzero"/><path fill="#808080" d="M 344.757812 296.371094 L 344.757812 350.804688 L 284.273438 350.804688 L 284.273438 296.371094 C 284.273438 295.378906 284.324219 294.390625 284.417969 293.40625 C 284.515625 292.421875 284.660156 291.441406 284.855469 290.472656 C 285.046875 289.5 285.289062 288.539062 285.578125 287.59375 C 285.863281 286.644531 286.195312 285.714844 286.574219 284.796875 C 286.957031 283.882812 287.378906 282.988281 287.84375 282.113281 C 288.3125 281.242188 288.820312 280.394531 289.371094 279.570312 C 289.921875 278.746094 290.511719 277.953125 291.140625 277.1875 C 291.765625 276.421875 292.429688 275.6875 293.132812 274.988281 C 293.832031 274.285156 294.566406 273.621094 295.332031 272.992188 C 296.097656 272.367188 296.890625 271.777344 297.714844 271.226562 C 298.539062 270.675781 299.386719 270.167969 300.261719 269.699219 C 301.132812 269.234375 302.027344 268.808594 302.941406 268.429688 C 303.859375 268.050781 304.789062 267.71875 305.738281 267.429688 C 306.683594 267.144531 307.644531 266.902344 308.617188 266.710938 C 309.585938 266.515625 310.566406 266.371094 311.550781 266.273438 C 312.539062 266.175781 313.527344 266.128906 314.515625 266.128906 C 315.507812 266.128906 316.496094 266.175781 317.480469 266.273438 C 318.464844 266.371094 319.445312 266.515625 320.414062 266.710938 C 321.386719 266.902344 322.347656 267.144531 323.292969 267.429688 C 324.242188 267.71875 325.175781 268.050781 326.089844 268.429688 C 327.003906 268.808594 327.898438 269.234375 328.773438 269.699219 C 329.644531 270.167969 330.492188 270.675781 331.316406 271.226562 C 332.140625 271.777344 332.9375 272.367188 333.703125 272.992188 C 334.46875 273.621094 335.199219 274.285156 335.898438 274.988281 C 336.601562 275.6875 337.265625 276.421875 337.894531 277.1875 C 338.523438 277.953125 339.109375 278.746094 339.660156 279.570312 C 340.210938 280.394531 340.71875 281.242188 341.1875 282.113281 C 341.652344 282.988281 342.078125 283.882812 342.457031 284.796875 C 342.835938 285.714844 343.167969 286.644531 343.457031 287.59375 C 343.742188 288.539062 343.984375 289.5 344.175781 290.472656 C 344.371094 291.441406 344.515625 292.421875 344.613281 293.40625 C 344.710938 294.390625 344.757812 295.378906 344.757812 296.371094 Z M 344.757812 296.371094 " fill-opacity="1" fill-rule="nonzero"/><path fill="#d6c9a5" d="M 368.953125 241.933594 L 368.953125 350.804688 L 344.757812 350.804688 L 344.757812 296.371094 C 344.757812 295.378906 344.710938 294.390625 344.613281 293.40625 C 344.515625 292.421875 344.371094 291.441406 344.175781 290.472656 C 343.984375 289.5 343.742188 288.539062 343.457031 287.59375 C 343.167969 286.644531 342.835938 285.714844 342.457031 284.796875 C 342.078125 283.882812 341.652344 282.988281 341.1875 282.113281 C 340.71875 281.242188 340.210938 280.394531 339.660156 279.570312 C 339.109375 278.746094 338.523438 277.953125 337.894531 277.1875 C 337.265625 276.421875 336.601562 275.6875 335.898438 274.988281 C 335.199219 274.285156 334.46875 273.621094 333.703125 272.992188 C 332.9375 272.367188 332.140625 271.777344 331.316406 271.226562 C 330.492188 270.675781 329.644531 270.167969 328.773438 269.699219 C 327.898438 269.234375 327.003906 268.808594 326.089844 268.429688 C 325.175781 268.050781 324.242188 267.71875 323.292969 267.429688 C 322.347656 267.144531 321.386719 266.902344 320.414062 266.710938 C 319.445312 266.515625 318.464844 266.371094 317.480469 266.273438 C 316.496094 266.175781 315.507812 266.128906 314.515625 266.128906 C 313.527344 266.128906 312.539062 266.175781 311.550781 266.273438 C 310.566406 266.371094 309.585938 266.515625 308.617188 266.710938 C 307.644531 266.902344 306.683594 267.144531 305.738281 267.429688 C 304.789062 267.71875 303.859375 268.050781 302.941406 268.429688 C 302.027344 268.808594 301.132812 269.234375 300.261719 269.699219 C 299.386719 270.167969 298.539062 270.675781 297.714844 271.226562 C 296.890625 271.777344 296.097656 272.367188 295.332031 272.992188 C 294.566406 273.621094 293.832031 274.285156 293.132812 274.988281 C 292.429688 275.6875 291.765625 276.421875 291.140625 277.1875 C 290.511719 277.953125 289.921875 278.746094 289.371094 279.570312 C 288.820312 280.394531 288.3125 281.242188 287.84375 282.113281 C 287.378906 282.988281 286.957031 283.882812 286.574219 284.796875 C 286.195312 285.714844 285.863281 286.644531 285.578125 287.59375 C 285.289062 288.539062 285.046875 289.5 284.855469 290.472656 C 284.660156 291.441406 284.515625 292.421875 284.417969 293.40625 C 284.324219 294.390625 284.273438 295.378906 284.273438 296.371094 L 284.273438 350.804688 L 260.082031 350.804688 L 260.082031 241.933594 Z M 368.953125 241.933594 " fill-opacity="1" fill-rule="nonzero"/><path fill="#e89838" d="M 296.371094 157.257812 L 332.660156 157.257812 L 332.660156 193.546875 L 296.371094 193.546875 Z M 296.371094 157.257812 " fill-opacity="1" fill-rule="nonzero"/><path fill="#bfb18e" d="M 272.175781 217.742188 L 375 217.742188 L 375 241.933594 L 260.082031 241.933594 L 260.082031 217.742188 Z M 272.175781 217.742188 " fill-opacity="1" fill-rule="nonzero"/><path fill="#53647c" d="M 338.710938 90.726562 L 368.953125 133.066406 L 260.082031 133.066406 L 260.082031 90.726562 Z M 338.710938 90.726562 " fill-opacity="1" fill-rule="nonzero"/><path fill="#d6c9a5" d="M 368.953125 133.066406 L 368.953125 217.742188 L 272.175781 217.742188 L 272.175781 193.546875 L 260.082031 193.546875 L 260.082031 133.066406 Z M 332.660156 193.546875 L 332.660156 157.257812 L 296.371094 157.257812 L 296.371094 193.546875 Z M 332.660156 193.546875 " fill-opacity="1" fill-rule="nonzero"/><path fill="#f9bb3d" d="M 157.257812 157.257812 L 217.742188 157.257812 L 217.742188 193.546875 L 157.257812 193.546875 Z M 157.257812 157.257812 " fill-opacity="1" fill-rule="nonzero"/><path fill="#8eabc1" d="M 223.789062 84.675781 C 223.789062 85.867188 223.730469 87.050781 223.617188 88.234375 C 223.5 89.417969 223.324219 90.589844 223.09375 91.757812 C 222.859375 92.921875 222.574219 94.074219 222.226562 95.210938 C 221.882812 96.347656 221.484375 97.46875 221.027344 98.566406 C 220.574219 99.664062 220.066406 100.738281 219.503906 101.785156 C 218.945312 102.832031 218.335938 103.851562 217.675781 104.839844 C 217.015625 105.828125 216.308594 106.78125 215.554688 107.699219 C 214.796875 108.617188 214 109.5 213.160156 110.339844 C 212.320312 111.179688 211.441406 111.976562 210.523438 112.730469 C 209.605469 113.484375 208.648438 114.191406 207.660156 114.851562 C 206.671875 115.511719 205.65625 116.121094 204.605469 116.683594 C 203.558594 117.242188 202.484375 117.75 201.386719 118.207031 C 200.289062 118.660156 199.171875 119.058594 198.035156 119.40625 C 196.898438 119.75 195.746094 120.039062 194.578125 120.269531 C 193.414062 120.503906 192.238281 120.675781 191.058594 120.792969 C 189.875 120.910156 188.6875 120.96875 187.5 120.96875 C 186.3125 120.96875 185.125 120.910156 183.941406 120.792969 C 182.761719 120.675781 181.585938 120.503906 180.421875 120.269531 C 179.253906 120.039062 178.101562 119.75 176.964844 119.40625 C 175.828125 119.058594 174.710938 118.660156 173.613281 118.207031 C 172.515625 117.75 171.441406 117.242188 170.394531 116.683594 C 169.34375 116.121094 168.328125 115.511719 167.339844 114.851562 C 166.351562 114.191406 165.394531 113.484375 164.476562 112.730469 C 163.558594 111.976562 162.679688 111.179688 161.839844 110.339844 C 161 109.5 160.203125 108.617188 159.445312 107.699219 C 158.691406 106.78125 157.984375 105.828125 157.324219 104.839844 C 156.664062 103.851562 156.054688 102.832031 155.496094 101.785156 C 154.933594 100.738281 154.425781 99.664062 153.972656 98.566406 C 153.515625 97.46875 153.117188 96.347656 152.773438 95.210938 C 152.425781 94.074219 152.140625 92.921875 151.90625 91.757812 C 151.675781 90.589844 151.5 89.417969 151.382812 88.234375 C 151.269531 87.050781 151.210938 85.867188 151.210938 84.675781 C 151.210938 83.488281 151.269531 82.304688 151.382812 81.121094 C 151.5 79.9375 151.675781 78.761719 151.90625 77.597656 C 152.140625 76.433594 152.425781 75.28125 152.773438 74.144531 C 153.117188 73.003906 153.515625 71.886719 153.972656 70.789062 C 154.425781 69.691406 154.933594 68.617188 155.496094 67.570312 C 156.054688 66.523438 156.664062 65.503906 157.324219 64.515625 C 157.984375 63.527344 158.691406 62.574219 159.445312 61.65625 C 160.203125 60.734375 161 59.855469 161.839844 59.015625 C 162.679688 58.175781 163.558594 57.378906 164.476562 56.625 C 165.394531 55.871094 166.351562 55.164062 167.339844 54.503906 C 168.328125 53.84375 169.34375 53.234375 170.394531 52.671875 C 171.441406 52.113281 172.515625 51.605469 173.613281 51.148438 C 174.710938 50.695312 175.828125 50.292969 176.964844 49.949219 C 178.101562 49.605469 179.253906 49.316406 180.421875 49.085938 C 181.585938 48.851562 182.761719 48.679688 183.941406 48.5625 C 185.125 48.445312 186.3125 48.386719 187.5 48.386719 C 188.6875 48.386719 189.875 48.445312 191.058594 48.5625 C 192.238281 48.679688 193.414062 48.851562 194.578125 49.085938 C 195.746094 49.316406 196.898438 49.605469 198.035156 49.949219 C 199.171875 50.292969 200.289062 50.695312 201.386719 51.148438 C 202.484375 51.605469 203.558594 52.113281 204.605469 52.671875 C 205.65625 53.234375 206.671875 53.84375 207.660156 54.503906 C 208.648438 55.164062 209.605469 55.871094 210.523438 56.625 C 211.441406 57.378906 212.320312 58.175781 213.160156 59.015625 C 214 59.855469 214.796875 60.734375 215.554688 61.65625 C 216.308594 62.574219 217.015625 63.527344 217.675781 64.515625 C 218.335938 65.503906 218.945312 66.523438 219.503906 67.570312 C 220.066406 68.617188 220.574219 69.691406 221.027344 70.789062 C 221.484375 71.886719 221.882812 73.003906 222.226562 74.144531 C 222.574219 75.28125 222.859375 76.433594 223.09375 77.597656 C 223.324219 78.761719 223.5 79.9375 223.617188 81.121094 C 223.730469 82.304688 223.789062 83.488281 223.789062 84.675781 Z M 223.789062 84.675781 " fill-opacity="1" fill-rule="nonzero"/><path fill="#e8debf" d="M 260.082031 133.066406 L 260.082031 193.546875 L 217.742188 193.546875 L 217.742188 157.257812 L 157.257812 157.257812 L 157.257812 193.546875 L 114.917969 193.546875 L 114.917969 54.433594 L 187.5 0 L 260.082031 54.433594 Z M 223.789062 84.675781 C 223.789062 83.488281 223.730469 82.304688 223.617188 81.121094 C 223.5 79.9375 223.324219 78.761719 223.09375 77.597656 C 222.859375 76.433594 222.574219 75.28125 222.226562 74.144531 C 221.882812 73.003906 221.484375 71.886719 221.027344 70.789062 C 220.574219 69.691406 220.066406 68.617188 219.503906 67.570312 C 218.945312 66.523438 218.335938 65.503906 217.675781 64.515625 C 217.015625 63.527344 216.308594 62.574219 215.554688 61.65625 C 214.796875 60.734375 214 59.855469 213.160156 59.015625 C 212.320312 58.175781 211.441406 57.378906 210.523438 56.625 C 209.605469 55.871094 208.648438 55.164062 207.660156 54.503906 C 206.671875 53.84375 205.65625 53.234375 204.605469 52.671875 C 203.558594 52.113281 202.484375 51.605469 201.386719 51.148438 C 200.289062 50.695312 199.171875 50.292969 198.035156 49.949219 C 196.898438 49.605469 195.746094 49.316406 194.578125 49.085938 C 193.414062 48.851562 192.238281 48.679688 191.058594 48.5625 C 189.875 48.445312 188.6875 48.386719 187.5 48.386719 C 186.3125 48.386719 185.125 48.445312 183.941406 48.5625 C 182.761719 48.679688 181.585938 48.851562 180.421875 49.085938 C 179.253906 49.316406 178.101562 49.605469 176.964844 49.949219 C 175.828125 50.292969 174.710938 50.695312 173.613281 51.148438 C 172.515625 51.605469 171.441406 52.113281 170.394531 52.671875 C 169.34375 53.234375 168.328125 53.84375 167.339844 54.503906 C 166.351562 55.164062 165.394531 55.871094 164.476562 56.625 C 163.558594 57.378906 162.679688 58.175781 161.839844 59.015625 C 161 59.855469 160.203125 60.734375 159.445312 61.65625 C 158.691406 62.574219 157.984375 63.527344 157.324219 64.515625 C 156.664062 65.503906 156.054688 66.523438 155.496094 67.570312 C 154.933594 68.617188 154.425781 69.691406 153.972656 70.789062 C 153.515625 71.886719 153.117188 73.003906 152.773438 74.144531 C 152.425781 75.28125 152.140625 76.433594 151.90625 77.597656 C 151.675781 78.761719 151.5 79.9375 151.382812 81.121094 C 151.269531 82.304688 151.210938 83.488281 151.210938 84.675781 C 151.210938 85.867188 151.269531 87.050781 151.382812 88.234375 C 151.5 89.417969 151.675781 90.589844 151.90625 91.757812 C 152.140625 92.921875 152.425781 94.074219 152.773438 95.210938 C 153.117188 96.347656 153.515625 97.46875 153.972656 98.566406 C 154.425781 99.664062 154.933594 100.738281 155.496094 101.785156 C 156.054688 102.832031 156.664062 103.851562 157.324219 104.839844 C 157.984375 105.828125 158.691406 106.78125 159.445312 107.699219 C 160.203125 108.617188 161 109.5 161.839844 110.339844 C 162.679688 111.179688 163.558594 111.976562 164.476562 112.730469 C 165.394531 113.484375 166.351562 114.191406 167.339844 114.851562 C 168.328125 115.511719 169.34375 116.121094 170.394531 116.683594 C 171.441406 117.242188 172.515625 117.75 173.613281 118.207031 C 174.710938 118.660156 175.828125 119.058594 176.964844 119.40625 C 178.101562 119.75 179.253906 120.039062 180.421875 120.269531 C 181.585938 120.503906 182.761719 120.675781 183.941406 120.792969 C 185.125 120.910156 186.3125 120.96875 187.5 120.96875 C 188.6875 120.964844 189.875 120.90625 191.054688 120.789062 C 192.238281 120.671875 193.414062 120.5 194.578125 120.265625 C 195.742188 120.03125 196.894531 119.746094 198.03125 119.398438 C 199.167969 119.054688 200.285156 118.652344 201.382812 118.199219 C 202.480469 117.742188 203.554688 117.234375 204.601562 116.675781 C 205.648438 116.113281 206.667969 115.503906 207.65625 114.84375 C 208.644531 114.183594 209.597656 113.476562 210.515625 112.722656 C 211.433594 111.96875 212.3125 111.171875 213.152344 110.332031 C 213.992188 109.488281 214.789062 108.609375 215.542969 107.691406 C 216.296875 106.773438 217.003906 105.820312 217.664062 104.832031 C 218.324219 103.84375 218.9375 102.828125 219.496094 101.777344 C 220.058594 100.730469 220.566406 99.660156 221.019531 98.5625 C 221.476562 97.464844 221.875 96.34375 222.222656 95.207031 C 222.566406 94.070312 222.855469 92.921875 223.089844 91.753906 C 223.320312 90.589844 223.496094 89.417969 223.613281 88.234375 C 223.730469 87.050781 223.789062 85.867188 223.789062 84.675781 Z M 223.789062 84.675781 " fill-opacity="1" fill-rule="nonzero"/><path fill="#53647c" d="M 114.917969 90.726562 L 114.917969 133.066406 L 6.046875 133.066406 L 36.289062 90.726562 Z M 114.917969 90.726562 " fill-opacity="1" fill-rule="nonzero"/><path fill="#e89838" d="M 42.339844 157.257812 L 78.628906 157.257812 L 78.628906 193.546875 L 42.339844 193.546875 Z M 42.339844 157.257812 " fill-opacity="1" fill-rule="nonzero"/><path fill="#d6c9a5" d="M 114.917969 133.066406 L 114.917969 193.546875 L 102.824219 193.546875 L 102.824219 217.742188 L 6.046875 217.742188 L 6.046875 133.066406 Z M 78.628906 193.546875 L 78.628906 157.257812 L 42.339844 157.257812 L 42.339844 193.546875 Z M 78.628906 193.546875 " fill-opacity="1" fill-rule="nonzero"/><path fill="#d6c9a5" d="M 102.824219 193.546875 L 272.175781 193.546875 L 272.175781 217.742188 L 102.824219 217.742188 Z M 102.824219 193.546875 " fill-opacity="1" fill-rule="nonzero"/><path fill="#bfb18e" d="M 0 217.742188 L 114.917969 217.742188 L 114.917969 241.933594 L 0 241.933594 Z M 0 217.742188 " fill-opacity="1" fill-rule="nonzero"/><path fill="#e8debf" d="M 260.082031 241.933594 L 260.082031 350.804688 L 223.789062 350.804688 L 223.789062 290.324219 C 223.789062 289.132812 223.730469 287.949219 223.609375 286.765625 C 223.492188 285.585938 223.316406 284.410156 223.085938 283.246094 C 222.851562 282.082031 222.5625 280.929688 222.214844 279.792969 C 221.871094 278.65625 221.46875 277.539062 221.011719 276.441406 C 220.558594 275.347656 220.050781 274.273438 219.488281 273.226562 C 218.929688 272.179688 218.316406 271.160156 217.65625 270.171875 C 216.996094 269.1875 216.289062 268.234375 215.535156 267.316406 C 214.78125 266.398438 213.984375 265.515625 213.144531 264.675781 C 212.304688 263.835938 211.425781 263.039062 210.507812 262.285156 C 209.589844 261.53125 208.636719 260.824219 207.648438 260.164062 C 206.660156 259.503906 205.644531 258.894531 204.597656 258.332031 C 203.550781 257.773438 202.476562 257.265625 201.378906 256.808594 C 200.28125 256.355469 199.164062 255.953125 198.027344 255.605469 C 196.890625 255.261719 195.742188 254.972656 194.574219 254.738281 C 193.410156 254.503906 192.238281 254.328125 191.054688 254.210938 C 189.875 254.09375 188.6875 254.035156 187.5 254.03125 C 186.3125 254.03125 185.125 254.09375 183.945312 254.210938 C 182.761719 254.328125 181.585938 254.5 180.421875 254.734375 C 179.257812 254.96875 178.105469 255.253906 176.96875 255.601562 C 175.832031 255.945312 174.714844 256.347656 173.617188 256.800781 C 172.519531 257.257812 171.445312 257.765625 170.398438 258.324219 C 169.351562 258.886719 168.332031 259.496094 167.34375 260.15625 C 166.355469 260.816406 165.402344 261.523438 164.484375 262.277344 C 163.566406 263.03125 162.6875 263.828125 161.847656 264.667969 C 161.007812 265.511719 160.210938 266.390625 159.457031 267.308594 C 158.703125 268.226562 157.996094 269.179688 157.335938 270.167969 C 156.675781 271.15625 156.0625 272.171875 155.503906 273.222656 C 154.941406 274.269531 154.433594 275.339844 153.980469 276.4375 C 153.523438 277.535156 153.125 278.652344 152.777344 279.792969 C 152.433594 280.929688 152.144531 282.078125 151.910156 283.246094 C 151.679688 284.410156 151.503906 285.582031 151.386719 286.765625 C 151.269531 287.949219 151.210938 289.132812 151.210938 290.324219 L 151.210938 350.804688 L 114.917969 350.804688 L 114.917969 217.742188 L 260.082031 217.742188 Z M 260.082031 241.933594 " fill-opacity="1" fill-rule="nonzero"/><path fill="#d6c9a5" d="M 114.917969 241.933594 L 114.917969 350.804688 L 90.726562 350.804688 L 90.726562 296.371094 C 90.726562 295.378906 90.675781 294.390625 90.582031 293.40625 C 90.484375 292.421875 90.339844 291.441406 90.144531 290.472656 C 89.953125 289.5 89.710938 288.539062 89.421875 287.59375 C 89.136719 286.644531 88.804688 285.714844 88.421875 284.796875 C 88.042969 283.882812 87.621094 282.988281 87.15625 282.113281 C 86.6875 281.242188 86.179688 280.394531 85.628906 279.570312 C 85.078125 278.746094 84.488281 277.953125 83.859375 277.1875 C 83.234375 276.421875 82.570312 275.6875 81.867188 274.988281 C 81.167969 274.285156 80.433594 273.621094 79.667969 272.992188 C 78.902344 272.367188 78.109375 271.777344 77.285156 271.226562 C 76.460938 270.675781 75.613281 270.167969 74.738281 269.699219 C 73.867188 269.234375 72.972656 268.808594 72.058594 268.429688 C 71.140625 268.050781 70.210938 267.71875 69.261719 267.429688 C 68.316406 267.144531 67.355469 266.902344 66.382812 266.710938 C 65.414062 266.515625 64.433594 266.371094 63.449219 266.273438 C 62.460938 266.175781 61.472656 266.128906 60.484375 266.128906 C 59.492188 266.128906 58.503906 266.175781 57.519531 266.273438 C 56.535156 266.371094 55.554688 266.515625 54.582031 266.710938 C 53.613281 266.902344 52.652344 267.144531 51.707031 267.429688 C 50.757812 267.71875 49.824219 268.050781 48.910156 268.429688 C 47.996094 268.808594 47.101562 269.234375 46.226562 269.699219 C 45.355469 270.167969 44.507812 270.675781 43.683594 271.226562 C 42.859375 271.777344 42.0625 272.367188 41.296875 272.992188 C 40.53125 273.621094 39.800781 274.285156 39.097656 274.988281 C 38.398438 275.6875 37.734375 276.421875 37.105469 277.1875 C 36.476562 277.953125 35.890625 278.746094 35.339844 279.570312 C 34.789062 280.394531 34.28125 281.242188 33.8125 282.113281 C 33.347656 282.988281 32.921875 283.882812 32.542969 284.796875 C 32.164062 285.714844 31.832031 286.644531 31.542969 287.59375 C 31.257812 288.539062 31.015625 289.5 30.824219 290.472656 C 30.628906 291.441406 30.484375 292.421875 30.386719 293.40625 C 30.289062 294.390625 30.242188 295.378906 30.242188 296.371094 L 30.242188 350.804688 L 6.046875 350.804688 L 6.046875 241.933594 Z M 114.917969 241.933594 " fill-opacity="1" fill-rule="nonzero"/><path fill="#808080" d="M 90.726562 296.371094 L 90.726562 350.804688 L 30.242188 350.804688 L 30.242188 296.371094 C 30.242188 295.378906 30.289062 294.390625 30.386719 293.40625 C 30.484375 292.421875 30.628906 291.441406 30.824219 290.472656 C 31.015625 289.5 31.257812 288.539062 31.542969 287.59375 C 31.832031 286.644531 32.164062 285.714844 32.542969 284.796875 C 32.921875 283.882812 33.347656 282.988281 33.8125 282.113281 C 34.28125 281.242188 34.789062 280.394531 35.339844 279.570312 C 35.890625 278.746094 36.476562 277.953125 37.105469 277.1875 C 37.734375 276.421875 38.398438 275.6875 39.097656 274.988281 C 39.800781 274.285156 40.53125 273.621094 41.296875 272.992188 C 42.0625 272.367188 42.859375 271.777344 43.683594 271.226562 C 44.507812 270.675781 45.355469 270.167969 46.226562 269.699219 C 47.101562 269.234375 47.996094 268.808594 48.910156 268.429688 C 49.824219 268.050781 50.757812 267.71875 51.707031 267.429688 C 52.652344 267.144531 53.613281 266.902344 54.582031 266.710938 C 55.554688 266.515625 56.535156 266.371094 57.519531 266.273438 C 58.503906 266.175781 59.492188 266.128906 60.484375 266.128906 C 61.472656 266.128906 62.460938 266.175781 63.449219 266.273438 C 64.433594 266.371094 65.414062 266.515625 66.382812 266.710938 C 67.355469 266.902344 68.316406 267.144531 69.261719 267.429688 C 70.210938 267.71875 71.140625 268.050781 72.058594 268.429688 C 72.972656 268.808594 73.867188 269.234375 74.738281 269.699219 C 75.613281 270.167969 76.460938 270.675781 77.285156 271.226562 C 78.109375 271.777344 78.902344 272.367188 79.667969 272.992188 C 80.433594 273.621094 81.167969 274.285156 81.867188 274.988281 C 82.570312 275.6875 83.234375 276.421875 83.859375 277.1875 C 84.488281 277.953125 85.078125 278.746094 85.628906 279.570312 C 86.179688 280.394531 86.6875 281.242188 87.15625 282.113281 C 87.621094 282.988281 88.042969 283.882812 88.421875 284.796875 C 88.804688 285.714844 89.136719 286.644531 89.421875 287.59375 C 89.710938 288.539062 89.953125 289.5 90.144531 290.472656 C 90.339844 291.441406 90.484375 292.421875 90.582031 293.40625 C 90.675781 294.390625 90.726562 295.378906 90.726562 296.371094 Z M 90.726562 296.371094 " fill-opacity="1" fill-rule="nonzero"/><path fill="#999999" d="M 223.789062 290.324219 L 223.789062 350.804688 L 151.210938 350.804688 L 151.210938 290.324219 C 151.210938 289.132812 151.269531 287.949219 151.386719 286.765625 C 151.503906 285.582031 151.679688 284.410156 151.910156 283.246094 C 152.144531 282.078125 152.433594 280.929688 152.777344 279.792969 C 153.125 278.652344 153.523438 277.535156 153.980469 276.4375 C 154.433594 275.339844 154.941406 274.269531 155.503906 273.222656 C 156.0625 272.171875 156.675781 271.15625 157.335938 270.167969 C 157.996094 269.179688 158.703125 268.226562 159.457031 267.308594 C 160.210938 266.390625 161.007812 265.511719 161.847656 264.667969 C 162.6875 263.828125 163.566406 263.03125 164.484375 262.277344 C 165.402344 261.523438 166.355469 260.816406 167.34375 260.15625 C 168.332031 259.496094 169.351562 258.886719 170.398438 258.324219 C 171.445312 257.765625 172.519531 257.257812 173.617188 256.800781 C 174.714844 256.347656 175.832031 255.945312 176.96875 255.601562 C 178.105469 255.253906 179.257812 254.96875 180.421875 254.734375 C 181.585938 254.5 182.761719 254.328125 183.945312 254.210938 C 185.125 254.09375 186.3125 254.03125 187.5 254.03125 C 188.6875 254.035156 189.875 254.09375 191.054688 254.210938 C 192.238281 254.328125 193.410156 254.503906 194.574219 254.738281 C 195.742188 254.972656 196.890625 255.261719 198.027344 255.605469 C 199.164062 255.953125 200.28125 256.355469 201.378906 256.808594 C 202.476562 257.265625 203.550781 257.773438 204.597656 258.332031 C 205.644531 258.894531 206.660156 259.503906 207.648438 260.164062 C 208.636719 260.824219 209.589844 261.53125 210.507812 262.285156 C 211.425781 263.039062 212.304688 263.835938 213.144531 264.675781 C 213.984375 265.515625 214.78125 266.398438 215.535156 267.316406 C 216.289062 268.234375 216.996094 269.1875 217.65625 270.171875 C 218.316406 271.160156 218.929688 272.179688 219.488281 273.226562 C 220.050781 274.273438 220.558594 275.347656 221.011719 276.441406 C 221.46875 277.539062 221.871094 278.65625 222.214844 279.792969 C 222.5625 280.929688 222.851562 282.082031 223.085938 283.246094 C 223.316406 284.410156 223.492188 285.585938 223.609375 286.765625 C 223.730469 287.949219 223.789062 289.132812 223.789062 290.324219 Z M 223.789062 290.324219 " fill-opacity="1" fill-rule="nonzero"/><path fill="#666666" d="M 314.515625 266.128906 C 313.523438 266.125 312.535156 266.171875 311.550781 266.265625 C 310.5625 266.359375 309.582031 266.503906 308.609375 266.695312 C 307.636719 266.886719 306.675781 267.125 305.726562 267.410156 C 304.777344 267.695312 303.84375 268.027344 302.929688 268.40625 C 302.011719 268.785156 301.117188 269.207031 300.242188 269.671875 C 299.367188 270.140625 298.515625 270.648438 297.691406 271.199219 C 296.867188 271.746094 296.074219 272.335938 295.304688 272.964844 C 294.539062 273.59375 293.804688 274.257812 293.105469 274.960938 C 292.402344 275.660156 291.738281 276.394531 291.109375 277.160156 C 290.480469 277.925781 289.894531 278.722656 289.34375 279.546875 C 288.792969 280.371094 288.285156 281.222656 287.816406 282.097656 C 287.351562 282.972656 286.929688 283.867188 286.550781 284.785156 C 286.171875 285.699219 285.839844 286.632812 285.554688 287.582031 C 285.269531 288.53125 285.03125 289.492188 284.839844 290.464844 C 284.648438 291.4375 284.507812 292.417969 284.410156 293.402344 C 284.316406 294.390625 284.269531 295.378906 284.273438 296.371094 L 284.273438 320.566406 C 284.273438 319.574219 284.324219 318.585938 284.417969 317.601562 C 284.515625 316.613281 284.660156 315.636719 284.855469 314.664062 C 285.046875 313.691406 285.289062 312.734375 285.578125 311.785156 C 285.863281 310.839844 286.195312 309.90625 286.574219 308.992188 C 286.957031 308.078125 287.378906 307.183594 287.84375 306.308594 C 288.3125 305.433594 288.820312 304.585938 289.371094 303.761719 C 289.921875 302.9375 290.511719 302.144531 291.140625 301.378906 C 291.765625 300.613281 292.429688 299.878906 293.132812 299.179688 C 293.832031 298.480469 294.566406 297.816406 295.332031 297.1875 C 296.097656 296.558594 296.890625 295.96875 297.714844 295.417969 C 298.539062 294.867188 299.386719 294.359375 300.261719 293.894531 C 301.132812 293.425781 302.027344 293.003906 302.941406 292.625 C 303.859375 292.246094 304.789062 291.914062 305.738281 291.625 C 306.683594 291.335938 307.644531 291.097656 308.617188 290.902344 C 309.585938 290.710938 310.566406 290.566406 311.550781 290.46875 C 312.539062 290.371094 313.527344 290.324219 314.515625 290.324219 C 315.507812 290.324219 316.496094 290.371094 317.480469 290.46875 C 318.464844 290.566406 319.445312 290.710938 320.414062 290.902344 C 321.386719 291.097656 322.347656 291.335938 323.292969 291.625 C 324.242188 291.914062 325.175781 292.246094 326.089844 292.625 C 327.003906 293.003906 327.898438 293.425781 328.773438 293.894531 C 329.644531 294.359375 330.492188 294.867188 331.316406 295.417969 C 332.140625 295.96875 332.9375 296.558594 333.703125 297.1875 C 334.46875 297.816406 335.199219 298.480469 335.898438 299.179688 C 336.601562 299.878906 337.265625 300.613281 337.894531 301.378906 C 338.523438 302.144531 339.109375 302.9375 339.660156 303.761719 C 340.210938 304.585938 340.71875 305.433594 341.1875 306.308594 C 341.652344 307.183594 342.078125 308.078125 342.457031 308.992188 C 342.835938 309.90625 343.167969 310.839844 343.457031 311.785156 C 343.742188 312.734375 343.984375 313.691406 344.175781 314.664062 C 344.371094 315.636719 344.515625 316.613281 344.613281 317.601562 C 344.710938 318.585938 344.757812 319.574219 344.757812 320.566406 L 344.757812 296.371094 C 344.757812 295.378906 344.707031 294.394531 344.613281 293.40625 C 344.515625 292.421875 344.367188 291.441406 344.175781 290.472656 C 343.980469 289.5 343.742188 288.542969 343.453125 287.59375 C 343.164062 286.644531 342.832031 285.714844 342.453125 284.800781 C 342.074219 283.882812 341.652344 282.992188 341.183594 282.117188 C 340.714844 281.242188 340.207031 280.394531 339.65625 279.570312 C 339.109375 278.75 338.519531 277.953125 337.890625 277.1875 C 337.261719 276.421875 336.597656 275.691406 335.898438 274.988281 C 335.195312 274.289062 334.464844 273.625 333.699219 272.996094 C 332.933594 272.367188 332.136719 271.78125 331.316406 271.230469 C 330.492188 270.679688 329.644531 270.171875 328.769531 269.703125 C 327.894531 269.234375 327.003906 268.8125 326.085938 268.433594 C 325.171875 268.054688 324.242188 267.722656 323.292969 267.433594 C 322.347656 267.144531 321.386719 266.90625 320.414062 266.710938 C 319.445312 266.519531 318.464844 266.375 317.480469 266.277344 C 316.496094 266.179688 315.507812 266.128906 314.515625 266.128906 Z M 314.515625 266.128906 " fill-opacity="1" fill-rule="nonzero"/><path fill="#666666" d="M 81.894531 274.960938 C 80.839844 273.910156 79.71875 272.941406 78.519531 272.058594 C 77.324219 271.175781 76.070312 270.382812 74.757812 269.683594 C 73.445312 268.984375 72.089844 268.386719 70.6875 267.886719 C 69.289062 267.386719 67.859375 266.992188 66.398438 266.707031 C 64.941406 266.417969 63.46875 266.238281 61.984375 266.164062 C 60.496094 266.09375 59.015625 266.128906 57.535156 266.277344 C 56.054688 266.425781 54.59375 266.679688 53.152344 267.039062 C 51.710938 267.402344 50.300781 267.867188 48.925781 268.4375 C 47.554688 269.007812 46.230469 269.675781 44.953125 270.4375 C 43.679688 271.203125 42.464844 272.058594 41.316406 273 C 40.164062 273.945312 39.089844 274.964844 38.09375 276.066406 C 37.09375 277.167969 36.179688 278.339844 35.355469 279.574219 C 34.527344 280.808594 33.796875 282.101562 33.160156 283.445312 C 32.523438 284.789062 31.988281 286.171875 31.554688 287.59375 C 31.121094 289.015625 30.792969 290.464844 30.574219 291.933594 C 30.355469 293.40625 30.242188 294.882812 30.242188 296.371094 L 30.242188 320.566406 C 30.242188 319.574219 30.289062 318.585938 30.386719 317.601562 C 30.484375 316.613281 30.628906 315.636719 30.824219 314.664062 C 31.015625 313.691406 31.257812 312.734375 31.542969 311.785156 C 31.832031 310.839844 32.164062 309.90625 32.542969 308.992188 C 32.921875 308.078125 33.347656 307.183594 33.8125 306.308594 C 34.28125 305.433594 34.789062 304.585938 35.339844 303.761719 C 35.890625 302.9375 36.476562 302.144531 37.105469 301.378906 C 37.734375 300.613281 38.398438 299.878906 39.097656 299.179688 C 39.800781 298.480469 40.53125 297.816406 41.296875 297.1875 C 42.0625 296.558594 42.859375 295.96875 43.683594 295.417969 C 44.507812 294.867188 45.355469 294.359375 46.226562 293.894531 C 47.101562 293.425781 47.996094 293.003906 48.910156 292.625 C 49.824219 292.246094 50.757812 291.914062 51.707031 291.625 C 52.652344 291.335938 53.613281 291.097656 54.582031 290.902344 C 55.554688 290.710938 56.535156 290.566406 57.519531 290.46875 C 58.503906 290.371094 59.492188 290.324219 60.484375 290.324219 C 61.472656 290.324219 62.460938 290.371094 63.449219 290.46875 C 64.433594 290.566406 65.414062 290.710938 66.382812 290.902344 C 67.355469 291.097656 68.316406 291.335938 69.261719 291.625 C 70.210938 291.914062 71.140625 292.246094 72.058594 292.625 C 72.972656 293.003906 73.867188 293.425781 74.738281 293.894531 C 75.613281 294.359375 76.460938 294.867188 77.285156 295.417969 C 78.109375 295.96875 78.902344 296.558594 79.667969 297.1875 C 80.433594 297.816406 81.167969 298.480469 81.867188 299.179688 C 82.570312 299.878906 83.234375 300.613281 83.859375 301.378906 C 84.488281 302.144531 85.078125 302.9375 85.628906 303.761719 C 86.179688 304.585938 86.6875 305.433594 87.15625 306.308594 C 87.621094 307.183594 88.042969 308.078125 88.421875 308.992188 C 88.804688 309.90625 89.136719 310.839844 89.421875 311.785156 C 89.710938 312.734375 89.953125 313.691406 90.144531 314.664062 C 90.339844 315.636719 90.484375 316.613281 90.582031 317.601562 C 90.675781 318.585938 90.726562 319.574219 90.726562 320.566406 L 90.726562 296.371094 C 90.726562 294.382812 90.53125 292.417969 90.148438 290.46875 C 89.761719 288.519531 89.1875 286.628906 88.429688 284.789062 C 87.675781 282.953125 86.746094 281.207031 85.644531 279.554688 C 84.546875 277.898438 83.296875 276.367188 81.894531 274.960938 Z M 81.894531 274.960938 " fill-opacity="1" fill-rule="nonzero"/><path fill="#808080" d="M 213.144531 264.675781 C 211.46875 262.984375 209.640625 261.472656 207.660156 260.144531 C 205.683594 258.816406 203.59375 257.691406 201.390625 256.777344 C 199.191406 255.867188 196.921875 255.175781 194.582031 254.714844 C 192.246094 254.253906 189.882812 254.023438 187.5 254.03125 C 186.3125 254.03125 185.125 254.09375 183.945312 254.210938 C 182.761719 254.328125 181.585938 254.5 180.421875 254.734375 C 179.257812 254.96875 178.105469 255.253906 176.96875 255.601562 C 175.832031 255.945312 174.714844 256.347656 173.617188 256.800781 C 172.519531 257.257812 171.445312 257.765625 170.398438 258.324219 C 169.351562 258.886719 168.332031 259.496094 167.34375 260.15625 C 166.355469 260.816406 165.402344 261.523438 164.484375 262.277344 C 163.566406 263.03125 162.6875 263.828125 161.847656 264.667969 C 161.007812 265.511719 160.210938 266.390625 159.457031 267.308594 C 158.703125 268.226562 157.996094 269.179688 157.335938 270.167969 C 156.675781 271.15625 156.0625 272.171875 155.503906 273.222656 C 154.941406 274.269531 154.433594 275.339844 153.980469 276.4375 C 153.523438 277.535156 153.125 278.652344 152.777344 279.792969 C 152.433594 280.929688 152.144531 282.078125 151.910156 283.246094 C 151.679688 284.410156 151.503906 285.582031 151.386719 286.765625 C 151.269531 287.949219 151.210938 289.132812 151.210938 290.324219 L 151.210938 314.515625 C 151.210938 313.328125 151.269531 312.140625 151.386719 310.960938 C 151.503906 309.777344 151.679688 308.605469 151.910156 307.4375 C 152.144531 306.273438 152.433594 305.121094 152.777344 303.984375 C 153.125 302.847656 153.523438 301.730469 153.980469 300.632812 C 154.433594 299.535156 154.941406 298.460938 155.503906 297.414062 C 156.0625 296.367188 156.675781 295.347656 157.335938 294.359375 C 157.996094 293.375 158.703125 292.421875 159.457031 291.5 C 160.210938 290.582031 161.007812 289.703125 161.847656 288.863281 C 162.6875 288.023438 163.566406 287.226562 164.484375 286.472656 C 165.402344 285.71875 166.355469 285.011719 167.34375 284.351562 C 168.332031 283.691406 169.351562 283.078125 170.398438 282.519531 C 171.445312 281.957031 172.519531 281.449219 173.617188 280.996094 C 174.714844 280.539062 175.832031 280.140625 176.96875 279.792969 C 178.105469 279.449219 179.257812 279.160156 180.421875 278.929688 C 181.585938 278.695312 182.761719 278.519531 183.945312 278.402344 C 185.125 278.285156 186.3125 278.226562 187.5 278.226562 C 188.6875 278.226562 189.875 278.289062 191.054688 278.40625 C 192.238281 278.523438 193.410156 278.699219 194.574219 278.933594 C 195.742188 279.164062 196.890625 279.453125 198.027344 279.800781 C 199.164062 280.148438 200.28125 280.546875 201.378906 281.003906 C 202.476562 281.457031 203.550781 281.964844 204.597656 282.527344 C 205.644531 283.085938 206.660156 283.699219 207.648438 284.359375 C 208.636719 285.019531 209.589844 285.726562 210.507812 286.480469 C 211.425781 287.234375 212.304688 288.03125 213.144531 288.871094 C 213.984375 289.710938 214.78125 290.589844 215.535156 291.507812 C 216.289062 292.425781 216.996094 293.378906 217.65625 294.367188 C 218.316406 295.355469 218.929688 296.371094 219.488281 297.417969 C 220.050781 298.46875 220.558594 299.539062 221.011719 300.636719 C 221.46875 301.734375 221.871094 302.851562 222.214844 303.988281 C 222.5625 305.125 222.851562 306.273438 223.085938 307.441406 C 223.316406 308.605469 223.492188 309.777344 223.609375 310.960938 C 223.730469 312.144531 223.789062 313.328125 223.789062 314.515625 L 223.789062 290.324219 C 223.796875 287.9375 223.570312 285.578125 223.109375 283.238281 C 222.644531 280.902344 221.957031 278.632812 221.042969 276.429688 C 220.128906 274.230469 219.007812 272.140625 217.679688 270.160156 C 216.347656 268.183594 214.839844 266.355469 213.144531 264.675781 Z M 213.144531 264.675781 " fill-opacity="1" fill-rule="nonzero"/><path fill="#53647c" d="M 199.597656 90.726562 L 187.5 90.726562 C 187.101562 90.726562 186.710938 90.6875 186.320312 90.609375 C 185.929688 90.53125 185.550781 90.417969 185.183594 90.265625 C 184.820312 90.113281 184.46875 89.925781 184.140625 89.707031 C 183.808594 89.484375 183.503906 89.234375 183.222656 88.953125 C 182.941406 88.671875 182.691406 88.367188 182.472656 88.039062 C 182.25 87.707031 182.0625 87.359375 181.910156 86.992188 C 181.761719 86.625 181.644531 86.246094 181.566406 85.855469 C 181.492188 85.46875 181.453125 85.074219 181.453125 84.675781 L 181.453125 72.582031 C 181.453125 72.183594 181.492188 71.789062 181.566406 71.402344 C 181.644531 71.011719 181.761719 70.632812 181.910156 70.265625 C 182.0625 69.898438 182.25 69.550781 182.472656 69.21875 C 182.691406 68.890625 182.941406 68.585938 183.222656 68.304688 C 183.503906 68.023438 183.808594 67.773438 184.140625 67.550781 C 184.46875 67.332031 184.820312 67.144531 185.183594 66.992188 C 185.550781 66.839844 185.929688 66.726562 186.320312 66.648438 C 186.710938 66.570312 187.101562 66.53125 187.5 66.53125 C 187.898438 66.53125 188.289062 66.570312 188.679688 66.648438 C 189.070312 66.726562 189.449219 66.839844 189.816406 66.992188 C 190.179688 67.144531 190.53125 67.332031 190.859375 67.550781 C 191.191406 67.773438 191.496094 68.023438 191.777344 68.304688 C 192.058594 68.585938 192.308594 68.890625 192.527344 69.21875 C 192.75 69.550781 192.9375 69.898438 193.089844 70.265625 C 193.238281 70.632812 193.355469 71.011719 193.433594 71.402344 C 193.507812 71.789062 193.546875 72.183594 193.546875 72.582031 L 193.546875 78.628906 L 199.597656 78.628906 C 199.992188 78.628906 200.386719 78.667969 200.777344 78.746094 C 201.167969 78.824219 201.542969 78.9375 201.910156 79.089844 C 202.277344 79.242188 202.625 79.425781 202.957031 79.648438 C 203.289062 79.867188 203.59375 80.121094 203.875 80.402344 C 204.15625 80.679688 204.40625 80.988281 204.625 81.316406 C 204.847656 81.648438 205.03125 81.996094 205.183594 82.363281 C 205.335938 82.730469 205.453125 83.109375 205.527344 83.496094 C 205.605469 83.886719 205.644531 84.28125 205.644531 84.675781 C 205.644531 85.074219 205.605469 85.46875 205.527344 85.855469 C 205.453125 86.246094 205.335938 86.625 205.183594 86.992188 C 205.03125 87.359375 204.847656 87.707031 204.625 88.039062 C 204.40625 88.367188 204.15625 88.671875 203.875 88.953125 C 203.59375 89.234375 203.289062 89.484375 202.957031 89.707031 C 202.625 89.925781 202.277344 90.113281 201.910156 90.265625 C 201.542969 90.417969 201.167969 90.53125 200.777344 90.609375 C 200.386719 90.6875 199.992188 90.726562 199.597656 90.726562 Z M 199.597656 90.726562 " fill-opacity="1" fill-rule="nonzero"/></svg>