<svg xmlns="http://www.w3.org/2000/svg" xmlns:xlink="http://www.w3.org/1999/xlink" width="500" zoomAndPan="magnify" viewBox="0 0 375 374.999991" height="500" preserveAspectRatio="xMidYMid meet" version="1.0"><defs><clipPath id="8b8fd43863"><path d="M 133 329 L 270 329 L 270 366.960938 L 133 366.960938 Z M 133 329 " clip-rule="nonzero"/></clipPath><clipPath id="7ddeed1d26"><path d="M 117 74.460938 L 210 74.460938 L 210 165 L 117 165 Z M 117 74.460938 " clip-rule="nonzero"/></clipPath><clipPath id="8937d5f1d4"><path d="M 10.058594 181 L 88 181 L 88 260 L 10.058594 260 Z M 10.058594 181 " clip-rule="nonzero"/></clipPath><clipPath id="f439ba6e3f"><path d="M 287 181 L 364.808594 181 L 364.808594 260 L 287 260 Z M 287 181 " clip-rule="nonzero"/></clipPath></defs><path fill="#ffffff" d="M 149.0625 275.160156 C 146.765625 275.160156 144.902344 273.296875 144.902344 271 L 144.902344 164.359375 C 144.902344 154.027344 153.316406 145.609375 163.648438 145.609375 C 173.992188 145.609375 182.394531 154.027344 182.394531 164.359375 L 182.394531 243.65625 C 182.394531 245.953125 180.53125 247.8125 178.238281 247.8125 C 175.929688 247.8125 174.078125 245.953125 174.078125 243.65625 L 174.078125 164.359375 C 174.078125 158.605469 169.398438 153.929688 163.648438 153.929688 C 157.898438 153.929688 153.230469 158.605469 153.230469 164.359375 L 153.230469 271 C 153.21875 273.296875 151.367188 275.160156 149.0625 275.160156 Z M 149.0625 275.160156 " fill-opacity="1" fill-rule="evenodd"/><path fill="#ffffff" d="M 204.660156 266.539062 C 202.367188 266.539062 200.503906 264.675781 200.503906 262.378906 L 200.503906 204.917969 C 200.503906 199.175781 195.824219 194.496094 190.085938 194.496094 C 186.738281 194.496094 183.574219 196.121094 181.617188 198.863281 C 180.273438 200.726562 177.671875 201.15625 175.8125 199.816406 C 173.949219 198.484375 173.515625 195.882812 174.859375 194.011719 C 178.378906 189.105469 184.0625 186.179688 190.074219 186.179688 C 200.417969 186.179688 208.820312 194.585938 208.820312 204.917969 L 208.820312 262.378906 C 208.820312 264.675781 206.945312 266.539062 204.660156 266.539062 Z M 204.660156 266.539062 " fill-opacity="1" fill-rule="evenodd"/><path fill="#ffffff" d="M 231.097656 266.539062 C 228.792969 266.539062 226.941406 264.675781 226.941406 262.378906 L 226.941406 214.488281 C 226.941406 208.738281 222.261719 204.0625 216.511719 204.0625 C 213.175781 204.0625 210 205.683594 208.03125 208.414062 C 206.6875 210.277344 204.089844 210.6875 202.226562 209.355469 C 200.363281 208.003906 199.941406 205.402344 201.292969 203.539062 C 204.8125 198.667969 210.5 195.742188 216.5 195.742188 C 226.84375 195.742188 235.257812 204.15625 235.257812 214.488281 L 235.257812 262.378906 C 235.257812 264.675781 233.382812 266.539062 231.097656 266.539062 Z M 231.097656 266.539062 " fill-opacity="1" fill-rule="evenodd"/><path fill="#ffffff" d="M 257.511719 275.160156 C 255.214844 275.160156 253.355469 273.296875 253.355469 271 L 253.355469 228.15625 C 253.355469 222.40625 248.6875 217.726562 242.933594 217.726562 C 239.609375 217.726562 236.4375 219.375 234.464844 222.101562 C 233.125 223.964844 230.523438 224.398438 228.660156 223.046875 C 226.796875 221.703125 226.375 219.101562 227.71875 217.242188 C 231.25 212.34375 236.9375 209.410156 242.933594 209.410156 C 253.277344 209.410156 261.671875 217.824219 261.671875 228.15625 L 261.671875 271 C 261.671875 273.296875 259.820312 275.160156 257.511719 275.160156 Z M 257.511719 275.160156 " fill-opacity="1" fill-rule="evenodd"/><path fill="#ffffff" d="M 134.742188 301.757812 C 133.355469 301.757812 132.015625 301.066406 131.222656 299.808594 L 108.351562 263.59375 C 102.902344 254.984375 105.371094 243.589844 113.808594 237.992188 C 117.132812 234.871094 121.855469 233.5625 126.828125 234.375 C 132.640625 235.328125 137.785156 239 140.246094 243.949219 L 152.796875 269.148438 C 153.816406 271.195312 152.980469 273.699219 150.921875 274.726562 C 148.867188 275.746094 146.363281 274.910156 145.347656 272.851562 L 132.804688 247.652344 C 131.527344 245.09375 128.65625 243.101562 125.484375 242.59375 C 124.03125 242.34375 121.304688 242.246094 119.355469 244.195312 C 119.246094 244.304688 119.125 244.402344 119.007812 244.5 C 118.886719 244.597656 118.757812 244.683594 118.628906 244.769531 C 113.765625 247.847656 112.304688 254.289062 115.378906 259.152344 L 138.253906 295.367188 C 139.476562 297.316406 138.890625 299.886719 136.953125 301.109375 C 136.269531 301.542969 135.5 301.757812 134.742188 301.757812 Z M 134.742188 301.757812 " fill-opacity="1" fill-rule="evenodd"/><path fill="#ffffff" d="M 158.179688 338.027344 C 156.511719 338.027344 154.941406 337.019531 154.300781 335.375 C 150.480469 325.53125 141.511719 313.617188 135.578125 305.722656 C 133.910156 303.492188 132.449219 301.5625 131.34375 299.980469 C 130.011719 298.121094 130.453125 295.519531 132.339844 294.1875 C 134.210938 292.878906 136.8125 293.320312 138.144531 295.195312 C 139.171875 296.667969 140.582031 298.550781 142.226562 300.730469 C 148.433594 308.972656 157.820312 321.449219 162.058594 332.363281 C 162.878906 334.507812 161.820312 336.914062 159.683594 337.746094 C 159.1875 337.941406 158.675781 338.027344 158.179688 338.027344 Z M 158.179688 338.027344 " fill-opacity="1" fill-rule="evenodd"/><path fill="#ffffff" d="M 245.523438 338.027344 C 244.398438 338.027344 243.269531 337.574219 242.449219 336.675781 C 240.898438 334.972656 241.019531 332.34375 242.730469 330.792969 C 256.644531 318.113281 255.347656 299.917969 253.972656 280.660156 C 253.753906 277.554688 253.527344 274.347656 253.363281 271.195312 C 253.257812 268.910156 255.023438 266.960938 257.316406 266.851562 C 259.582031 266.734375 261.5625 268.5 261.671875 270.796875 C 261.824219 273.839844 262.050781 277.011719 262.265625 280.066406 C 263.71875 300.457031 265.222656 321.542969 248.328125 336.945312 C 247.527344 337.671875 246.519531 338.027344 245.523438 338.027344 Z M 245.523438 338.027344 " fill-opacity="1" fill-rule="evenodd"/><g clip-path="url(#8b8fd43863)"><path fill="#ffffff" d="M 260.359375 366.738281 L 142.832031 366.738281 C 137.777344 366.738281 133.660156 362.625 133.660156 357.566406 L 133.660156 338.882812 C 133.660156 333.824219 137.777344 329.710938 142.832031 329.710938 L 260.359375 329.710938 C 265.40625 329.710938 269.523438 333.824219 269.523438 338.882812 L 269.523438 357.566406 C 269.523438 362.625 265.40625 366.738281 260.359375 366.738281 Z M 142.832031 338.027344 C 142.378906 338.027344 141.976562 338.417969 141.976562 338.882812 L 141.976562 357.566406 C 141.976562 358.03125 142.378906 358.421875 142.832031 358.421875 L 260.359375 358.421875 C 260.828125 358.421875 261.207031 358.03125 261.207031 357.566406 L 261.207031 338.882812 C 261.207031 338.417969 260.828125 338.027344 260.359375 338.027344 Z M 142.832031 338.027344 " fill-opacity="1" fill-rule="evenodd"/></g><g clip-path="url(#7ddeed1d26)"><path fill="#ffffff" d="M 149.6875 164.3125 C 149.234375 164.3125 148.757812 164.238281 148.300781 164.074219 C 129.925781 157.589844 117.554688 140.121094 117.554688 120.605469 C 117.554688 95.195312 138.242188 74.523438 163.648438 74.523438 C 189.054688 74.523438 209.730469 95.195312 209.730469 120.605469 C 209.730469 140.121094 197.382812 157.589844 178.996094 164.074219 C 176.828125 164.84375 174.457031 163.707031 173.6875 161.542969 C 172.917969 159.375 174.054688 156.992188 176.222656 156.234375 C 191.296875 150.90625 201.414062 136.601562 201.414062 120.605469 C 201.414062 99.789062 184.476562 82.839844 163.648438 82.839844 C 142.824219 82.839844 125.875 99.789062 125.875 120.605469 C 125.875 136.601562 136 150.917969 151.074219 156.234375 C 153.230469 156.992188 154.367188 159.375 153.609375 161.542969 C 153.003906 163.242188 151.398438 164.3125 149.6875 164.3125 Z M 149.6875 164.3125 " fill-opacity="1" fill-rule="evenodd"/></g><path fill="#ffffff" d="M 154.769531 132.496094 C 153.664062 132.496094 152.601562 132.050781 151.832031 131.28125 L 141.71875 121.167969 C 140.09375 119.542969 140.09375 116.910156 141.71875 115.285156 C 143.34375 113.671875 145.972656 113.671875 147.597656 115.285156 L 154.769531 122.457031 L 179.699219 97.527344 C 181.324219 95.902344 183.953125 95.902344 185.578125 97.527344 C 187.203125 99.148438 187.203125 101.78125 185.578125 103.40625 L 157.703125 131.28125 C 156.933594 132.050781 155.871094 132.496094 154.769531 132.496094 Z M 154.769531 132.496094 " fill-opacity="1" fill-rule="evenodd"/><g clip-path="url(#8937d5f1d4)"><path fill="#ffffff" d="M 49.023438 259.597656 C 27.535156 259.597656 10.058594 242.117188 10.058594 220.628906 C 10.058594 199.144531 27.535156 181.675781 49.023438 181.675781 C 70.511719 181.675781 87.988281 199.144531 87.988281 220.628906 C 87.988281 242.117188 70.511719 259.597656 49.023438 259.597656 Z M 49.023438 189.980469 C 32.128906 189.980469 18.375 203.734375 18.375 220.628906 C 18.375 237.527344 32.128906 251.28125 49.023438 251.28125 C 65.917969 251.28125 79.671875 237.527344 79.671875 220.628906 C 79.671875 203.734375 65.917969 189.980469 49.023438 189.980469 Z M 49.023438 189.980469 " fill-opacity="1" fill-rule="evenodd"/></g><g clip-path="url(#f439ba6e3f)"><path fill="#ffffff" d="M 325.96875 259.597656 C 304.484375 259.597656 287.003906 242.117188 287.003906 220.628906 C 287.003906 199.144531 304.484375 181.675781 325.96875 181.675781 C 347.457031 181.675781 364.9375 199.144531 364.9375 220.628906 C 364.9375 242.117188 347.457031 259.597656 325.96875 259.597656 Z M 325.96875 189.980469 C 309.074219 189.980469 295.320312 203.734375 295.320312 220.628906 C 295.320312 237.527344 309.074219 251.28125 325.96875 251.28125 C 342.863281 251.28125 356.617188 237.527344 356.617188 220.628906 C 356.617188 203.734375 342.863281 189.980469 325.96875 189.980469 Z M 325.96875 189.980469 " fill-opacity="1" fill-rule="evenodd"/></g></svg>