<svg xmlns="http://www.w3.org/2000/svg" xmlns:xlink="http://www.w3.org/1999/xlink" width="500" zoomAndPan="magnify" viewBox="0 0 375 374.999991" height="500" preserveAspectRatio="xMidYMid meet" version="1.0"><defs><clipPath id="86a11aeec2"><path d="M 0 8.296875 L 373.5 8.296875 L 373.5 375 L 0 375 Z M 0 8.296875 " clip-rule="nonzero"/></clipPath></defs><g clip-path="url(#86a11aeec2)"><path fill="#ffffff" d="M 186.894531 38.808594 C 273.125 38.808594 343.277344 108.964844 343.277344 195.191406 C 343.277344 281.421875 273.125 351.574219 186.894531 351.574219 C 100.667969 351.574219 30.515625 281.421875 30.515625 195.191406 C 30.515625 108.964844 100.667969 38.808594 186.894531 38.808594 Z M 186.894531 382.089844 C 290.117188 382.089844 373.792969 298.414062 373.792969 195.191406 C 373.792969 91.972656 290.117188 8.296875 186.894531 8.296875 C 83.675781 8.296875 0 91.972656 0 195.191406 C 0 298.414062 83.675781 382.089844 186.894531 382.089844 " fill-opacity="1" fill-rule="nonzero"/></g><path fill="#ffffff" d="M 183.835938 248.308594 C 172.15625 248.308594 160.480469 243.855469 145.464844 232.734375 L 124.886719 264.988281 C 138.789062 277.507812 158.53125 284.179688 174.382812 286.125 L 174.382812 313.933594 L 205.527344 313.933594 L 205.527344 284.457031 C 234.722656 277.507812 248.90625 256.371094 248.90625 229.398438 C 248.90625 178.789062 177.164062 177.675781 177.164062 156.539062 C 177.164062 145.417969 183.003906 142.078125 194.960938 142.078125 C 205.25 142.078125 213.871094 146.527344 223.882812 155.429688 L 247.519531 128.175781 C 236.394531 116.496094 223.046875 107.601562 205.527344 104.816406 L 205.527344 76.457031 L 174.382812 76.457031 L 174.382812 105.375 C 147.410156 111.214844 131.558594 130.679688 131.558594 158.765625 C 131.558594 207.429688 203.300781 210.484375 203.300781 232.734375 C 203.300781 243.578125 197.742188 248.308594 183.835938 248.308594 " fill-opacity="1" fill-rule="nonzero"/></svg>