<svg xmlns="http://www.w3.org/2000/svg" xmlns:xlink="http://www.w3.org/1999/xlink" width="500" zoomAndPan="magnify" viewBox="0 0 375 374.999991" height="500" preserveAspectRatio="xMidYMid meet" version="1.0"><defs><clipPath id="44c7e67078"><path d="M 14.296875 356 L 360.796875 356 L 360.796875 375 L 14.296875 375 Z M 14.296875 356 " clip-rule="nonzero"/></clipPath><clipPath id="56cc31804f"><path d="M 16 0 L 360.796875 0 L 360.796875 101 L 16 101 Z M 16 0 " clip-rule="nonzero"/></clipPath></defs><path fill="#ffffff" d="M 345.6875 109.070312 L 34.554688 109.070312 L 34.554688 127.40625 L 345.6875 127.40625 L 345.6875 109.070312 " fill-opacity="1" fill-rule="nonzero"/><path fill="#ffffff" d="M 34.554688 345.960938 L 345.6875 345.960938 L 345.6875 327.625 L 34.554688 327.625 L 34.554688 345.960938 " fill-opacity="1" fill-rule="nonzero"/><g clip-path="url(#44c7e67078)"><path fill="#ffffff" d="M 14.792969 375 L 360.195312 375 L 360.195312 356.664062 L 14.792969 356.664062 L 14.792969 375 " fill-opacity="1" fill-rule="nonzero"/></g><path fill="#ffffff" d="M 34.554688 144.984375 L 34.554688 317.691406 L 72.871094 317.691406 L 72.871094 144.984375 L 34.554688 144.984375 " fill-opacity="1" fill-rule="nonzero"/><path fill="#ffffff" d="M 125.484375 145.75 L 125.484375 318.449219 L 163.8125 318.449219 L 163.8125 145.75 L 125.484375 145.75 " fill-opacity="1" fill-rule="nonzero"/><path fill="#ffffff" d="M 214.890625 145.75 L 214.890625 318.449219 L 253.21875 318.449219 L 253.21875 145.75 L 214.890625 145.75 " fill-opacity="1" fill-rule="nonzero"/><path fill="#ffffff" d="M 307.359375 145.75 L 307.359375 318.449219 L 345.6875 318.449219 L 345.6875 145.75 L 307.359375 145.75 " fill-opacity="1" fill-rule="nonzero"/><g clip-path="url(#56cc31804f)"><path fill="#ffffff" d="M 188.207031 78.609375 C 176.394531 78.609375 166.8125 69.027344 166.8125 57.207031 C 166.8125 45.394531 176.394531 35.8125 188.207031 35.8125 C 200.019531 35.8125 209.601562 45.394531 209.601562 57.207031 C 209.601562 69.027344 200.019531 78.609375 188.207031 78.609375 Z M 188.207031 0 L 16.207031 100.667969 L 360.195312 100.667969 Z M 188.207031 0 " fill-opacity="1" fill-rule="nonzero"/></g></svg>