<svg xmlns="http://www.w3.org/2000/svg" xmlns:xlink="http://www.w3.org/1999/xlink" width="500" zoomAndPan="magnify" viewBox="0 0 375 374.999991" height="500" preserveAspectRatio="xMidYMid meet" version="1.0"><defs><clipPath id="7d63d0e74d"><path d="M 8.117188 112 L 366.617188 112 L 366.617188 375 L 8.117188 375 Z M 8.117188 112 " clip-rule="nonzero"/></clipPath><clipPath id="a0fa30e8f5"><path d="M 181 22.511719 L 194 22.511719 L 194 47 L 181 47 Z M 181 22.511719 " clip-rule="nonzero"/></clipPath></defs><g clip-path="url(#7d63d0e74d)"><path fill="#ffffff" d="M 20.210938 363.050781 L 20.210938 351.101562 L 354.777344 351.101562 L 354.777344 363.050781 Z M 20.210938 159.921875 L 38.136719 159.921875 L 38.136719 307.296875 C 38.136719 310.609375 40.820312 313.269531 44.109375 313.269531 C 99.746094 313.269531 141.402344 328.324219 164.25 339.152344 L 20.210938 339.152344 Z M 330.878906 313.269531 C 334.171875 313.269531 336.855469 310.609375 336.855469 307.296875 L 336.855469 159.921875 L 354.777344 159.921875 L 354.777344 339.152344 L 210.667969 339.152344 C 233.46875 328.324219 275.058594 313.269531 330.878906 313.269531 Z M 360.75 147.972656 L 336.855469 147.972656 L 336.855469 118.101562 C 336.855469 114.808594 334.171875 112.125 330.878906 112.125 C 314.425781 112.125 298.042969 113.386719 282.152344 115.882812 L 284.019531 127.691406 C 297.367188 125.589844 311.089844 124.402344 324.90625 124.144531 L 324.90625 301.390625 C 258.253906 302.605469 212.257812 323.914062 193.46875 334.460938 L 193.46875 315.253906 L 181.519531 315.253906 L 181.519531 334.460938 C 162.734375 323.914062 116.734375 302.605469 50.085938 301.390625 L 50.085938 124.144531 C 63.898438 124.402344 77.621094 125.589844 90.972656 127.691406 L 92.839844 115.90625 C 76.96875 113.386719 60.5625 112.125 44.109375 112.125 C 40.820312 112.125 38.136719 114.808594 38.136719 118.101562 L 38.136719 147.972656 L 14.238281 147.972656 C 10.949219 147.972656 8.261719 150.65625 8.261719 153.945312 L 8.261719 369.023438 C 8.261719 372.316406 10.949219 375 14.238281 375 L 360.75 375 C 364.042969 375 366.726562 372.316406 366.726562 369.023438 L 366.726562 153.945312 C 366.726562 150.65625 364.042969 147.972656 360.75 147.972656 " fill-opacity="1" fill-rule="nonzero"/></g><path fill="#ffffff" d="M 187.496094 199.269531 L 160.097656 171.871094 L 169.570312 162.394531 L 183.269531 176.09375 C 185.605469 178.425781 189.386719 178.425781 191.71875 176.09375 L 205.417969 162.394531 L 214.894531 171.871094 Z M 239.28125 90.070312 C 255.734375 104.820312 265.160156 125.917969 265.160156 147.972656 C 265.160156 176.46875 249.550781 202.628906 224.390625 216.234375 C 216.386719 220.574219 211.390625 228.71875 211.390625 237.496094 L 193.46875 237.519531 L 193.46875 210.191406 L 227.566406 176.09375 C 229.898438 173.761719 229.898438 169.980469 227.566406 167.644531 L 209.640625 149.722656 C 207.308594 147.390625 203.527344 147.390625 201.195312 149.722656 L 187.496094 163.421875 L 173.796875 149.722656 C 171.460938 147.390625 167.679688 147.390625 165.347656 149.722656 L 147.425781 167.644531 C 145.089844 169.980469 145.089844 173.761719 147.425781 176.09375 L 181.519531 210.191406 L 181.519531 237.542969 L 163.597656 237.589844 L 163.597656 237.496094 C 163.597656 228.71875 158.601562 220.574219 150.574219 216.234375 C 121.917969 200.714844 106.210938 169.699219 110.550781 137.214844 C 115.195312 102.582031 143.808594 74.667969 178.578125 70.796875 C 201.03125 68.296875 222.59375 75.160156 239.28125 90.070312 Z M 163.597656 291.355469 L 163.597656 273.433594 L 211.390625 273.433594 L 211.390625 291.355469 Z M 211.390625 249.535156 L 211.390625 261.484375 L 163.597656 261.484375 L 163.597656 249.535156 Z M 98.71875 135.625 C 93.679688 173.058594 111.8125 208.835938 144.902344 226.734375 C 149.058594 228.976562 151.648438 233.105469 151.648438 237.496094 L 151.648438 297.332031 C 151.648438 300.621094 154.332031 303.304688 157.621094 303.304688 L 217.367188 303.304688 C 220.65625 303.304688 223.339844 300.621094 223.339844 297.332031 L 223.339844 237.496094 C 223.339844 233.105469 225.929688 228.976562 230.085938 226.734375 C 259.09375 211.054688 277.109375 180.855469 277.109375 147.972656 C 277.109375 122.511719 266.210938 98.171875 247.238281 81.179688 C 228.007812 63.957031 203.199219 56.070312 177.25 58.917969 C 137.109375 63.375 104.0625 95.625 98.71875 135.625 " fill-opacity="1" fill-rule="nonzero"/><g clip-path="url(#a0fa30e8f5)"><path fill="#ffffff" d="M 193.46875 22.511719 L 181.519531 22.511719 L 181.519531 46.40625 L 193.46875 46.40625 L 193.46875 22.511719 " fill-opacity="1" fill-rule="nonzero"/></g><path fill="#ffffff" d="M 278.859375 54.132812 L 260.9375 72.054688 L 269.386719 80.503906 L 287.308594 62.582031 L 278.859375 54.132812 " fill-opacity="1" fill-rule="nonzero"/><path fill="#ffffff" d="M 87.679688 62.582031 L 105.605469 80.503906 L 114.050781 72.054688 L 96.128906 54.132812 L 87.679688 62.582031 " fill-opacity="1" fill-rule="nonzero"/><path fill="#ffffff" d="M 312.957031 159.921875 L 289.058594 159.921875 L 289.058594 147.972656 L 312.957031 147.972656 L 312.957031 159.921875 " fill-opacity="1" fill-rule="nonzero"/><path fill="#ffffff" d="M 85.929688 159.945312 L 62.03125 159.921875 L 62.03125 147.972656 L 85.929688 147.996094 L 85.929688 159.945312 " fill-opacity="1" fill-rule="nonzero"/></svg>