<svg xmlns="http://www.w3.org/2000/svg" xmlns:xlink="http://www.w3.org/1999/xlink" width="500" zoomAndPan="magnify" viewBox="0 0 375 374.999991" height="500" preserveAspectRatio="xMidYMid meet" version="1.0"><path fill="#60b7ff" d="M 128.636719 399.683594 C 122.023438 399.683594 117.105469 397.683594 112.621094 394.398438 C 106.046875 389.578125 102.789062 386.546875 98.699219 380.449219 C 95.15625 375.167969 92.921875 370.390625 90.761719 359.203125 C 88.03125 345.042969 90.761719 275.699219 90.761719 275.699219 C 89.199219 246.613281 117.398438 231.515625 137.996094 225.859375 C 154.695312 221.273438 172.828125 219.625 189.578125 219.625 C 206.011719 219.625 222.796875 220.96875 238.488281 225.859375 C 260.277344 232.652344 284.84375 248.171875 284.84375 275.699219 C 284.84375 275.699219 286.257812 346.523438 284.84375 361.492188 C 283.71875 373.398438 279.644531 379.996094 277.949219 382.296875 C 276.027344 384.910156 270.328125 390.882812 265.425781 393.667969 C 260.328125 396.566406 253.972656 399.683594 247.359375 399.683594 Z M 128.636719 399.683594 " fill-opacity="1" fill-rule="evenodd"/><path fill="#41a8fc" d="M 237.25 399.683594 L 237.25 286.238281 C 237.25 281.53125 241.074219 277.707031 245.785156 277.707031 C 250.496094 277.707031 254.320312 281.53125 254.320312 286.238281 L 254.320312 398.636719 C 252.0625 399.285156 249.726562 399.683594 247.359375 399.683594 Z M 122.164062 398.957031 L 122.164062 286.238281 C 122.164062 281.53125 125.988281 277.707031 130.699219 277.707031 C 135.410156 277.707031 139.234375 281.53125 139.234375 286.238281 L 139.234375 399.683594 L 128.636719 399.683594 C 126.285156 399.683594 124.144531 399.433594 122.164062 398.957031 Z M 122.164062 398.957031 " fill-opacity="1" fill-rule="evenodd"/><path fill="#f6dccd" d="M 188.242188 210.464844 C 211.773438 210.464844 230.878906 186.722656 230.878906 149.683594 C 230.878906 112.648438 212.671875 106.175781 189.140625 106.175781 C 165.609375 106.175781 145.605469 112.648438 145.605469 149.683594 C 145.605469 186.722656 164.710938 210.464844 188.242188 210.464844 Z M 188.242188 210.464844 " fill-opacity="1" fill-rule="evenodd"/><path fill="#f1cbbc" d="M 180.242188 209.519531 C 199.953125 204.769531 214.878906 182.417969 214.878906 149.683594 C 214.878906 116.953125 200.65625 108.089844 181.105469 106.472656 C 183.71875 106.261719 186.40625 106.175781 189.140625 106.175781 C 212.671875 106.175781 230.878906 112.648438 230.878906 149.683594 C 230.878906 186.722656 211.773438 210.464844 188.242188 210.464844 C 185.507812 210.464844 182.832031 210.144531 180.242188 209.519531 Z M 180.242188 209.519531 " fill-opacity="1" fill-rule="evenodd"/><path fill="#ffe177" d="M 46.082031 35.242188 L 55.988281 61.285156 C 56.265625 62.078125 56.972656 62.570312 57.808594 62.613281 L 85.664062 63.980469 C 87.546875 64.066406 88.339844 66.460938 86.863281 67.636719 L 65.125 85.109375 C 64.460938 85.621094 64.203125 86.433594 64.417969 87.246094 L 71.734375 114.144531 C 72.226562 115.964844 70.195312 117.4375 68.613281 116.414062 L 45.289062 101.144531 C 44.582031 100.675781 43.726562 100.675781 43.023438 101.144531 L 19.679688 116.414062 C 18.097656 117.4375 16.0625 115.964844 16.578125 114.144531 L 23.894531 87.246094 C 24.109375 86.433594 23.828125 85.621094 23.1875 85.109375 L 1.449219 67.636719 C -0.0273438 66.460938 0.742188 64.066406 2.648438 63.980469 L 30.503906 62.613281 C 31.339844 62.570312 32.023438 62.078125 32.324219 61.285156 L 42.230469 35.242188 C 42.894531 33.46875 45.417969 33.46875 46.082031 35.242188 Z M 46.082031 35.242188 " fill-opacity="1" fill-rule="evenodd"/><path fill="#ffd064" d="M 76.847656 63.554688 L 85.664062 63.980469 C 87.546875 64.066406 88.339844 66.460938 86.863281 67.636719 L 65.125 85.109375 C 64.460938 85.621094 64.203125 86.433594 64.417969 87.246094 L 71.734375 114.144531 C 72.226562 115.964844 70.195312 117.4375 68.613281 116.414062 L 62.578125 112.457031 L 55.601562 86.820312 C 55.390625 86.007812 55.644531 85.195312 56.308594 84.679688 L 78.046875 67.210938 C 79.523438 66.035156 78.753906 63.640625 76.847656 63.554688 Z M 46.082031 35.242188 L 55.988281 61.285156 C 56.265625 62.078125 56.949219 62.570312 57.785156 62.613281 L 48.992188 62.183594 C 48.15625 62.144531 47.449219 61.652344 47.171875 60.859375 L 39.835938 41.550781 L 42.230469 35.242188 C 42.894531 33.46875 45.417969 33.46875 46.082031 35.242188 Z M 45.289062 101.144531 C 44.582031 100.675781 43.726562 100.675781 43.023438 101.144531 L 19.679688 116.414062 C 18.097656 117.4375 16.0625 115.964844 16.578125 114.144531 L 17.195312 111.835938 L 38.292969 98.042969 C 38.976562 97.59375 39.835938 97.59375 40.539062 98.042969 Z M 45.289062 101.144531 " fill-opacity="1" fill-rule="evenodd"/><path fill="#ffe177" d="M 189.414062 1.78125 L 199.320312 27.824219 C 199.601562 28.617188 200.304688 29.109375 201.140625 29.152344 L 229 30.519531 C 230.882812 30.605469 231.671875 33 230.195312 34.175781 L 208.457031 51.644531 C 207.792969 52.160156 207.539062 52.972656 207.753906 53.785156 L 215.070312 80.683594 C 215.5625 82.5 213.53125 83.976562 211.945312 82.949219 L 188.625 67.683594 C 187.917969 67.210938 187.0625 67.210938 186.355469 67.683594 L 163.011719 82.949219 C 161.429688 83.976562 159.398438 82.5 159.910156 80.683594 L 167.226562 53.785156 C 167.441406 52.972656 167.164062 52.160156 166.519531 51.644531 L 144.78125 34.175781 C 143.308594 33 144.078125 30.605469 145.980469 30.519531 L 173.839844 29.152344 C 174.671875 29.109375 175.359375 28.617188 175.65625 27.824219 L 185.5625 1.78125 C 186.226562 0.0078125 188.753906 0.0078125 189.414062 1.78125 Z M 189.414062 1.78125 " fill-opacity="1" fill-rule="evenodd"/><path fill="#ffd064" d="M 220.183594 30.09375 L 229 30.519531 C 230.882812 30.605469 231.671875 33 230.195312 34.175781 L 208.457031 51.644531 C 207.792969 52.160156 207.539062 52.972656 207.753906 53.785156 L 215.070312 80.683594 C 215.5625 82.5 213.53125 83.976562 211.945312 82.949219 L 205.910156 78.996094 L 198.9375 53.355469 C 198.722656 52.542969 198.980469 51.730469 199.644531 51.21875 L 221.382812 33.75 C 222.859375 32.570312 222.085938 30.175781 220.183594 30.09375 Z M 189.414062 1.78125 L 199.320312 27.824219 C 199.601562 28.617188 200.285156 29.109375 201.121094 29.152344 L 192.324219 28.722656 C 191.492188 28.679688 190.785156 28.1875 190.507812 27.398438 L 183.167969 8.089844 L 185.5625 1.78125 C 186.226562 0.0078125 188.753906 0.0078125 189.414062 1.78125 Z M 188.625 67.683594 C 187.917969 67.210938 187.0625 67.210938 186.355469 67.683594 L 163.011719 82.949219 C 161.429688 83.976562 159.398438 82.5 159.910156 80.683594 L 160.53125 78.375 L 181.628906 64.582031 C 182.3125 64.132812 183.167969 64.132812 183.875 64.582031 Z M 188.625 67.683594 " fill-opacity="1" fill-rule="evenodd"/><path fill="#ffe177" d="M 332.722656 35.222656 L 342.628906 61.269531 C 342.910156 62.058594 343.613281 62.550781 344.449219 62.59375 L 372.308594 63.960938 C 374.1875 64.046875 374.980469 66.441406 373.503906 67.617188 L 351.765625 85.089844 C 351.101562 85.601562 350.847656 86.414062 351.058594 87.226562 L 358.378906 114.128906 C 358.871094 115.945312 356.835938 117.421875 355.253906 116.394531 L 331.933594 101.125 C 331.226562 100.65625 330.371094 100.65625 329.664062 101.125 L 306.320312 116.394531 C 304.738281 117.421875 302.707031 115.945312 303.21875 114.128906 L 310.535156 87.226562 C 310.75 86.414062 310.472656 85.601562 309.832031 85.089844 L 288.089844 67.617188 C 286.617188 66.441406 287.386719 64.046875 289.289062 63.960938 L 317.148438 62.59375 C 317.980469 62.550781 318.667969 62.058594 318.964844 61.269531 L 328.871094 35.222656 C 329.535156 33.449219 332.058594 33.449219 332.722656 35.222656 Z M 332.722656 35.222656 " fill-opacity="1" fill-rule="evenodd"/><path fill="#ffd064" d="M 363.492188 63.535156 L 372.308594 63.960938 C 374.1875 64.046875 374.980469 66.441406 373.503906 67.617188 L 351.765625 85.089844 C 351.101562 85.601562 350.847656 86.414062 351.058594 87.226562 L 358.378906 114.128906 C 358.871094 115.945312 356.835938 117.421875 355.253906 116.394531 L 349.21875 112.4375 L 342.246094 86.800781 C 342.03125 85.988281 342.289062 85.175781 342.949219 84.660156 L 364.691406 67.191406 C 366.164062 66.015625 365.394531 63.621094 363.492188 63.535156 Z M 332.722656 35.222656 L 342.628906 61.269531 C 342.910156 62.058594 343.59375 62.550781 344.425781 62.59375 L 335.632812 62.164062 C 334.800781 62.125 334.09375 61.632812 333.816406 60.839844 L 326.476562 41.53125 L 328.871094 35.222656 C 329.535156 33.449219 332.058594 33.449219 332.722656 35.222656 Z M 331.933594 101.125 C 331.226562 100.65625 330.371094 100.65625 329.664062 101.125 L 306.320312 116.394531 C 304.738281 117.421875 302.707031 115.945312 303.21875 114.128906 L 303.839844 111.816406 L 324.9375 98.023438 C 325.621094 97.574219 326.476562 97.574219 327.183594 98.023438 Z M 331.933594 101.125 " fill-opacity="1" fill-rule="evenodd"/></svg>