<svg xmlns="http://www.w3.org/2000/svg" xmlns:xlink="http://www.w3.org/1999/xlink" width="500" zoomAndPan="magnify" viewBox="0 0 315 262.499992" height="480" preserveAspectRatio="xMidYMid meet" version="1.0"><defs><clipPath id="2d358e10de"><path d="M 0.300781 247 L 32 247 L 32 262 L 0.300781 262 Z M 0.300781 247 " clip-rule="nonzero"/></clipPath><clipPath id="0f1f874ce9"><path d="M 31 247 L 63 247 L 63 262 L 31 262 Z M 31 247 " clip-rule="nonzero"/></clipPath><clipPath id="cfb5111d2e"><path d="M 63 247 L 95 247 L 95 262 L 63 262 Z M 63 247 " clip-rule="nonzero"/></clipPath><clipPath id="4860ea9425"><path d="M 94 247 L 126 247 L 126 262 L 94 262 Z M 94 247 " clip-rule="nonzero"/></clipPath><clipPath id="72d46dedf4"><path d="M 94 258 L 100 258 L 100 262 L 94 262 Z M 94 258 " clip-rule="nonzero"/></clipPath><clipPath id="b7005da230"><path d="M 89 256 L 96 256 L 96 262 L 89 262 Z M 89 256 " clip-rule="nonzero"/></clipPath><clipPath id="0c28ddb40e"><path d="M 126 247 L 158 247 L 158 262 L 126 262 Z M 126 247 " clip-rule="nonzero"/></clipPath><clipPath id="f652f6a3df"><path d="M 157 247 L 189 247 L 189 262 L 157 262 Z M 157 247 " clip-rule="nonzero"/></clipPath><clipPath id="3dadc1e0c7"><path d="M 189 247 L 221 247 L 221 262 L 189 262 Z M 189 247 " clip-rule="nonzero"/></clipPath><clipPath id="000e01ef6a"><path d="M 220 247 L 252 247 L 252 262 L 220 262 Z M 220 247 " clip-rule="nonzero"/></clipPath><clipPath id="a39bf72fee"><path d="M 252 247 L 284 247 L 284 262 L 252 262 Z M 252 247 " clip-rule="nonzero"/></clipPath><clipPath id="020d6b36ce"><path d="M 283 247 L 314.699219 247 L 314.699219 262 L 283 262 Z M 283 247 " clip-rule="nonzero"/></clipPath></defs><path fill="#ff8f7d" d="M 269.835938 113.988281 C 269.835938 176.949219 218.824219 227.992188 155.894531 227.992188 C 92.964844 227.992188 41.949219 176.949219 41.949219 113.988281 C 41.949219 51.027344 92.964844 -0.015625 155.894531 -0.015625 C 218.824219 -0.015625 269.835938 51.027344 269.835938 113.988281 " fill-opacity="1" fill-rule="nonzero"/><path fill="#3d4353" d="M 150.359375 149.984375 L 137.960938 149.984375 L 145.828125 122.0625 C 147.378906 116.195312 148.691406 110.324219 149.882812 104.59375 L 150.121094 104.59375 C 150.199219 104.96875 150.28125 105.339844 150.359375 105.714844 L 150.359375 93.570312 L 144.039062 93.570312 L 116.746094 190.078125 L 127.476562 190.078125 L 135.816406 159.722656 L 150.359375 159.722656 L 150.359375 149.984375 " fill-opacity="1" fill-rule="nonzero"/><path fill="#252c3e" d="M 150.359375 149.984375 L 162.753906 149.984375 L 154.886719 122.0625 C 153.335938 116.195312 152.027344 110.324219 150.835938 104.59375 L 150.597656 104.59375 C 150.519531 104.96875 150.4375 105.339844 150.359375 105.714844 L 150.359375 93.570312 L 156.675781 93.570312 L 183.96875 190.078125 L 173.242188 190.078125 L 164.898438 159.722656 L 150.359375 159.722656 L 150.359375 149.984375 " fill-opacity="1" fill-rule="nonzero"/><path fill="#f5f5f5" d="M 216.050781 140.167969 L 81.984375 140.167969 L 81.984375 28.914062 L 216.050781 28.914062 L 216.050781 140.167969 " fill-opacity="1" fill-rule="nonzero"/><path fill="#252c3e" d="M 225.511719 28.914062 L 72.519531 28.914062 L 72.519531 22.601562 L 225.511719 22.601562 L 225.511719 28.914062 " fill-opacity="1" fill-rule="nonzero"/><path fill="#c6a081" d="M 243.203125 126.746094 C 243.203125 129.824219 241.035156 132.320312 238.363281 132.320312 L 235.355469 132.320312 C 232.679688 132.320312 230.511719 129.824219 230.511719 126.746094 L 230.511719 96.539062 C 230.511719 93.460938 232.679688 90.964844 235.355469 90.964844 L 238.363281 90.964844 C 241.035156 90.964844 243.203125 93.460938 243.203125 96.539062 L 243.203125 126.746094 " fill-opacity="1" fill-rule="nonzero"/><path fill="#dbba9a" d="M 236.855469 90.964844 L 235.355469 90.964844 C 232.679688 90.964844 230.511719 93.460938 230.511719 96.539062 L 230.511719 126.746094 C 230.511719 129.824219 232.679688 132.320312 235.355469 132.320312 L 236.855469 132.320312 L 236.855469 90.964844 " fill-opacity="1" fill-rule="nonzero"/><path fill="#ebcdab" d="M 257.355469 82.175781 C 257.355469 97.984375 248.289062 110.796875 237.109375 110.796875 C 225.925781 110.796875 216.859375 97.984375 216.859375 82.175781 C 216.859375 66.371094 225.925781 53.558594 237.109375 53.558594 C 248.289062 53.558594 257.355469 66.371094 257.355469 82.175781 " fill-opacity="1" fill-rule="nonzero"/><path fill="#dbba9a" d="M 257.46875 82.175781 C 257.46875 66.371094 248.210938 53.558594 236.792969 53.558594 L 236.792969 110.796875 C 248.210938 110.796875 257.46875 97.984375 257.46875 82.175781 " fill-opacity="1" fill-rule="nonzero"/><path fill="#603e25" d="M 214.511719 68.335938 C 214.511719 68.335938 216.425781 78.390625 215.792969 83.417969 C 215.160156 88.445312 217.8125 90.785156 217.8125 90.785156 C 217.8125 90.785156 217.613281 83.230469 219.191406 77.730469 C 219.980469 74.980469 219.402344 69.8125 221.546875 65.996094 C 223.691406 62.179688 228.539062 60.054688 231.832031 60.09375 C 237.078125 60.160156 236.804688 60.851562 236.804688 60.851562 L 236.804688 45.222656 C 236.804688 45.222656 229.492188 44.953125 219.523438 47.136719 C 209.550781 49.316406 209.863281 56.019531 209.863281 56.019531 C 209.863281 56.019531 212.613281 52.902344 214.511719 54.617188 C 216.40625 56.332031 213.351562 60.191406 214.511719 68.335938 " fill-opacity="1" fill-rule="nonzero"/><path fill="#4c2d18" d="M 259.792969 68.332031 C 259.792969 68.332031 257.945312 78.390625 258.558594 83.414062 C 259.167969 88.441406 256.609375 90.78125 256.609375 90.78125 C 256.609375 90.78125 256.804688 83.230469 255.285156 77.730469 C 254.523438 74.980469 255.078125 69.8125 253.011719 65.996094 C 250.945312 62.179688 246.988281 60.25 243.105469 60.09375 C 236.761719 59.832031 236.800781 60.851562 236.800781 60.851562 L 236.800781 45.222656 C 236.800781 45.222656 245.503906 44.308594 254.074219 49.316406 C 258.800781 52.078125 260.910156 60.1875 259.792969 68.332031 " fill-opacity="1" fill-rule="nonzero"/><path fill="#0d0c12" d="M 257.578125 81.160156 C 257.46875 82.535156 256.988281 87.332031 255.839844 88.183594 C 254.628906 89.082031 251.375 89.425781 249.46875 89.554688 C 247.5625 89.683594 242.792969 89.46875 241.761719 88.507812 C 240.726562 87.542969 239.21875 82.070312 239.671875 80.464844 C 240.128906 78.863281 243.535156 77.667969 247.5625 77.410156 C 251.589844 77.152344 255.050781 77.730469 255.050781 77.730469 C 258.238281 78.242188 257.6875 79.78125 257.578125 81.160156 Z M 231.859375 88.507812 C 230.824219 89.46875 226.054688 89.683594 224.148438 89.554688 C 222.242188 89.425781 218.988281 89.082031 217.777344 88.183594 C 216.628906 87.332031 216.148438 82.535156 216.039062 81.160156 C 215.929688 79.78125 215.378906 78.242188 218.566406 77.730469 C 218.566406 77.730469 222.027344 77.152344 226.054688 77.410156 C 230.082031 77.667969 233.488281 78.863281 233.945312 80.464844 C 234.402344 82.070312 232.890625 87.542969 231.859375 88.507812 Z M 259.484375 76.574219 C 259.484375 76.574219 252.84375 75.804688 247.671875 76.125 C 242.5 76.449219 238.335938 77.667969 237.617188 77.792969 C 237.570312 77.800781 237.527344 77.808594 237.484375 77.816406 L 237.484375 77.792969 C 237.484375 77.792969 237.195312 77.84375 236.808594 77.851562 C 236.421875 77.84375 236.132812 77.792969 236.132812 77.792969 L 236.132812 77.816406 C 236.089844 77.808594 236.046875 77.800781 236 77.792969 C 235.28125 77.667969 231.113281 76.449219 225.945312 76.125 C 220.773438 75.804688 214.132812 76.574219 214.132812 76.574219 C 213.636719 76.628906 214.132812 80.464844 214.132812 80.464844 C 214.132812 80.464844 214.785156 80.550781 214.894531 81.066406 C 215.003906 81.578125 215.441406 87.027344 216.417969 88.507812 C 217.398438 89.984375 221.535156 90.683594 224.640625 90.761719 C 227.742188 90.835938 230.820312 90.789062 232.695312 89.554688 C 234.570312 88.320312 235.632812 82.476562 236 81.449219 C 236.101562 81.167969 236.261719 81.015625 236.4375 80.9375 C 236.542969 80.902344 236.671875 80.875 236.808594 80.871094 C 236.941406 80.875 237.070312 80.902344 237.183594 80.9375 C 237.355469 81.015625 237.515625 81.167969 237.617188 81.449219 C 237.984375 82.476562 239.046875 88.320312 240.921875 89.554688 C 242.796875 90.789062 245.875 90.835938 248.980469 90.761719 C 252.082031 90.683594 256.214844 89.984375 257.199219 88.507812 C 258.179688 87.027344 258.613281 81.578125 258.722656 81.066406 C 258.832031 80.550781 259.484375 80.464844 259.484375 80.464844 C 259.484375 80.464844 259.980469 76.628906 259.484375 76.574219 " fill-opacity="1" fill-rule="nonzero"/><path fill="#0d0c12" d="M 228.597656 82.175781 C 228.597656 83.554688 227.484375 84.667969 226.109375 84.667969 C 224.738281 84.667969 223.625 83.554688 223.625 82.175781 C 223.625 80.804688 224.738281 79.691406 226.109375 79.691406 C 227.484375 79.691406 228.597656 80.804688 228.597656 82.175781 " fill-opacity="1" fill-rule="nonzero"/><path fill="#0d0c12" d="M 250.203125 82.175781 C 250.203125 83.550781 249.089844 84.667969 247.714844 84.667969 C 246.339844 84.667969 245.226562 83.550781 245.226562 82.175781 C 245.226562 80.804688 246.339844 79.691406 247.714844 79.691406 C 249.089844 79.691406 250.203125 80.804688 250.203125 82.175781 " fill-opacity="1" fill-rule="nonzero"/><path fill="#603e25" d="M 236.792969 105.355469 C 236.101562 106.421875 234.898438 107.722656 233.074219 107.921875 C 229.90625 108.269531 229.351562 102.523438 229.351562 102.523438 C 229.351562 102.523438 229.542969 100.257812 232.539062 99.734375 C 235.503906 99.21875 236.765625 99.722656 236.792969 99.734375 L 236.792969 94.945312 C 233.316406 94.101562 230.609375 94.902344 228.699219 96.011719 C 226.457031 97.3125 225.3125 99.039062 225.3125 99.039062 L 217.5625 90.78125 C 217.5625 90.78125 221.082031 106.355469 225.3125 110.796875 C 229.527344 115.222656 236.734375 116.101562 236.792969 116.109375 L 236.792969 105.355469 " fill-opacity="1" fill-rule="nonzero"/><path fill="#4c2d18" d="M 236.792969 105.355469 C 237.5 106.421875 238.730469 107.722656 240.597656 107.921875 C 243.84375 108.269531 244.40625 102.523438 244.40625 102.523438 C 244.40625 102.523438 244.210938 100.257812 241.144531 99.734375 C 238.109375 99.21875 236.820312 99.722656 236.792969 99.734375 L 236.792969 94.945312 C 240.351562 94.101562 243.121094 94.902344 245.078125 96.011719 C 247.371094 97.3125 248.542969 99.039062 248.542969 99.039062 L 256.476562 90.78125 C 256.476562 90.78125 252.875 106.355469 248.542969 110.796875 C 244.230469 115.222656 236.851562 116.101562 236.792969 116.109375 L 236.792969 105.355469 " fill-opacity="1" fill-rule="nonzero"/><path fill="#5d6475" d="M 237.007812 124.554688 L 237.109375 194.359375 L 219.367188 194.359375 L 216.859375 128.269531 L 230.511719 124.554688 L 237.007812 124.554688 " fill-opacity="1" fill-rule="nonzero"/><path fill="#3d4353" d="M 236.613281 124.554688 L 236.511719 194.359375 L 254.253906 194.359375 L 256.757812 128.269531 L 243.105469 124.554688 L 236.613281 124.554688 " fill-opacity="1" fill-rule="nonzero"/><path fill="#dbba9a" d="M 194.441406 145.964844 L 186 131.679688 C 186 131.679688 185.386719 126.101562 184.574219 125.171875 C 183.761719 124.242188 180.164062 124.554688 180.164062 124.554688 C 180.164062 124.554688 174.242188 123.894531 174.476562 125.519531 C 174.707031 127.148438 176.332031 127.167969 176.332031 127.167969 C 176.332031 127.167969 174.824219 127.730469 175.289062 128.890625 C 175.75 130.050781 177.144531 129.238281 177.144531 129.238281 C 177.144531 129.238281 176.101562 129.933594 176.914062 130.980469 C 177.726562 132.027344 178.65625 131.328125 178.65625 131.328125 C 178.65625 131.328125 178.074219 131.339844 178.539062 132.320312 C 179 133.304688 180.164062 133.070312 180.164062 133.070312 L 182.71875 134.234375 L 191.886719 150.84375 L 194.441406 145.964844 " fill-opacity="1" fill-rule="nonzero"/><path fill="#4c2d18" d="M 178.539062 125.289062 L 168.246094 104.316406 L 180.976562 125.289062 Z M 178.539062 125.289062 " fill-opacity="1" fill-rule="nonzero"/><path fill="#63c4ef" d="M 230.511719 121.765625 L 236.855469 124.554688 L 235 134.773438 L 228.597656 127.03125 L 230.511719 121.765625 " fill-opacity="1" fill-rule="nonzero"/><path fill="#50a9c9" d="M 243.355469 121.765625 L 237.007812 124.554688 L 238.863281 134.773438 L 245.265625 127.03125 L 243.355469 121.765625 " fill-opacity="1" fill-rule="nonzero"/><path fill="#f07e66" d="M 236.792969 100.652344 L 232.226562 100.652344 C 232.226562 100.652344 232.914062 101.933594 234.316406 102.652344 C 235.722656 103.367188 236.792969 103.445312 236.792969 103.445312 L 236.792969 100.652344 " fill-opacity="1" fill-rule="nonzero"/><path fill="#db6552" d="M 236.792969 100.652344 L 241.359375 100.652344 C 241.359375 100.652344 240.671875 101.933594 239.265625 102.652344 C 237.859375 103.367188 236.792969 103.445312 236.792969 103.445312 L 236.792969 100.652344 " fill-opacity="1" fill-rule="nonzero"/><path fill="#63c4ef" d="M 216.917969 128.269531 C 216.917969 128.269531 213.53125 125.789062 210.828125 128.269531 C 208.125 130.746094 199.246094 145.382812 196.929688 145.382812 C 194.613281 145.382812 194.613281 145.382812 194.613281 145.382812 L 193.148438 152.0625 C 193.148438 152.0625 197.820312 155.8125 202.585938 153.039062 C 207.351562 150.261719 217.199219 137.242188 217.199219 137.242188 L 216.917969 128.269531 " fill-opacity="1" fill-rule="nonzero"/><path fill="#7fd5f4" d="M 194.074219 144.222656 C 194.074219 144.222656 196.523438 144.433594 196.300781 145.273438 C 196.078125 146.113281 194.742188 152.886719 194.074219 153.125 C 193.402344 153.367188 190.839844 152.714844 190.730469 152.199219 C 190.617188 151.683594 194.074219 144.222656 194.074219 144.222656 " fill-opacity="1" fill-rule="nonzero"/><path fill="#4c2d18" d="M 181.875 132.140625 L 183.800781 132.140625 C 183.800781 132.140625 184.882812 133.601562 183.800781 133.917969 C 182.71875 134.234375 181.875 132.320312 181.875 132.320312 L 181.875 132.140625 " fill-opacity="1" fill-rule="nonzero"/><path fill="#dbba9a" d="M 272.066406 151.859375 C 272.066406 151.859375 280.597656 141.773438 281.300781 139.90625 C 282.199219 137.503906 286.933594 133.214844 287.34375 134.0625 C 287.757812 134.910156 286.109375 137.648438 286.109375 137.648438 C 286.109375 137.648438 294.351562 135.726562 294.351562 136.625 C 294.351562 137.527344 295.671875 140.652344 291.273438 141.921875 C 286.878906 143.191406 284.046875 144.503906 284.046875 144.503906 L 273.226562 159.160156 L 272.066406 151.859375 " fill-opacity="1" fill-rule="nonzero"/><path fill="#50b5d8" d="M 256.714844 128.050781 C 256.714844 128.050781 260.730469 126.839844 262.457031 130.074219 C 264.183594 133.3125 267.699219 150.070312 269.882812 150.839844 C 272.066406 151.609375 272.066406 151.609375 272.066406 151.609375 L 271.226562 158.398438 C 271.226562 158.398438 265.578125 160.378906 262 156.175781 C 260.128906 153.976562 256.15625 144.097656 256.15625 144.097656 L 256.714844 128.050781 " fill-opacity="1" fill-rule="nonzero"/><path fill="#66bfd8" d="M 272.960938 150.695312 C 272.960938 150.695312 270.578125 150.078125 270.511719 150.945312 C 270.441406 151.8125 269.453125 158.640625 270.003906 159.089844 C 270.554688 159.542969 273.191406 159.777344 273.464844 159.328125 C 273.742188 158.882812 272.960938 150.695312 272.960938 150.695312 " fill-opacity="1" fill-rule="nonzero"/><path fill="#dd6652" d="M 258.417969 252.148438 L 258.417969 241.171875 C 258.417969 235.273438 253.753906 230.488281 248.003906 230.488281 L 237.378906 230.488281 L 237.378906 221.878906 C 244.65625 218.769531 249.914062 209.839844 249.914062 199.300781 C 249.914062 186.175781 253.46875 175.535156 231.707031 175.535156 C 231.640625 175.535156 231.574219 175.539062 231.507812 175.539062 C 231.4375 175.539062 231.371094 175.535156 231.304688 175.535156 C 209.546875 175.535156 213.097656 186.175781 213.097656 199.300781 C 213.097656 209.839844 218.355469 218.769531 225.632812 221.878906 L 225.632812 230.488281 L 215.210938 230.488281 C 209.460938 230.488281 204.796875 235.273438 204.796875 241.171875 L 204.796875 252.148438 L 203.625 252.148438 L 203.625 241.171875 C 203.625 235.273438 198.964844 230.488281 193.214844 230.488281 L 182.589844 230.488281 L 182.589844 221.878906 C 189.867188 218.769531 195.125 209.839844 195.125 199.300781 C 195.125 186.175781 198.675781 175.535156 176.917969 175.535156 C 176.847656 175.535156 176.785156 175.539062 176.714844 175.539062 C 176.648438 175.539062 176.582031 175.535156 176.515625 175.535156 C 154.753906 175.535156 158.304688 186.175781 158.304688 199.300781 C 158.304688 209.839844 163.566406 218.769531 170.839844 221.878906 L 170.839844 230.488281 L 160.421875 230.488281 C 154.671875 230.488281 150.007812 235.273438 150.007812 241.171875 L 150.007812 252.148438 L 148.835938 252.148438 L 148.835938 241.171875 C 148.835938 235.273438 144.171875 230.488281 138.421875 230.488281 L 127.800781 230.488281 L 127.800781 221.878906 C 135.074219 218.769531 140.335938 209.839844 140.335938 199.300781 C 140.335938 186.175781 143.882812 175.535156 122.125 175.535156 C 122.058594 175.535156 121.992188 175.539062 121.925781 175.539062 C 121.855469 175.539062 121.792969 175.535156 121.722656 175.535156 C 99.964844 175.535156 103.515625 186.175781 103.515625 199.300781 C 103.515625 209.839844 108.773438 218.769531 116.050781 221.878906 L 116.050781 230.488281 L 105.628906 230.488281 C 99.878906 230.488281 95.214844 235.273438 95.214844 241.171875 L 95.214844 252.148438 L 94.042969 252.148438 L 94.042969 241.171875 C 94.042969 235.273438 89.382812 230.488281 83.628906 230.488281 L 73.007812 230.488281 L 73.007812 221.878906 C 80.285156 218.769531 85.542969 209.839844 85.542969 199.300781 C 85.542969 186.175781 89.09375 175.535156 67.335938 175.535156 C 67.265625 175.535156 67.203125 175.539062 67.132812 175.539062 C 67.066406 175.539062 67 175.535156 66.929688 175.535156 C 45.171875 175.535156 48.722656 186.175781 48.722656 199.300781 C 48.722656 209.839844 53.984375 218.769531 61.261719 221.878906 L 61.261719 230.488281 L 50.839844 230.488281 C 45.085938 230.488281 40.425781 235.273438 40.425781 241.171875 L 40.425781 252.148438 L 34.871094 252.148438 L 34.871094 255.523438 L 267.203125 255.523438 L 267.203125 252.148438 L 258.417969 252.148438 " fill-opacity="1" fill-rule="nonzero"/><path fill="#c6a081" d="M 37.992188 253.339844 C 37.992188 255.019531 35.679688 256.382812 32.832031 256.382812 L 29.628906 256.382812 C 26.777344 256.382812 24.46875 255.019531 24.46875 253.339844 L 24.46875 236.835938 C 24.46875 235.152344 26.777344 233.789062 29.628906 233.789062 L 32.832031 233.789062 C 35.679688 233.789062 37.992188 235.152344 37.992188 236.835938 L 37.992188 253.339844 " fill-opacity="1" fill-rule="nonzero"/><path fill="#dbba9a" d="M 31.226562 233.789062 L 29.628906 233.789062 C 26.777344 233.789062 24.46875 235.152344 24.46875 236.835938 L 24.46875 253.339844 C 24.46875 255.019531 26.777344 256.382812 29.628906 256.382812 L 31.226562 256.382812 L 31.226562 233.789062 " fill-opacity="1" fill-rule="nonzero"/><path fill="#dbba9a" d="M 16.085938 221.164062 C 16.085938 223.542969 14.207031 225.472656 11.886719 225.472656 C 9.566406 225.472656 7.6875 223.542969 7.6875 221.164062 C 7.6875 218.785156 9.566406 216.855469 11.886719 216.855469 C 14.207031 216.855469 16.085938 218.785156 16.085938 221.164062 " fill-opacity="1" fill-rule="nonzero"/><path fill="#c6a081" d="M 55.234375 220.796875 C 55.234375 223.175781 53.355469 225.105469 51.035156 225.105469 C 48.714844 225.105469 46.832031 223.175781 46.832031 220.796875 C 46.832031 218.417969 48.714844 216.488281 51.035156 216.488281 C 53.355469 216.488281 55.234375 218.417969 55.234375 220.796875 " fill-opacity="1" fill-rule="nonzero"/><path fill="#ffa05f" d="M 31.226562 186.871094 C 31.148438 186.871094 29.757812 188.019531 29.683594 188.046875 C 24.46875 189.945312 21.417969 190.480469 18.378906 191.460938 C 7.542969 194.945312 10.035156 204.078125 10.035156 214.796875 C 10.035156 228.519531 19.421875 239.648438 30.996094 239.648438 C 31.074219 239.648438 31.148438 239.644531 31.226562 239.644531 L 31.226562 186.871094 " fill-opacity="1" fill-rule="nonzero"/><path fill="#f29353" d="M 31.226562 186.871094 C 31.308594 186.871094 33.808594 188.015625 33.878906 188.046875 C 37.992188 189.933594 40.070312 190.363281 42.976562 191.136719 C 55.078125 194.355469 52.421875 203.730469 52.421875 214.796875 C 52.421875 228.519531 43.035156 239.648438 31.460938 239.648438 C 31.382812 239.648438 31.308594 239.644531 31.226562 239.644531 L 31.226562 186.871094 " fill-opacity="1" fill-rule="nonzero"/><g clip-path="url(#2d358e10de)"><path fill="#6d7484" d="M 31.460938 247.410156 L 12.46875 247.410156 C 5.847656 247.410156 0.480469 252.414062 0.480469 258.585938 L 0.480469 271.679688 L 31.460938 271.679688 L 31.460938 247.410156 " fill-opacity="1" fill-rule="nonzero"/></g><g clip-path="url(#0f1f874ce9)"><path fill="#5d6475" d="M 31.226562 247.410156 L 50.21875 247.410156 C 56.839844 247.410156 62.207031 252.414062 62.207031 258.585938 L 62.207031 271.679688 L 31.226562 271.679688 L 31.226562 247.410156 " fill-opacity="1" fill-rule="nonzero"/></g><path fill="#c6a081" d="M 101.066406 253.339844 C 101.066406 255.019531 98.757812 256.382812 95.90625 256.382812 L 92.703125 256.382812 C 89.851562 256.382812 87.542969 255.019531 87.542969 253.339844 L 87.542969 236.835938 C 87.542969 235.152344 89.851562 233.789062 92.703125 233.789062 L 95.90625 233.789062 C 98.757812 233.789062 101.066406 235.152344 101.066406 236.835938 L 101.066406 253.339844 " fill-opacity="1" fill-rule="nonzero"/><path fill="#dbba9a" d="M 94.304688 233.789062 L 92.703125 233.789062 C 89.851562 233.789062 87.542969 235.152344 87.542969 236.835938 L 87.542969 253.339844 C 87.542969 255.019531 89.851562 256.382812 92.703125 256.382812 L 94.304688 256.382812 L 94.304688 233.789062 " fill-opacity="1" fill-rule="nonzero"/><g clip-path="url(#cfb5111d2e)"><path fill="#63c4ef" d="M 94.535156 247.410156 L 75.546875 247.410156 C 68.925781 247.410156 63.558594 252.414062 63.558594 258.585938 L 63.558594 271.679688 L 94.535156 271.679688 L 94.535156 247.410156 " fill-opacity="1" fill-rule="nonzero"/></g><g clip-path="url(#4860ea9425)"><path fill="#3b9cb7" d="M 94.304688 247.410156 L 113.296875 247.410156 C 119.917969 247.410156 125.285156 252.414062 125.285156 258.585938 L 125.285156 271.679688 L 94.304688 271.679688 L 94.304688 247.410156 " fill-opacity="1" fill-rule="nonzero"/></g><g clip-path="url(#72d46dedf4)"><path fill="#684533" d="M 97.90625 258.203125 C 97.90625 258.203125 99.207031 259.691406 99.027344 261.285156 C 98.851562 262.878906 96.839844 263.546875 96.308594 264.164062 C 95.777344 264.777344 95.71875 265.035156 95.71875 265.035156 C 95.71875 265.035156 94.460938 264.523438 94.46875 263.238281 C 94.476562 261.953125 95.65625 259.746094 95.65625 259.746094 L 97.90625 258.203125 " fill-opacity="1" fill-rule="nonzero"/></g><path fill="#5b3c2b" d="M 98.566406 253.921875 C 98.566406 253.921875 100.195312 255.789062 99.972656 257.785156 C 99.75 259.78125 97.425781 259.726562 96.757812 260.496094 C 96.089844 261.269531 95.320312 261.878906 95.320312 261.878906 C 95.320312 261.878906 94.246094 261.839844 94.257812 260.230469 C 94.265625 258.621094 95.75 255.851562 95.75 255.851562 L 98.566406 253.921875 " fill-opacity="1" fill-rule="nonzero"/><path fill="#523123" d="M 99.378906 247.03125 C 99.378906 247.03125 101.160156 249.742188 100.34375 252.378906 C 99.527344 255.015625 95.601562 256.753906 95.601562 256.753906 C 95.601562 256.753906 94.417969 256.691406 94.265625 254.695312 C 94.121094 252.699219 95.601562 249.351562 96.710938 248.386719 C 97.824219 247.417969 99.378906 247.03125 99.378906 247.03125 " fill-opacity="1" fill-rule="nonzero"/><path fill="#44261b" d="M 94.535156 189.945312 C 94.457031 189.945312 94.382812 189.949219 94.304688 189.949219 L 94.304688 243.996094 C 94.382812 243.996094 94.175781 246.246094 94.269531 247.03125 C 94.417969 248.257812 95.382812 249.730469 95.605469 250.507812 C 95.828125 251.28125 95.828125 251.605469 95.828125 251.605469 C 95.828125 251.605469 97.085938 249.671875 99.160156 249.15625 C 101.238281 248.640625 103.164062 246.324219 103.3125 243.941406 C 103.355469 243.265625 103.304688 242.425781 103.214844 241.570312 C 110.457031 237.316406 115.496094 227.90625 115.496094 216.972656 C 115.496094 208.09375 114.058594 200.464844 109.792969 195.503906 C 106.886719 192.121094 103.804688 189.753906 94.535156 189.945312 " fill-opacity="1" fill-rule="nonzero"/><g clip-path="url(#b7005da230)"><path fill="#7f5849" d="M 90.15625 256.402344 C 90.15625 256.402344 88.859375 258.289062 89.648438 260.054688 C 90.433594 261.824219 92.652344 262.464844 93.621094 263.226562 C 94.59375 263.992188 94.78125 264.753906 94.78125 264.753906 C 94.78125 264.753906 95.75 261.140625 95.148438 260.578125 C 94.546875 260.015625 93.808594 259.292969 93.347656 258.449219 C 92.882812 257.605469 90.15625 256.238281 90.15625 256.238281 L 90.15625 256.402344 " fill-opacity="1" fill-rule="nonzero"/></g><path fill="#774f3d" d="M 88.964844 250.003906 C 88.964844 250.003906 87.300781 252.433594 88.3125 254.707031 C 89.324219 256.980469 91.566406 257.757812 92.816406 258.738281 C 94.066406 259.722656 95.300781 260.898438 95.300781 260.898438 C 95.300781 260.898438 96.160156 256.101562 95.386719 255.378906 C 94.617188 254.652344 94.074219 253.480469 93.070312 252.640625 C 92.074219 251.804688 88.964844 249.796875 88.964844 249.796875 L 88.964844 250.003906 " fill-opacity="1" fill-rule="nonzero"/><path fill="#684532" d="M 87.898438 242.847656 C 87.898438 242.847656 85.824219 245.875 87.082031 248.707031 C 88.34375 251.539062 91.898438 252.570312 93.453125 253.792969 C 95.011719 255.015625 95.640625 256.351562 95.640625 256.351562 C 95.640625 256.351562 96.863281 250.445312 95.902344 249.542969 C 94.9375 248.640625 93.75 247.484375 93.011719 246.132812 C 92.269531 244.777344 87.898438 242.589844 87.898438 242.589844 L 87.898438 242.847656 " fill-opacity="1" fill-rule="nonzero"/><path fill="#56392c" d="M 95.828125 244.777344 C 95.546875 244.046875 95.003906 243.441406 94.304688 242.882812 L 94.304688 189.949219 C 94.226562 189.949219 94.152344 189.945312 94.070312 189.945312 C 85.941406 189.945312 82.597656 192.265625 79.546875 195.179688 C 74.464844 200.039062 73.113281 207.640625 73.113281 216.972656 C 73.113281 227.6875 77.949219 236.9375 84.960938 241.308594 C 85.371094 243.488281 86.535156 244.820312 89.308594 245.9375 C 92.34375 247.164062 96.214844 250.058594 96.214844 250.058594 C 96.214844 250.058594 96.492188 246.515625 95.828125 244.777344 " fill-opacity="1" fill-rule="nonzero"/><path fill="#c6a081" d="M 164.140625 253.339844 C 164.140625 255.019531 161.832031 256.382812 158.980469 256.382812 L 155.78125 256.382812 C 152.929688 256.382812 150.621094 255.019531 150.621094 253.339844 L 150.621094 236.835938 C 150.621094 235.152344 152.929688 233.789062 155.78125 233.789062 L 158.980469 233.789062 C 161.832031 233.789062 164.140625 235.152344 164.140625 236.835938 L 164.140625 253.339844 " fill-opacity="1" fill-rule="nonzero"/><path fill="#dbba9a" d="M 157.382812 233.789062 L 155.78125 233.789062 C 152.929688 233.789062 150.621094 235.152344 150.621094 236.835938 L 150.621094 253.339844 C 150.621094 255.019531 152.929688 256.382812 155.78125 256.382812 L 157.382812 256.382812 L 157.382812 233.789062 " fill-opacity="1" fill-rule="nonzero"/><path fill="#dbba9a" d="M 142.007812 219.65625 C 142.007812 222.035156 140.125 223.964844 137.804688 223.964844 C 135.484375 223.964844 133.605469 222.035156 133.605469 219.65625 C 133.605469 217.277344 135.484375 215.347656 137.804688 215.347656 C 140.125 215.347656 142.007812 217.277344 142.007812 219.65625 " fill-opacity="1" fill-rule="nonzero"/><path fill="#c6a081" d="M 181.15625 219.289062 C 181.15625 221.667969 179.273438 223.597656 176.957031 223.597656 C 174.636719 223.597656 172.753906 221.667969 172.753906 219.289062 C 172.753906 216.910156 174.636719 214.980469 176.957031 214.980469 C 179.273438 214.980469 181.15625 216.910156 181.15625 219.289062 " fill-opacity="1" fill-rule="nonzero"/><path fill="#2d2927" d="M 157.382812 188.046875 C 157.460938 188.046875 157.304688 188.046875 157.382812 188.046875 C 182.429688 188.046875 178.574219 201.070312 178.574219 214.796875 C 178.574219 228.523438 169.1875 239.648438 157.613281 239.648438 C 157.535156 239.648438 157.457031 239.644531 157.382812 239.644531 L 157.382812 188.046875 " fill-opacity="1" fill-rule="nonzero"/><g clip-path="url(#0c28ddb40e)"><path fill="#3d4353" d="M 157.613281 247.410156 L 138.621094 247.410156 C 132 247.410156 126.632812 252.414062 126.632812 258.585938 L 126.632812 271.679688 L 157.613281 271.679688 L 157.613281 247.410156 " fill-opacity="1" fill-rule="nonzero"/></g><g clip-path="url(#f652f6a3df)"><path fill="#303644" d="M 157.382812 247.410156 L 176.371094 247.410156 C 182.992188 247.410156 188.359375 252.414062 188.359375 258.585938 L 188.359375 271.679688 L 157.382812 271.679688 L 157.382812 247.410156 " fill-opacity="1" fill-rule="nonzero"/></g><path fill="#44403e" d="M 153.210938 187.457031 C 150.859375 187.53125 147.035156 187.828125 143.503906 188.484375 C 139.972656 189.140625 137.105469 186.871094 137.105469 186.871094 C 137.105469 186.871094 137.328125 189.078125 139.015625 190.84375 C 139.480469 191.328125 140.023438 191.738281 140.574219 192.078125 C 134.511719 196.984375 136.1875 205.738281 136.1875 214.796875 C 136.1875 228.523438 145.570312 239.648438 157.148438 239.648438 C 157.226562 239.648438 157.304688 239.644531 157.382812 239.644531 L 157.382812 188.046875 C 157.382812 188.046875 155.566406 187.386719 153.210938 187.457031 " fill-opacity="1" fill-rule="nonzero"/><path fill="#c6a081" d="M 227.21875 253.339844 C 227.21875 255.019531 224.910156 256.382812 222.058594 256.382812 L 218.855469 256.382812 C 216.003906 256.382812 213.695312 255.019531 213.695312 253.339844 L 213.695312 236.835938 C 213.695312 235.152344 216.003906 233.789062 218.855469 233.789062 L 222.058594 233.789062 C 224.910156 233.789062 227.21875 235.152344 227.21875 236.835938 L 227.21875 253.339844 " fill-opacity="1" fill-rule="nonzero"/><path fill="#dbba9a" d="M 220.457031 233.789062 L 218.855469 233.789062 C 216.003906 233.789062 213.695312 235.152344 213.695312 236.835938 L 213.695312 253.339844 C 213.695312 255.019531 216.003906 256.382812 218.855469 256.382812 L 220.457031 256.382812 L 220.457031 233.789062 " fill-opacity="1" fill-rule="nonzero"/><path fill="#dbba9a" d="M 205.316406 219.839844 C 205.316406 222.21875 203.433594 224.144531 201.113281 224.144531 C 198.792969 224.144531 196.914062 222.21875 196.914062 219.839844 C 196.914062 217.460938 198.792969 215.53125 201.113281 215.53125 C 203.433594 215.53125 205.316406 217.460938 205.316406 219.839844 " fill-opacity="1" fill-rule="nonzero"/><path fill="#c6a081" d="M 244.464844 219.472656 C 244.464844 221.851562 242.582031 223.78125 240.261719 223.78125 C 237.941406 223.78125 236.0625 221.851562 236.0625 219.472656 C 236.0625 217.09375 237.941406 215.164062 240.261719 215.164062 C 242.582031 215.164062 244.464844 217.09375 244.464844 219.472656 " fill-opacity="1" fill-rule="nonzero"/><path fill="#725144" d="M 220.457031 189.949219 C 220.378906 189.949219 220.300781 189.945312 220.226562 189.945312 C 195.175781 189.945312 199.261719 201.070312 199.261719 214.796875 C 199.261719 228.523438 208.648438 239.648438 220.226562 239.648438 C 220.300781 239.648438 220.378906 239.644531 220.457031 239.644531 L 220.457031 189.949219 " fill-opacity="1" fill-rule="nonzero"/><path fill="#56392c" d="M 220.457031 189.949219 C 220.535156 189.949219 220.609375 189.945312 220.6875 189.945312 C 245.738281 189.945312 241.648438 201.070312 241.648438 214.796875 C 241.648438 228.523438 232.265625 239.648438 220.6875 239.648438 C 220.609375 239.648438 220.535156 239.644531 220.457031 239.644531 L 220.457031 189.949219 " fill-opacity="1" fill-rule="nonzero"/><g clip-path="url(#3dadc1e0c7)"><path fill="#f5f5f5" d="M 220.6875 247.410156 L 201.699219 247.410156 C 195.078125 247.410156 189.710938 252.414062 189.710938 258.585938 L 189.710938 271.679688 L 220.6875 271.679688 L 220.6875 247.410156 " fill-opacity="1" fill-rule="nonzero"/></g><g clip-path="url(#000e01ef6a)"><path fill="#c1c1c1" d="M 220.457031 247.410156 L 239.449219 247.410156 C 246.066406 247.410156 251.433594 252.414062 251.433594 258.585938 L 251.433594 271.679688 L 220.457031 271.679688 L 220.457031 247.410156 " fill-opacity="1" fill-rule="nonzero"/></g><path fill="#c6a081" d="M 290.292969 253.339844 C 290.292969 255.019531 287.984375 256.382812 285.132812 256.382812 L 281.929688 256.382812 C 279.082031 256.382812 276.769531 255.019531 276.769531 253.339844 L 276.769531 236.835938 C 276.769531 235.152344 279.082031 233.789062 281.929688 233.789062 L 285.132812 233.789062 C 287.984375 233.789062 290.292969 235.152344 290.292969 236.835938 L 290.292969 253.339844 " fill-opacity="1" fill-rule="nonzero"/><path fill="#dbba9a" d="M 283.53125 233.789062 L 281.929688 233.789062 C 279.078125 233.789062 276.769531 235.152344 276.769531 236.835938 L 276.769531 253.339844 C 276.769531 255.019531 279.078125 256.382812 281.929688 256.382812 L 283.53125 256.382812 L 283.53125 233.789062 " fill-opacity="1" fill-rule="nonzero"/><path fill="#dbba9a" d="M 268.160156 217.933594 C 268.160156 220.3125 266.277344 222.242188 263.957031 222.242188 C 261.636719 222.242188 259.757812 220.3125 259.757812 217.933594 C 259.757812 215.554688 261.636719 213.625 263.957031 213.625 C 266.277344 213.625 268.160156 215.554688 268.160156 217.933594 " fill-opacity="1" fill-rule="nonzero"/><path fill="#c6a081" d="M 307.308594 217.566406 C 307.308594 219.945312 305.425781 221.875 303.105469 221.875 C 300.785156 221.875 298.90625 219.945312 298.90625 217.566406 C 298.90625 215.1875 300.785156 213.257812 303.105469 213.257812 C 305.425781 213.257812 307.308594 215.1875 307.308594 217.566406 " fill-opacity="1" fill-rule="nonzero"/><path fill="#472919" d="M 283.53125 189.949219 C 283.453125 189.949219 283.378906 189.945312 283.300781 189.945312 C 258.25 189.945312 262.339844 201.070312 262.339844 214.796875 C 262.339844 228.523438 271.722656 239.648438 283.300781 239.648438 C 283.378906 239.648438 283.453125 239.644531 283.53125 239.644531 L 283.53125 189.949219 " fill-opacity="1" fill-rule="nonzero"/><path fill="#351e0f" d="M 283.53125 189.949219 C 283.609375 189.949219 283.683594 189.945312 283.761719 189.945312 C 308.8125 189.945312 304.726562 201.070312 304.726562 214.796875 C 304.726562 228.523438 295.339844 239.648438 283.761719 239.648438 C 283.6875 239.648438 283.609375 239.644531 283.53125 239.644531 L 283.53125 189.949219 " fill-opacity="1" fill-rule="nonzero"/><g clip-path="url(#a39bf72fee)"><path fill="#ffa05f" d="M 283.761719 247.410156 L 264.773438 247.410156 C 258.152344 247.410156 252.785156 252.414062 252.785156 258.585938 L 252.785156 271.679688 L 283.761719 271.679688 L 283.761719 247.410156 " fill-opacity="1" fill-rule="nonzero"/></g><g clip-path="url(#020d6b36ce)"><path fill="#f99048" d="M 283.53125 247.410156 L 302.523438 247.410156 C 309.140625 247.410156 314.511719 252.414062 314.511719 258.585938 L 314.511719 271.679688 L 283.53125 271.679688 L 283.53125 247.410156 " fill-opacity="1" fill-rule="nonzero"/></g><path fill="#ffc07b" d="M 151.84375 59.992188 L 151.84375 104.414062 L 146.28125 104.414062 C 146.28125 104.414062 147.019531 90.820312 141.84375 87.578125 C 136.664062 84.332031 131.496094 75.003906 136.667969 66.886719 C 141.84375 58.777344 151.84375 59.992188 151.84375 59.992188 " fill-opacity="1" fill-rule="nonzero"/><path fill="#ffa05f" d="M 151.84375 59.992188 L 151.84375 104.414062 L 157.402344 104.414062 C 157.402344 104.414062 156.664062 90.820312 161.839844 87.578125 C 167.019531 84.332031 172.1875 75.003906 167.015625 66.886719 C 161.839844 58.777344 151.84375 59.992188 151.84375 59.992188 " fill-opacity="1" fill-rule="nonzero"/><path fill="#c5d7d9" d="M 159.527344 109.9375 C 159.527344 110.402344 159.113281 110.777344 158.601562 110.777344 L 145.082031 110.777344 C 144.570312 110.777344 144.160156 110.402344 144.160156 109.9375 L 144.160156 100.441406 C 144.160156 99.976562 144.570312 99.601562 145.082031 99.601562 L 158.601562 99.601562 C 159.113281 99.601562 159.527344 99.976562 159.527344 100.441406 L 159.527344 109.9375 " fill-opacity="1" fill-rule="nonzero"/><path fill="#b5c8c9" d="M 158.601562 99.601562 L 151.84375 99.601562 L 151.84375 110.777344 L 158.601562 110.777344 C 159.113281 110.777344 159.527344 110.402344 159.527344 109.9375 L 159.527344 100.441406 C 159.527344 99.976562 159.113281 99.601562 158.601562 99.601562 " fill-opacity="1" fill-rule="nonzero"/><path fill="#ffc07b" d="M 131.644531 87.082031 L 122.351562 89.734375 C 121.863281 89.878906 121.609375 90.453125 121.785156 91.027344 C 121.960938 91.601562 122.5 91.949219 122.988281 91.8125 L 132.28125 89.15625 C 132.769531 89.015625 133.023438 88.4375 132.851562 87.863281 C 132.671875 87.292969 132.132812 86.941406 131.644531 87.082031 " fill-opacity="1" fill-rule="nonzero"/><path fill="#ffc07b" d="M 129.339844 75.589844 C 129.375 74.996094 128.992188 74.488281 128.480469 74.457031 L 118.808594 73.898438 C 118.296875 73.871094 117.855469 74.328125 117.816406 74.925781 C 117.78125 75.519531 118.164062 76.027344 118.675781 76.058594 L 128.347656 76.617188 C 128.855469 76.644531 129.300781 76.1875 129.339844 75.589844 " fill-opacity="1" fill-rule="nonzero"/><path fill="#ffc07b" d="M 130.285156 62.121094 C 130.675781 62.441406 131.316406 62.328125 131.714844 61.875 C 132.117188 61.417969 132.125 60.792969 131.734375 60.472656 L 124.347656 54.425781 C 123.960938 54.105469 123.316406 54.214844 122.917969 54.671875 C 122.515625 55.125 122.507812 55.753906 122.898438 56.074219 L 130.285156 62.121094 " fill-opacity="1" fill-rule="nonzero"/><path fill="#ffc07b" d="M 143.621094 53.824219 L 141.039062 44.8125 C 140.902344 44.335938 140.308594 44.082031 139.710938 44.242188 C 139.113281 44.398438 138.742188 44.914062 138.878906 45.390625 L 141.457031 54.398438 C 141.59375 54.875 142.1875 55.128906 142.785156 54.972656 C 143.382812 54.808594 143.757812 54.296875 143.621094 53.824219 " fill-opacity="1" fill-rule="nonzero"/><path fill="#ffa05f" d="M 170.429688 87.082031 L 179.71875 89.734375 C 180.210938 89.878906 180.464844 90.453125 180.289062 91.027344 C 180.113281 91.601562 179.570312 91.949219 179.082031 91.8125 L 169.792969 89.15625 C 169.300781 89.015625 169.046875 88.4375 169.222656 87.863281 C 169.398438 87.292969 169.9375 86.941406 170.429688 87.082031 " fill-opacity="1" fill-rule="nonzero"/><path fill="#ffa05f" d="M 172.734375 75.589844 C 172.695312 74.996094 173.078125 74.488281 173.589844 74.457031 L 183.261719 73.898438 C 183.773438 73.871094 184.214844 74.328125 184.253906 74.925781 C 184.289062 75.519531 183.90625 76.027344 183.398438 76.058594 L 173.722656 76.617188 C 173.214844 76.644531 172.769531 76.1875 172.734375 75.589844 " fill-opacity="1" fill-rule="nonzero"/><path fill="#ffa05f" d="M 171.789062 62.121094 C 171.398438 62.441406 170.753906 62.328125 170.355469 61.875 C 169.953125 61.417969 169.945312 60.792969 170.335938 60.472656 L 177.722656 54.425781 C 178.113281 54.105469 178.753906 54.214844 179.152344 54.671875 C 179.554688 55.125 179.5625 55.753906 179.175781 56.074219 L 171.789062 62.121094 " fill-opacity="1" fill-rule="nonzero"/><path fill="#ffa05f" d="M 158.453125 53.824219 L 161.03125 44.8125 C 161.167969 44.335938 161.761719 44.082031 162.359375 44.242188 C 162.957031 44.398438 163.328125 44.914062 163.195312 45.390625 L 160.613281 54.398438 C 160.476562 54.875 159.882812 55.128906 159.285156 54.972656 C 158.691406 54.808594 158.316406 54.296875 158.453125 53.824219 " fill-opacity="1" fill-rule="nonzero"/></svg>