<svg xmlns="http://www.w3.org/2000/svg" xmlns:xlink="http://www.w3.org/1999/xlink" width="500" zoomAndPan="magnify" viewBox="0 0 375 374.999991" height="500" preserveAspectRatio="xMidYMid meet" version="1.0"><path fill="#fbc02d" d="M 212.738281 14.40625 C 221.449219 24.132812 235.03125 27.867188 247.496094 23.972656 L 248.882812 23.542969 C 267.484375 17.730469 287.074219 29.046875 291.34375 48.066406 L 291.527344 48.886719 C 294.351562 61.46875 304.175781 71.292969 316.753906 74.113281 L 317.71875 74.332031 C 336.675781 78.582031 347.996094 98.089844 342.273438 116.65625 L 341.773438 118.269531 C 337.957031 130.667969 341.675781 144.152344 351.316406 152.832031 L 351.457031 152.953125 C 366.148438 166.191406 366.148438 189.226562 351.457031 202.464844 L 351.316406 202.589844 C 341.683594 211.273438 337.964844 224.753906 341.773438 237.152344 L 342.273438 238.761719 C 347.996094 257.332031 336.675781 276.835938 317.71875 281.089844 L 316.753906 281.304688 C 304.175781 284.128906 294.351562 293.953125 291.527344 306.53125 L 291.34375 307.355469 C 287.082031 326.371094 267.484375 337.683594 248.882812 331.878906 L 247.496094 331.445312 C 235.042969 327.550781 221.457031 331.296875 212.738281 341.011719 C 199.492188 355.792969 176.339844 355.792969 163.101562 341.011719 C 154.390625 331.289062 140.804688 327.550781 128.339844 331.445312 L 126.953125 331.878906 C 108.351562 337.691406 88.761719 326.371094 84.496094 307.355469 L 84.3125 306.53125 C 81.488281 293.953125 71.664062 284.128906 59.082031 281.304688 L 58.128906 281.097656 C 39.171875 276.84375 27.851562 257.339844 33.574219 238.769531 L 34.070312 237.160156 C 37.890625 224.761719 34.171875 211.273438 24.53125 202.597656 L 24.390625 202.472656 C 9.699219 189.234375 9.699219 166.199219 24.390625 152.964844 L 24.53125 152.839844 C 34.164062 144.152344 37.882812 130.675781 34.070312 118.277344 L 33.574219 116.664062 C 27.851562 98.097656 39.171875 78.589844 58.128906 74.339844 L 59.09375 74.125 C 71.671875 71.300781 81.496094 61.476562 84.320312 48.894531 L 84.503906 48.074219 C 88.761719 29.054688 108.359375 17.746094 126.960938 23.550781 L 128.347656 23.984375 C 140.804688 27.878906 154.390625 24.132812 163.109375 14.417969 C 176.339844 -0.375 199.492188 -0.375 212.738281 14.40625 Z M 212.738281 14.40625 " fill-opacity="1" fill-rule="nonzero"/><path fill="#ffd600" d="M 320.78125 177.710938 C 320.78125 179.882812 320.730469 182.058594 320.621094 184.230469 C 320.515625 186.402344 320.355469 188.570312 320.140625 190.734375 C 319.929688 192.898438 319.664062 195.054688 319.34375 197.207031 C 319.023438 199.355469 318.652344 201.5 318.230469 203.632812 C 317.804688 205.761719 317.328125 207.882812 316.800781 209.992188 C 316.273438 212.101562 315.691406 214.199219 315.0625 216.277344 C 314.429688 218.359375 313.746094 220.425781 313.015625 222.472656 C 312.28125 224.519531 311.5 226.546875 310.667969 228.554688 C 309.835938 230.566406 308.957031 232.550781 308.027344 234.519531 C 307.097656 236.484375 306.117188 238.425781 305.09375 240.34375 C 304.070312 242.261719 302.996094 244.152344 301.878906 246.015625 C 300.761719 247.882812 299.597656 249.71875 298.390625 251.527344 C 297.183594 253.335938 295.929688 255.113281 294.636719 256.859375 C 293.339844 258.605469 292.003906 260.320312 290.621094 262 C 289.242188 263.679688 287.824219 265.328125 286.363281 266.9375 C 284.902344 268.550781 283.402344 270.125 281.867188 271.660156 C 280.328125 273.199219 278.753906 274.699219 277.144531 276.15625 C 275.53125 277.617188 273.886719 279.039062 272.207031 280.417969 C 270.523438 281.796875 268.808594 283.132812 267.0625 284.429688 C 265.316406 285.726562 263.539062 286.976562 261.730469 288.183594 C 259.925781 289.394531 258.085938 290.554688 256.222656 291.671875 C 254.355469 292.792969 252.464844 293.863281 250.546875 294.886719 C 248.628906 295.914062 246.6875 296.890625 244.722656 297.820312 C 242.757812 298.75 240.769531 299.628906 238.761719 300.464844 C 236.753906 301.296875 234.722656 302.078125 232.675781 302.808594 C 230.628906 303.542969 228.566406 304.222656 226.484375 304.855469 C 224.402344 305.488281 222.308594 306.066406 220.199219 306.59375 C 218.089844 307.125 215.96875 307.601562 213.835938 308.023438 C 211.703125 308.449219 209.5625 308.820312 207.410156 309.140625 C 205.261719 309.457031 203.101562 309.722656 200.9375 309.9375 C 198.773438 310.148438 196.605469 310.308594 194.433594 310.417969 C 192.261719 310.523438 190.089844 310.578125 187.914062 310.578125 C 185.742188 310.578125 183.566406 310.523438 181.394531 310.417969 C 179.222656 310.308594 177.054688 310.148438 174.890625 309.9375 C 172.726562 309.722656 170.570312 309.457031 168.417969 309.140625 C 166.269531 308.820312 164.125 308.449219 161.992188 308.023438 C 159.863281 307.601562 157.742188 307.125 155.632812 306.59375 C 153.523438 306.066406 151.425781 305.488281 149.347656 304.855469 C 147.265625 304.222656 145.199219 303.542969 143.152344 302.808594 C 141.105469 302.078125 139.078125 301.296875 137.070312 300.464844 C 135.058594 299.628906 133.074219 298.75 131.105469 297.820312 C 129.140625 296.890625 127.199219 295.914062 125.28125 294.886719 C 123.363281 293.863281 121.472656 292.792969 119.609375 291.671875 C 117.742188 290.554688 115.90625 289.394531 114.097656 288.183594 C 112.289062 286.976562 110.511719 285.726562 108.765625 284.429688 C 107.019531 283.132812 105.304688 281.796875 103.625 280.417969 C 101.945312 279.039062 100.296875 277.617188 98.6875 276.15625 C 97.074219 274.699219 95.5 273.199219 93.964844 271.660156 C 92.425781 270.125 90.925781 268.550781 89.46875 266.9375 C 88.007812 265.328125 86.585938 263.679688 85.207031 262 C 83.828125 260.320312 82.492188 258.605469 81.195312 256.859375 C 79.898438 255.113281 78.648438 253.335938 77.441406 251.527344 C 76.230469 249.71875 75.070312 247.882812 73.953125 246.015625 C 72.832031 244.152344 71.761719 242.261719 70.738281 240.34375 C 69.710938 238.425781 68.734375 236.484375 67.804688 234.519531 C 66.875 232.550781 65.992188 230.566406 65.160156 228.554688 C 64.328125 226.546875 63.546875 224.519531 62.816406 222.472656 C 62.082031 220.425781 61.402344 218.359375 60.769531 216.277344 C 60.136719 214.199219 59.558594 212.101562 59.03125 209.992188 C 58.5 207.882812 58.023438 205.761719 57.601562 203.628906 C 57.175781 201.5 56.804688 199.355469 56.484375 197.207031 C 56.167969 195.054688 55.902344 192.898438 55.6875 190.734375 C 55.476562 188.570312 55.316406 186.402344 55.207031 184.230469 C 55.101562 182.058594 55.046875 179.882812 55.046875 177.710938 C 55.046875 175.535156 55.101562 173.363281 55.207031 171.191406 C 55.316406 169.019531 55.476562 166.851562 55.6875 164.6875 C 55.902344 162.523438 56.167969 160.363281 56.484375 158.214844 C 56.804688 156.0625 57.175781 153.921875 57.601562 151.789062 C 58.023438 149.65625 58.5 147.535156 59.03125 145.425781 C 59.558594 143.316406 60.136719 141.222656 60.769531 139.140625 C 61.402344 137.058594 62.082031 134.996094 62.816406 132.949219 C 63.546875 130.902344 64.328125 128.871094 65.160156 126.863281 C 65.992188 124.855469 66.875 122.867188 67.804688 120.902344 C 68.734375 118.9375 69.710938 116.996094 70.738281 115.078125 C 71.761719 113.160156 72.832031 111.265625 73.953125 109.402344 C 75.070312 107.539062 76.230469 105.699219 77.441406 103.894531 C 78.648438 102.085938 79.898438 100.308594 81.195312 98.5625 C 82.492188 96.8125 83.828125 95.101562 85.207031 93.417969 C 86.585938 91.738281 88.007812 90.09375 89.46875 88.480469 C 90.925781 86.871094 92.425781 85.296875 93.964844 83.757812 C 95.5 82.222656 97.074219 80.722656 98.6875 79.261719 C 100.296875 77.800781 101.945312 76.382812 103.625 75.003906 C 105.304688 73.621094 107.019531 72.285156 108.765625 70.988281 C 110.511719 69.695312 112.289062 68.441406 114.097656 67.234375 C 115.90625 66.027344 117.742188 64.863281 119.609375 63.746094 C 121.472656 62.628906 123.363281 61.554688 125.28125 60.53125 C 127.199219 59.507812 129.140625 58.527344 131.105469 57.597656 C 133.074219 56.667969 135.058594 55.789062 137.070312 54.957031 C 139.078125 54.125 141.105469 53.34375 143.152344 52.609375 C 145.199219 51.878906 147.265625 51.195312 149.347656 50.5625 C 151.425781 49.933594 153.523438 49.351562 155.632812 48.824219 C 157.742188 48.296875 159.863281 47.820312 161.992188 47.394531 C 164.125 46.972656 166.269531 46.601562 168.417969 46.28125 C 170.570312 45.960938 172.726562 45.695312 174.890625 45.484375 C 177.054688 45.269531 179.222656 45.109375 181.394531 45.003906 C 183.566406 44.894531 185.742188 44.84375 187.914062 44.84375 C 190.089844 44.84375 192.261719 44.894531 194.433594 45.003906 C 196.605469 45.109375 198.773438 45.269531 200.9375 45.484375 C 203.101562 45.695312 205.261719 45.960938 207.410156 46.28125 C 209.5625 46.601562 211.703125 46.972656 213.835938 47.394531 C 215.96875 47.820312 218.089844 48.296875 220.199219 48.824219 C 222.308594 49.351562 224.402344 49.933594 226.484375 50.5625 C 228.566406 51.195312 230.628906 51.878906 232.675781 52.609375 C 234.722656 53.34375 236.753906 54.125 238.761719 54.957031 C 240.769531 55.789062 242.757812 56.667969 244.722656 57.597656 C 246.6875 58.527344 248.628906 59.507812 250.546875 60.53125 C 252.464844 61.554688 254.355469 62.628906 256.222656 63.746094 C 258.085938 64.863281 259.925781 66.027344 261.730469 67.234375 C 263.539062 68.441406 265.316406 69.695312 267.0625 70.988281 C 268.808594 72.285156 270.523438 73.621094 272.207031 75.003906 C 273.886719 76.382812 275.53125 77.800781 277.144531 79.261719 C 278.753906 80.722656 280.328125 82.222656 281.867188 83.757812 C 283.402344 85.296875 284.902344 86.871094 286.363281 88.480469 C 287.824219 90.09375 289.242188 91.738281 290.621094 93.417969 C 292.003906 95.101562 293.339844 96.8125 294.636719 98.5625 C 295.929688 100.308594 297.183594 102.085938 298.390625 103.894531 C 299.597656 105.699219 300.761719 107.539062 301.878906 109.402344 C 302.996094 111.265625 304.070312 113.160156 305.09375 115.078125 C 306.117188 116.996094 307.097656 118.9375 308.027344 120.902344 C 308.957031 122.867188 309.835938 124.855469 310.667969 126.863281 C 311.5 128.871094 312.28125 130.902344 313.015625 132.949219 C 313.746094 134.996094 314.429688 137.058594 315.0625 139.140625 C 315.691406 141.222656 316.273438 143.316406 316.800781 145.425781 C 317.328125 147.535156 317.804688 149.65625 318.230469 151.789062 C 318.652344 153.921875 319.023438 156.0625 319.34375 158.214844 C 319.664062 160.363281 319.929688 162.523438 320.140625 164.6875 C 320.355469 166.851562 320.515625 169.019531 320.621094 171.191406 C 320.730469 173.363281 320.78125 175.535156 320.78125 177.710938 Z M 320.78125 177.710938 " fill-opacity="1" fill-rule="nonzero"/><path fill="#ffffff" d="M 146.84375 183.464844 L 121.480469 183.464844 L 121.480469 205.378906 L 151.609375 205.378906 L 151.609375 219.230469 L 104.789062 219.230469 L 104.789062 136.578125 L 151.492188 136.578125 L 151.492188 150.488281 L 121.480469 150.488281 L 121.480469 170.019531 L 146.84375 170.019531 Z M 146.84375 183.464844 " fill-opacity="1" fill-rule="nonzero"/><path fill="#ffffff" d="M 185.074219 136.578125 L 200.6875 196.351562 L 216.242188 136.578125 L 238.039062 136.578125 L 238.039062 219.230469 L 221.296875 219.230469 L 221.296875 196.867188 L 222.835938 162.414062 L 206.308594 219.230469 L 194.957031 219.230469 L 178.441406 162.40625 L 179.976562 196.859375 L 179.976562 219.230469 L 163.285156 219.230469 L 163.285156 136.578125 Z M 185.074219 136.578125 " fill-opacity="1" fill-rule="nonzero"/><path fill="#ffffff" d="M 254.347656 136.578125 L 270.957031 136.578125 L 270.957031 219.230469 L 254.347656 219.230469 Z M 254.347656 136.578125 " fill-opacity="1" fill-rule="nonzero"/></svg>