<svg xmlns="http://www.w3.org/2000/svg" xmlns:xlink="http://www.w3.org/1999/xlink" width="500" zoomAndPan="magnify" viewBox="0 0 375 374.999991" height="500" preserveAspectRatio="xMidYMid meet" version="1.0"><defs><clipPath id="e02c8782cc"><path d="M 167 56.25 L 216 56.25 L 216 105 L 167 105 Z M 167 56.25 " clip-rule="nonzero"/></clipPath></defs><path fill="#fca2a2" d="M 227.03125 108.078125 L 253.742188 158.179688 C 258.089844 166.339844 255.4375 176.46875 247.648438 181.449219 L 224.382812 196.324219 L 219.519531 235.207031 L 195.824219 235.207031 L 199.472656 191.519531 L 218.855469 166.210938 L 212.265625 146.054688 L 203.734375 163.886719 L 180.492188 181.332031 L 167.679688 161.558594 L 190.167969 145.277344 L 202.960938 112.324219 L 216.886719 104.96875 C 220.546875 103.035156 225.082031 104.425781 227.03125 108.078125 Z M 227.03125 108.078125 " fill-opacity="1" fill-rule="nonzero"/><path fill="#fca2a2" d="M 251.808594 235.207031 L 272.742188 235.207031 L 250.855469 178.824219 L 233.871094 190.253906 Z M 251.808594 235.207031 " fill-opacity="1" fill-rule="nonzero"/><path fill="#fca2a2" d="M 211.753906 80.324219 C 211.753906 80.984375 211.722656 81.640625 211.65625 82.296875 C 211.59375 82.953125 211.496094 83.601562 211.367188 84.25 C 211.238281 84.894531 211.078125 85.53125 210.886719 86.164062 C 210.695312 86.792969 210.476562 87.414062 210.222656 88.019531 C 209.972656 88.628906 209.691406 89.226562 209.378906 89.804688 C 209.070312 90.386719 208.730469 90.949219 208.363281 91.5 C 208 92.046875 207.605469 92.574219 207.1875 93.085938 C 206.769531 93.59375 206.328125 94.082031 205.863281 94.546875 C 205.398438 95.011719 204.910156 95.453125 204.398438 95.871094 C 203.890625 96.289062 203.363281 96.683594 202.816406 97.046875 C 202.265625 97.414062 201.703125 97.753906 201.121094 98.0625 C 200.539062 98.375 199.945312 98.65625 199.335938 98.90625 C 198.730469 99.160156 198.109375 99.378906 197.480469 99.570312 C 196.847656 99.761719 196.210938 99.921875 195.5625 100.050781 C 194.917969 100.179688 194.265625 100.277344 193.613281 100.339844 C 192.957031 100.40625 192.296875 100.4375 191.640625 100.4375 C 190.980469 100.4375 190.324219 100.40625 189.667969 100.339844 C 189.011719 100.277344 188.363281 100.179688 187.714844 100.050781 C 187.070312 99.921875 186.433594 99.761719 185.800781 99.570312 C 185.171875 99.378906 184.550781 99.160156 183.941406 98.90625 C 183.335938 98.65625 182.738281 98.375 182.160156 98.0625 C 181.578125 97.753906 181.011719 97.414062 180.464844 97.046875 C 179.917969 96.683594 179.390625 96.289062 178.878906 95.871094 C 178.371094 95.453125 177.882812 95.011719 177.417969 94.546875 C 176.953125 94.082031 176.507812 93.59375 176.089844 93.085938 C 175.671875 92.574219 175.28125 92.046875 174.914062 91.5 C 174.550781 90.949219 174.210938 90.386719 173.902344 89.804688 C 173.589844 89.226562 173.308594 88.628906 173.058594 88.019531 C 172.804688 87.414062 172.582031 86.792969 172.390625 86.164062 C 172.199219 85.53125 172.042969 84.894531 171.914062 84.25 C 171.785156 83.601562 171.6875 82.953125 171.621094 82.296875 C 171.558594 81.640625 171.527344 80.984375 171.527344 80.324219 C 171.527344 79.664062 171.558594 79.007812 171.621094 78.351562 C 171.6875 77.695312 171.785156 77.046875 171.914062 76.398438 C 172.042969 75.753906 172.199219 75.117188 172.390625 74.484375 C 172.582031 73.855469 172.804688 73.234375 173.058594 72.625 C 173.308594 72.019531 173.589844 71.421875 173.902344 70.84375 C 174.210938 70.261719 174.550781 69.695312 174.914062 69.148438 C 175.28125 68.601562 175.671875 68.074219 176.089844 67.5625 C 176.507812 67.054688 176.953125 66.566406 177.417969 66.101562 C 177.882812 65.636719 178.371094 65.195312 178.878906 64.777344 C 179.390625 64.359375 179.917969 63.964844 180.464844 63.601562 C 181.011719 63.234375 181.578125 62.894531 182.160156 62.585938 C 182.738281 62.273438 183.335938 61.992188 183.941406 61.742188 C 184.550781 61.488281 185.171875 61.265625 185.800781 61.078125 C 186.433594 60.886719 187.070312 60.726562 187.714844 60.597656 C 188.363281 60.46875 189.011719 60.371094 189.667969 60.308594 C 190.324219 60.242188 190.980469 60.210938 191.640625 60.210938 C 192.296875 60.210938 192.957031 60.242188 193.613281 60.308594 C 194.265625 60.371094 194.917969 60.46875 195.5625 60.597656 C 196.210938 60.726562 196.847656 60.886719 197.480469 61.078125 C 198.109375 61.265625 198.730469 61.488281 199.335938 61.742188 C 199.945312 61.992188 200.539062 62.273438 201.121094 62.585938 C 201.703125 62.894531 202.265625 63.234375 202.816406 63.601562 C 203.363281 63.964844 203.890625 64.359375 204.398438 64.777344 C 204.910156 65.195312 205.398438 65.636719 205.863281 66.101562 C 206.328125 66.566406 206.769531 67.054688 207.1875 67.5625 C 207.605469 68.074219 208 68.601562 208.363281 69.148438 C 208.730469 69.695312 209.070312 70.261719 209.378906 70.84375 C 209.691406 71.421875 209.972656 72.019531 210.222656 72.625 C 210.476562 73.234375 210.695312 73.855469 210.886719 74.484375 C 211.078125 75.117188 211.238281 75.753906 211.367188 76.398438 C 211.496094 77.046875 211.59375 77.695312 211.65625 78.351562 C 211.722656 79.007812 211.753906 79.664062 211.753906 80.324219 Z M 211.753906 80.324219 " fill-opacity="1" fill-rule="nonzero"/><path fill="#fca2a2" d="M 134.929688 155.722656 C 134.929688 156.382812 134.898438 157.039062 134.832031 157.695312 C 134.769531 158.351562 134.671875 159 134.542969 159.648438 C 134.414062 160.292969 134.253906 160.933594 134.0625 161.5625 C 133.875 162.191406 133.652344 162.8125 133.398438 163.421875 C 133.148438 164.03125 132.867188 164.625 132.554688 165.207031 C 132.246094 165.785156 131.90625 166.351562 131.539062 166.898438 C 131.175781 167.445312 130.78125 167.972656 130.363281 168.484375 C 129.945312 168.992188 129.503906 169.480469 129.039062 169.945312 C 128.574219 170.410156 128.085938 170.855469 127.578125 171.273438 C 127.066406 171.691406 126.539062 172.082031 125.992188 172.449219 C 125.445312 172.8125 124.878906 173.152344 124.296875 173.460938 C 123.71875 173.773438 123.121094 174.054688 122.515625 174.304688 C 121.90625 174.558594 121.285156 174.78125 120.65625 174.972656 C 120.023438 175.164062 119.386719 175.324219 118.742188 175.449219 C 118.09375 175.578125 117.445312 175.675781 116.789062 175.742188 C 116.132812 175.804688 115.476562 175.835938 114.816406 175.835938 C 114.15625 175.835938 113.5 175.804688 112.84375 175.742188 C 112.1875 175.675781 111.539062 175.578125 110.890625 175.449219 C 110.246094 175.324219 109.609375 175.164062 108.976562 174.972656 C 108.347656 174.78125 107.726562 174.558594 107.117188 174.304688 C 106.511719 174.054688 105.914062 173.773438 105.335938 173.460938 C 104.753906 173.152344 104.1875 172.8125 103.640625 172.449219 C 103.09375 172.082031 102.566406 171.691406 102.054688 171.273438 C 101.546875 170.855469 101.058594 170.410156 100.59375 169.945312 C 100.128906 169.480469 99.6875 168.992188 99.269531 168.484375 C 98.851562 167.972656 98.457031 167.445312 98.09375 166.898438 C 97.726562 166.351562 97.386719 165.785156 97.078125 165.207031 C 96.765625 164.625 96.484375 164.03125 96.234375 163.421875 C 95.980469 162.8125 95.761719 162.191406 95.570312 161.5625 C 95.378906 160.933594 95.21875 160.292969 95.089844 159.648438 C 94.960938 159 94.863281 158.351562 94.800781 157.695312 C 94.734375 157.039062 94.703125 156.382812 94.703125 155.722656 C 94.703125 155.066406 94.734375 154.40625 94.800781 153.75 C 94.863281 153.097656 94.960938 152.445312 95.089844 151.800781 C 95.21875 151.152344 95.378906 150.515625 95.570312 149.882812 C 95.761719 149.253906 95.980469 148.632812 96.234375 148.027344 C 96.484375 147.417969 96.765625 146.824219 97.078125 146.242188 C 97.386719 145.660156 97.726562 145.097656 98.09375 144.546875 C 98.457031 144 98.851562 143.472656 99.269531 142.964844 C 99.6875 142.453125 100.128906 141.964844 100.59375 141.5 C 101.058594 141.035156 101.546875 140.59375 102.054688 140.175781 C 102.566406 139.757812 103.09375 139.367188 103.640625 139 C 104.1875 138.632812 104.753906 138.296875 105.335938 137.984375 C 105.914062 137.675781 106.511719 137.394531 107.117188 137.140625 C 107.726562 136.886719 108.347656 136.667969 108.976562 136.476562 C 109.609375 136.285156 110.246094 136.125 110.890625 135.996094 C 111.539062 135.867188 112.1875 135.769531 112.84375 135.707031 C 113.5 135.640625 114.15625 135.609375 114.816406 135.609375 C 115.476562 135.609375 116.132812 135.640625 116.789062 135.707031 C 117.445312 135.769531 118.09375 135.867188 118.742188 135.996094 C 119.386719 136.125 120.023438 136.285156 120.65625 136.476562 C 121.285156 136.667969 121.90625 136.886719 122.515625 137.140625 C 123.121094 137.394531 123.71875 137.675781 124.296875 137.984375 C 124.878906 138.296875 125.445312 138.632812 125.992188 139 C 126.539062 139.367188 127.066406 139.757812 127.578125 140.175781 C 128.085938 140.59375 128.574219 141.035156 129.039062 141.5 C 129.503906 141.964844 129.945312 142.453125 130.363281 142.964844 C 130.78125 143.472656 131.175781 144 131.539062 144.546875 C 131.90625 145.097656 132.246094 145.660156 132.554688 146.242188 C 132.867188 146.824219 133.148438 147.417969 133.398438 148.027344 C 133.652344 148.632812 133.875 149.253906 134.0625 149.882812 C 134.253906 150.515625 134.414062 151.152344 134.542969 151.800781 C 134.671875 152.445312 134.769531 153.097656 134.832031 153.75 C 134.898438 154.40625 134.929688 155.066406 134.929688 155.722656 Z M 134.929688 155.722656 " fill-opacity="1" fill-rule="nonzero"/><path fill="#fca2a2" d="M 160.675781 168.339844 L 171.484375 187.652344 L 150.675781 210.351562 L 114.734375 211.972656 L 112.300781 226.832031 L 135.8125 230.617188 L 136.351562 279.257812 L 114.734375 279.257812 L 113.921875 249.804688 L 85.160156 245.589844 C 78.042969 244.546875 73.609375 237.320312 75.902344 230.503906 L 87.859375 194.96875 C 89.378906 190.453125 93.65625 187.449219 98.417969 187.546875 L 142.027344 188.460938 L 160.671875 168.339844 Z M 160.675781 168.339844 " fill-opacity="1" fill-rule="nonzero"/><path fill="#fca2a2" d="M 46.90625 291.960938 L 71.5 261.152344 L 83.597656 245.359375 L 103.335938 248.253906 L 89.875 273.855469 L 66.363281 299.796875 Z M 46.90625 291.960938 " fill-opacity="1" fill-rule="nonzero"/><path fill="#1a2d35" d="M 219.519531 239.148438 L 195.828125 239.148438 C 194.722656 239.148438 193.671875 238.6875 192.925781 237.875 C 192.179688 237.066406 191.808594 235.976562 191.898438 234.878906 L 195.546875 191.191406 C 195.609375 190.441406 195.886719 189.722656 196.34375 189.125 L 214.464844 165.464844 L 211.578125 156.625 L 207.289062 165.585938 C 207.015625 166.160156 206.609375 166.65625 206.101562 167.039062 L 182.855469 184.484375 C 181.984375 185.136719 180.875 185.402344 179.800781 185.210938 C 178.726562 185.019531 177.78125 184.390625 177.1875 183.472656 L 164.375 163.703125 C 163.234375 161.941406 163.671875 159.597656 165.371094 158.367188 L 186.914062 142.765625 L 199.289062 110.898438 C 199.632812 110.015625 200.28125 109.285156 201.121094 108.839844 L 215.046875 101.484375 C 220.613281 98.542969 227.546875 100.671875 230.507812 106.222656 L 257.21875 156.328125 C 262.496094 166.230469 259.226562 178.722656 249.769531 184.765625 L 228.0625 198.648438 L 223.429688 235.695312 C 223.183594 237.667969 221.507812 239.148438 219.523438 239.148438 Z M 200.109375 231.265625 L 216.042969 231.265625 L 220.472656 195.835938 C 220.617188 194.671875 221.273438 193.636719 222.257812 193.003906 L 245.527344 178.128906 C 251.542969 174.28125 253.621094 166.335938 250.265625 160.035156 L 223.554688 109.933594 C 222.628906 108.199219 220.464844 107.535156 218.726562 108.453125 L 206.101562 115.121094 L 193.839844 146.703125 C 193.566406 147.410156 193.09375 148.023438 192.476562 148.46875 L 173.023438 162.558594 L 181.503906 175.644531 L 200.597656 161.316406 L 208.710938 144.351562 C 209.40625 142.902344 210.910156 142.019531 212.519531 142.121094 C 214.128906 142.226562 215.507812 143.296875 216.011719 144.828125 L 222.601562 164.988281 C 223.003906 166.222656 222.773438 167.578125 221.984375 168.609375 L 203.300781 193 L 200.109375 231.269531 Z M 200.109375 231.265625 " fill-opacity="1" fill-rule="nonzero"/><path fill="#1a2d35" d="M 272.742188 239.148438 L 251.808594 239.148438 C 250.195312 239.148438 248.746094 238.164062 248.148438 236.667969 L 230.210938 191.714844 C 229.523438 189.992188 230.132812 188.023438 231.671875 186.988281 L 248.65625 175.554688 C 249.648438 174.886719 250.894531 174.707031 252.035156 175.066406 C 253.175781 175.425781 254.09375 176.28125 254.527344 177.398438 L 276.414062 233.78125 C 276.886719 234.992188 276.726562 236.359375 275.992188 237.433594 C 275.257812 238.507812 274.042969 239.148438 272.742188 239.148438 Z M 254.476562 231.265625 L 266.988281 231.265625 L 248.964844 184.847656 L 238.710938 191.75 Z M 254.476562 231.265625 " fill-opacity="1" fill-rule="nonzero"/><g clip-path="url(#e02c8782cc)"><path fill="#1a2d35" d="M 191.640625 104.378906 C 178.375 104.378906 167.585938 93.585938 167.585938 80.324219 C 167.585938 67.058594 178.375 56.269531 191.640625 56.269531 C 204.902344 56.269531 215.695312 67.058594 215.695312 80.324219 C 215.695312 93.585938 204.902344 104.378906 191.640625 104.378906 Z M 191.640625 64.148438 C 182.722656 64.148438 175.464844 71.40625 175.464844 80.324219 C 175.464844 89.242188 182.722656 96.5 191.640625 96.5 C 200.558594 96.5 207.8125 89.242188 207.8125 80.324219 C 207.8125 71.40625 200.558594 64.148438 191.640625 64.148438 Z M 191.640625 64.148438 " fill-opacity="1" fill-rule="nonzero"/></g><path fill="#1a2d35" d="M 114.816406 179.777344 C 101.554688 179.777344 90.761719 168.988281 90.761719 155.722656 C 90.761719 142.460938 101.554688 131.667969 114.816406 131.667969 C 128.082031 131.667969 138.871094 142.460938 138.871094 155.722656 C 138.871094 168.988281 128.082031 179.777344 114.816406 179.777344 Z M 114.816406 139.550781 C 105.898438 139.550781 98.644531 146.804688 98.644531 155.722656 C 98.644531 164.640625 105.898438 171.898438 114.816406 171.898438 C 123.734375 171.898438 130.992188 164.640625 130.992188 155.722656 C 130.992188 146.804688 123.734375 139.550781 114.816406 139.550781 Z M 114.816406 139.550781 " fill-opacity="1" fill-rule="nonzero"/><path fill="#1a2d35" d="M 136.355469 283.199219 L 114.734375 283.199219 C 112.601562 283.199219 110.855469 281.5 110.796875 279.367188 L 110.078125 253.222656 L 84.589844 249.488281 C 80.039062 248.820312 76.046875 246.191406 73.644531 242.273438 C 71.238281 238.351562 70.699219 233.605469 72.167969 229.246094 L 84.125 193.714844 C 86.171875 187.632812 91.796875 183.605469 98.183594 183.605469 C 98.289062 183.605469 98.394531 183.605469 98.5 183.609375 L 140.339844 184.484375 L 157.785156 165.660156 C 158.640625 164.734375 159.886719 164.28125 161.140625 164.425781 C 162.390625 164.574219 163.496094 165.3125 164.113281 166.414062 L 174.921875 185.726562 C 175.75 187.210938 175.535156 189.058594 174.386719 190.3125 L 153.578125 213.011719 C 152.875 213.78125 151.894531 214.238281 150.851562 214.285156 L 118.105469 215.761719 L 116.828125 223.570312 L 136.4375 226.726562 C 138.332031 227.03125 139.730469 228.65625 139.753906 230.574219 L 140.292969 279.214844 C 140.304688 280.265625 139.894531 281.28125 139.15625 282.027344 C 138.414062 282.777344 137.40625 283.199219 136.351562 283.199219 Z M 118.570312 275.320312 L 132.371094 275.320312 L 131.910156 233.980469 L 111.675781 230.722656 C 110.644531 230.558594 109.71875 229.988281 109.105469 229.136719 C 108.496094 228.289062 108.246094 227.230469 108.414062 226.199219 L 110.847656 211.335938 C 111.148438 209.496094 112.695312 208.121094 114.558594 208.035156 L 148.871094 206.488281 L 166.652344 187.089844 L 159.882812 174.988281 L 144.917969 191.140625 C 144.152344 191.964844 143.082031 192.425781 141.945312 192.398438 L 98.335938 191.488281 C 95.292969 191.441406 92.570312 193.328125 91.59375 196.226562 L 79.636719 231.757812 C 78.917969 233.898438 79.179688 236.226562 80.359375 238.152344 C 81.539062 240.074219 83.496094 241.363281 85.730469 241.691406 L 114.496094 245.90625 C 116.390625 246.183594 117.808594 247.78125 117.863281 249.695312 L 118.566406 275.316406 Z M 118.570312 275.320312 " fill-opacity="1" fill-rule="nonzero"/><path fill="#1a2d35" d="M 66.363281 303.734375 C 65.867188 303.734375 65.371094 303.644531 64.890625 303.449219 L 45.4375 295.613281 C 44.28125 295.148438 43.414062 294.164062 43.097656 292.960938 C 42.78125 291.757812 43.050781 290.472656 43.828125 289.5 L 68.394531 258.726562 L 80.46875 242.964844 C 81.339844 241.832031 82.753906 241.253906 84.167969 241.460938 L 103.90625 244.355469 C 105.171875 244.539062 106.269531 245.328125 106.847656 246.464844 C 107.429688 247.605469 107.417969 248.953125 106.824219 250.085938 L 93.363281 275.6875 C 93.207031 275.980469 93.015625 276.253906 92.792969 276.5 L 69.285156 302.441406 C 68.523438 303.28125 67.453125 303.734375 66.363281 303.734375 Z M 53.289062 290.28125 L 65.289062 295.113281 L 86.617188 271.578125 L 97.257812 251.34375 L 85.316406 249.59375 L 74.628906 263.550781 C 74.609375 263.570312 74.59375 263.589844 74.578125 263.613281 Z M 53.289062 290.28125 " fill-opacity="1" fill-rule="nonzero"/><path fill="#6cc8e3" d="M 194.507812 235.207031 L 275.71875 235.207031 L 275.71875 371.078125 L 194.507812 371.078125 Z M 194.507812 235.207031 " fill-opacity="1" fill-rule="nonzero"/><path fill="#1a2d35" d="M 275.71875 375.019531 L 194.507812 375.019531 C 192.332031 375.019531 190.566406 373.253906 190.566406 371.078125 L 190.566406 235.207031 C 190.566406 233.03125 192.332031 231.265625 194.507812 231.265625 L 275.71875 231.265625 C 277.894531 231.265625 279.660156 233.03125 279.660156 235.207031 L 279.660156 371.078125 C 279.660156 373.253906 277.894531 375.019531 275.71875 375.019531 Z M 198.449219 367.136719 L 271.78125 367.136719 L 271.78125 239.148438 L 198.449219 239.148438 Z M 198.449219 367.136719 " fill-opacity="1" fill-rule="nonzero"/><path fill="#a57ef6" d="M 289.738281 188.988281 L 370.949219 188.988281 L 370.949219 371.078125 L 289.738281 371.078125 Z M 289.738281 188.988281 " fill-opacity="1" fill-rule="nonzero"/><path fill="#1a2d35" d="M 370.949219 375.019531 L 289.738281 375.019531 C 287.558594 375.019531 285.796875 373.253906 285.796875 371.078125 L 285.796875 188.988281 C 285.796875 186.8125 287.558594 185.046875 289.738281 185.046875 L 370.949219 185.046875 C 373.125 185.046875 374.886719 186.8125 374.886719 188.988281 L 374.886719 371.078125 C 374.886719 373.253906 373.125 375.019531 370.949219 375.019531 Z M 293.675781 367.136719 L 367.007812 367.136719 L 367.007812 192.925781 L 293.675781 192.925781 Z M 293.675781 367.136719 " fill-opacity="1" fill-rule="nonzero"/><path fill="#fed230" d="M 99.28125 279.257812 L 180.492188 279.257812 L 180.492188 371.078125 L 99.28125 371.078125 Z M 99.28125 279.257812 " fill-opacity="1" fill-rule="nonzero"/><path fill="#1a2d35" d="M 180.492188 375.019531 L 99.28125 375.019531 C 97.105469 375.019531 95.339844 373.253906 95.339844 371.078125 L 95.339844 279.257812 C 95.339844 277.082031 97.105469 275.320312 99.28125 275.320312 L 180.492188 275.320312 C 182.667969 275.320312 184.433594 277.082031 184.433594 279.257812 L 184.433594 371.078125 C 184.433594 373.253906 182.667969 375.019531 180.492188 375.019531 Z M 103.21875 367.136719 L 176.550781 367.136719 L 176.550781 283.199219 L 103.21875 283.199219 Z M 103.21875 367.136719 " fill-opacity="1" fill-rule="nonzero"/><path fill="#ea477c" d="M 4.050781 325.167969 L 85.261719 325.167969 L 85.261719 371.078125 L 4.050781 371.078125 Z M 4.050781 325.167969 " fill-opacity="1" fill-rule="nonzero"/><path fill="#1a2d35" d="M 85.261719 375.019531 L 4.050781 375.019531 C 1.875 375.019531 0.113281 373.253906 0.113281 371.078125 L 0.113281 325.167969 C 0.113281 322.992188 1.875 321.226562 4.050781 321.226562 L 85.261719 321.226562 C 87.441406 321.226562 89.203125 322.992188 89.203125 325.167969 L 89.203125 371.078125 C 89.203125 373.253906 87.441406 375.019531 85.261719 375.019531 Z M 7.992188 367.136719 L 81.324219 367.136719 L 81.324219 329.109375 L 7.992188 329.109375 Z M 7.992188 367.136719 " fill-opacity="1" fill-rule="nonzero"/></svg>