<svg xmlns="http://www.w3.org/2000/svg" xmlns:xlink="http://www.w3.org/1999/xlink" width="500" zoomAndPan="magnify" viewBox="0 0 375 374.999991" height="500" preserveAspectRatio="xMidYMid meet" version="1.0"><path fill="#ffffff" d="M 122.949219 143.78125 C 122.949219 134.8125 115.609375 127.472656 106.640625 127.472656 C 97.671875 127.472656 90.335938 134.8125 90.335938 143.78125 C 90.335938 150.847656 94.953125 157.097656 101.207031 159.269531 C 101.207031 159.542969 101.207031 159.816406 101.207031 160.085938 L 101.207031 235.371094 C 102.292969 234.554688 103.652344 234.011719 105.011719 233.46875 C 106.640625 229.121094 108.273438 224.773438 110.445312 220.421875 C 106.914062 213.355469 107.730469 204.929688 112.078125 198.410156 L 112.078125 160.085938 C 112.078125 159.816406 112.078125 159.542969 112.078125 159.269531 C 118.328125 156.824219 122.949219 150.847656 122.949219 143.78125 Z M 106.640625 149.214844 C 103.652344 149.214844 101.207031 146.769531 101.207031 143.78125 C 101.207031 140.789062 103.652344 138.34375 106.640625 138.34375 C 109.632812 138.34375 112.078125 140.789062 112.078125 143.78125 C 112.078125 146.769531 109.632812 149.214844 106.640625 149.214844 Z M 106.640625 149.214844 " fill-opacity="1" fill-rule="nonzero"/><path fill="#ffffff" d="M 93.050781 352.78125 C 90.0625 352.78125 87.617188 355.230469 87.617188 358.21875 C 87.617188 361.207031 90.0625 363.65625 93.050781 363.65625 L 120.230469 363.65625 C 123.21875 363.65625 125.667969 361.207031 125.667969 358.21875 C 125.667969 355.230469 123.21875 352.78125 120.230469 352.78125 Z M 93.050781 352.78125 " fill-opacity="1" fill-rule="nonzero"/><path fill="#ffffff" d="M 252.863281 192.699219 C 248.515625 188.351562 241.71875 188.351562 237.371094 192.699219 L 235.738281 194.332031 C 228.671875 190.253906 221.0625 187.265625 212.910156 185.363281 L 212.910156 183.730469 C 212.910156 177.753906 208.015625 172.859375 201.765625 172.859375 L 184.914062 172.859375 C 178.9375 172.859375 173.773438 177.753906 173.773438 183.730469 L 173.773438 185.363281 C 168.066406 186.722656 162.359375 188.625 156.921875 191.34375 C 157.738281 194.875 159.097656 198.410156 160.453125 201.671875 C 166.707031 198.679688 173.230469 196.507812 180.023438 195.148438 C 182.742188 194.605469 184.644531 192.429688 184.644531 189.710938 L 184.914062 183.460938 L 202.039062 183.460938 L 202.039062 189.441406 C 202.039062 192.15625 203.941406 194.332031 206.660156 194.875 C 216.441406 196.507812 225.410156 200.3125 233.566406 205.476562 C 235.738281 206.832031 238.457031 206.5625 240.359375 204.660156 L 244.980469 200.039062 C 244.980469 200.039062 245.253906 200.039062 245.253906 200.039062 L 257.210938 211.726562 L 263.460938 202.484375 Z M 252.863281 192.699219 " fill-opacity="1" fill-rule="nonzero"/><path fill="#ffffff" d="M 193.613281 215.257812 C 186.546875 215.257812 180.023438 216.617188 174.042969 219.335938 C 177.304688 222.324219 180.839844 225.042969 184.644531 227.21875 C 187.363281 226.675781 190.351562 226.128906 193.339844 226.128906 C 202.308594 226.128906 210.464844 229.121094 216.988281 234.285156 C 221.335938 234.011719 225.683594 232.925781 230.03125 231.566406 C 221.335938 221.511719 208.289062 215.257812 193.613281 215.257812 Z M 193.613281 215.257812 " fill-opacity="1" fill-rule="nonzero"/><path fill="#ffffff" d="M 150.128906 241.621094 C 146.59375 248.144531 144.691406 255.753906 144.691406 263.636719 C 144.691406 290.273438 166.707031 311.742188 193.613281 311.742188 C 220.519531 311.742188 242.535156 290.273438 242.535156 263.636719 C 242.535156 263.09375 242.535156 262.820312 242.535156 262.277344 C 239 263.636719 235.46875 264.453125 231.664062 265.269531 C 230.847656 285.109375 213.996094 300.871094 193.613281 300.871094 C 172.683594 300.871094 155.5625 284.019531 155.5625 263.636719 C 155.5625 258.472656 156.648438 253.582031 158.550781 249.234375 C 155.5625 246.515625 152.84375 244.070312 150.128906 241.621094 Z M 150.128906 241.621094 " fill-opacity="1" fill-rule="nonzero"/><path fill="#ffffff" d="M 316.730469 250.863281 C 314.558594 248.6875 311.023438 248.6875 309.121094 250.863281 L 307.21875 252.765625 L 277.050781 222.597656 C 298.523438 191.613281 295.804688 148.398438 268.355469 120.679688 C 253.40625 105.730469 233.566406 97.304688 212.636719 97.304688 C 191.710938 97.304688 171.871094 105.457031 156.921875 120.679688 C 126.210938 151.660156 126.210938 201.941406 156.921875 232.925781 C 171.871094 247.875 191.710938 256.300781 212.636719 256.300781 C 227.3125 256.300781 241.175781 252.222656 253.132812 244.882812 L 283.847656 275.867188 L 281.941406 277.769531 C 279.769531 279.945312 279.769531 283.207031 281.941406 285.378906 L 324.070312 328.050781 C 326.246094 330.226562 328.960938 331.3125 331.679688 331.3125 C 334.667969 331.3125 337.386719 330.226562 339.289062 328.050781 L 358.585938 308.753906 C 362.664062 304.40625 362.664062 297.609375 358.585938 293.261719 Z M 164.53125 225.316406 C 137.898438 198.679688 137.898438 155.195312 164.53125 128.289062 C 177.304688 115.242188 194.429688 108.175781 212.636719 108.175781 C 230.847656 108.175781 247.699219 115.242188 260.742188 128.289062 C 287.378906 154.921875 287.378906 198.410156 260.742188 225.316406 C 247.96875 238.359375 230.847656 245.425781 212.636719 245.425781 C 194.429688 245.425781 177.304688 238.359375 164.53125 225.316406 Z M 262.648438 238.90625 L 270.257812 231.023438 L 299.335938 260.375 L 291.726562 268.257812 Z M 351.25 301.144531 L 331.953125 320.441406 L 293.359375 281.574219 L 312.65625 262.277344 Z M 351.25 301.144531 " fill-opacity="1" fill-rule="nonzero"/><path fill="#ffffff" d="M 337.660156 300.601562 C 337.660156 300.957031 337.625 301.308594 337.554688 301.660156 C 337.484375 302.011719 337.382812 302.351562 337.246094 302.679688 C 337.109375 303.011719 336.941406 303.324219 336.742188 303.621094 C 336.546875 303.917969 336.320312 304.191406 336.066406 304.445312 C 335.816406 304.695312 335.539062 304.921875 335.242188 305.121094 C 334.945312 305.316406 334.632812 305.484375 334.304688 305.621094 C 333.972656 305.757812 333.632812 305.863281 333.285156 305.929688 C 332.933594 306 332.582031 306.035156 332.222656 306.035156 C 331.867188 306.035156 331.511719 306 331.164062 305.929688 C 330.8125 305.863281 330.472656 305.757812 330.144531 305.621094 C 329.8125 305.484375 329.5 305.316406 329.203125 305.121094 C 328.90625 304.921875 328.632812 304.695312 328.378906 304.445312 C 328.128906 304.191406 327.902344 303.917969 327.703125 303.621094 C 327.503906 303.324219 327.339844 303.011719 327.203125 302.679688 C 327.066406 302.351562 326.960938 302.011719 326.890625 301.660156 C 326.824219 301.308594 326.789062 300.957031 326.789062 300.601562 C 326.789062 300.242188 326.824219 299.890625 326.890625 299.539062 C 326.960938 299.191406 327.066406 298.851562 327.203125 298.519531 C 327.339844 298.191406 327.503906 297.875 327.703125 297.582031 C 327.902344 297.285156 328.128906 297.007812 328.378906 296.757812 C 328.632812 296.503906 328.90625 296.277344 329.203125 296.082031 C 329.5 295.882812 329.8125 295.714844 330.144531 295.578125 C 330.472656 295.441406 330.8125 295.339844 331.164062 295.269531 C 331.511719 295.199219 331.867188 295.164062 332.222656 295.164062 C 332.582031 295.164062 332.933594 295.199219 333.285156 295.269531 C 333.632812 295.339844 333.972656 295.441406 334.304688 295.578125 C 334.632812 295.714844 334.945312 295.882812 335.242188 296.082031 C 335.539062 296.277344 335.816406 296.503906 336.066406 296.757812 C 336.320312 297.007812 336.546875 297.285156 336.742188 297.582031 C 336.941406 297.875 337.109375 298.191406 337.246094 298.519531 C 337.382812 298.851562 337.484375 299.191406 337.554688 299.539062 C 337.625 299.890625 337.660156 300.242188 337.660156 300.601562 Z M 337.660156 300.601562 " fill-opacity="1" fill-rule="nonzero"/><path fill="#ffffff" d="M 168.335938 168.242188 C 166.707031 163.621094 163.171875 160.085938 158.824219 158.457031 C 157.738281 161.988281 156.921875 165.792969 156.378906 169.328125 C 157.738281 170.414062 158.550781 171.773438 158.550781 173.675781 C 158.550781 175.578125 157.464844 177.480469 155.835938 178.296875 C 155.835938 178.296875 155.835938 178.566406 155.835938 178.566406 C 158.550781 177.210938 161.542969 176.121094 164.53125 175.308594 C 165.074219 172.589844 166.433594 170.144531 168.335938 168.242188 Z M 168.335938 168.242188 " fill-opacity="1" fill-rule="nonzero"/><path fill="#ffffff" d="M 50.382812 235.371094 C 59.621094 242.4375 64.785156 252.765625 64.785156 263.636719 L 64.785156 281.847656 C 64.785156 289.730469 71.039062 298.699219 79.734375 298.699219 L 107.730469 298.699219 C 107.457031 297.882812 106.914062 296.796875 106.640625 295.980469 C 106.097656 294.621094 105.554688 293.261719 105.011719 291.632812 C 103.652344 291.085938 102.566406 290.542969 101.207031 289.730469 C 100.117188 289.183594 99.304688 288.371094 98.214844 287.554688 L 93.050781 287.554688 L 93.050781 281.304688 C 91.421875 278.3125 90.335938 274.507812 90.335938 270.703125 L 90.335938 253.851562 C 90.335938 250.046875 91.421875 246.515625 93.050781 243.253906 L 93.050781 209.007812 C 93.050781 207.648438 92.507812 206.289062 91.691406 205.476562 L 72.941406 184.277344 C 75.386719 181.558594 76.746094 177.753906 76.746094 173.675781 C 76.746094 164.707031 69.40625 157.367188 60.4375 157.367188 C 51.46875 157.367188 44.128906 164.707031 44.128906 173.675781 C 44.128906 182.644531 51.46875 189.984375 60.4375 189.984375 C 61.253906 189.984375 62.339844 189.984375 63.15625 189.710938 L 82.179688 211.183594 L 82.179688 287.824219 L 79.734375 287.824219 C 78.105469 287.824219 75.65625 284.566406 75.65625 281.847656 L 75.65625 263.636719 C 75.65625 249.234375 68.863281 235.914062 56.90625 226.675781 C 35.160156 210.09375 23.476562 184.003906 25.105469 156.824219 C 27.824219 116.601562 60.4375 83.988281 100.933594 81.269531 C 123.765625 79.636719 145.234375 87.25 161.8125 102.46875 C 164.804688 100.292969 168.066406 98.390625 171.328125 96.761719 C 170.78125 96.21875 170.238281 95.671875 169.695312 95.128906 C 150.671875 77.464844 125.9375 68.765625 100.117188 70.398438 C 54.1875 73.660156 17.496094 110.351562 14.507812 156.28125 C 12.332031 186.992188 25.921875 216.617188 50.382812 235.371094 Z M 55.003906 173.675781 C 55.003906 170.6875 57.449219 168.242188 60.4375 168.242188 C 63.425781 168.242188 65.875 170.6875 65.875 173.675781 C 65.875 176.664062 63.425781 179.113281 60.4375 179.113281 C 57.449219 179.113281 55.003906 176.664062 55.003906 173.675781 Z M 55.003906 173.675781 " fill-opacity="1" fill-rule="nonzero"/><path fill="#ffffff" d="M 199.046875 160.085938 C 198.777344 147.3125 195.789062 135.082031 190.625 123.667969 C 187.363281 125.027344 184.101562 126.65625 181.109375 128.832031 C 185.460938 138.617188 187.90625 148.945312 188.175781 160.085938 Z M 199.046875 160.085938 " fill-opacity="1" fill-rule="nonzero"/><path fill="#ffffff" d="M 76.746094 310.113281 C 73.753906 310.113281 71.308594 312.558594 71.308594 315.546875 C 71.308594 318.539062 73.753906 320.984375 76.746094 320.984375 L 109.359375 320.984375 C 108.273438 317.449219 108 313.644531 108.816406 310.113281 Z M 76.746094 310.113281 " fill-opacity="1" fill-rule="nonzero"/><path fill="#ffffff" d="M 126.480469 341.910156 L 116.152344 331.582031 L 84.898438 331.582031 C 81.910156 331.582031 79.460938 334.03125 79.460938 337.019531 C 79.460938 340.007812 81.910156 342.457031 84.898438 342.457031 L 127.023438 342.457031 C 127.023438 342.183594 126.753906 341.910156 126.480469 341.910156 Z M 126.480469 341.910156 " fill-opacity="1" fill-rule="nonzero"/><path fill="#ffffff" d="M 117.785156 254.394531 C 120.503906 254.394531 122.675781 252.492188 123.21875 250.046875 C 125.121094 240.535156 128.929688 231.566406 134.90625 223.414062 C 135.179688 223.140625 135.179688 222.871094 135.449219 222.597656 C 133.546875 219.335938 131.917969 215.804688 130.285156 212.269531 L 130.015625 211.996094 C 128.382812 208.191406 127.023438 204.386719 126.210938 200.582031 L 122.40625 204.386719 C 120.230469 206.289062 119.144531 209.007812 119.144531 211.996094 C 119.144531 214.988281 120.230469 217.707031 122.40625 219.878906 L 123.492188 220.695312 C 118.871094 227.761719 115.609375 235.371094 113.707031 243.523438 L 112.621094 243.523438 C 106.640625 243.523438 101.476562 248.417969 101.476562 254.398438 L 101.476562 270.976562 C 101.476562 276.953125 106.371094 281.847656 112.621094 281.847656 L 113.707031 281.847656 C 115.882812 290 119.144531 297.609375 123.492188 304.675781 L 122.40625 305.492188 C 120.230469 307.667969 119.144531 310.382812 119.144531 313.375 C 119.144531 316.363281 120.230469 319.082031 122.40625 321.253906 L 134.363281 332.941406 C 138.710938 337.292969 145.507812 337.019531 149.855469 332.941406 L 151.484375 331.3125 C 158.550781 335.390625 166.164062 338.378906 174.316406 340.28125 L 174.316406 343.269531 C 174.316406 349.25 179.207031 354.140625 185.460938 354.140625 L 202.308594 354.140625 C 208.289062 354.140625 213.453125 349.25 213.453125 343.269531 L 213.453125 340.28125 C 221.605469 338.378906 229.21875 335.390625 236.285156 331.3125 L 237.914062 332.941406 C 242.261719 337.292969 249.058594 337.292969 253.40625 332.941406 L 265.363281 321.253906 C 267.539062 319.082031 268.625 316.363281 268.625 313.375 C 268.625 310.382812 267.539062 307.667969 265.363281 305.492188 L 264.277344 304.40625 C 267.539062 299.511719 269.984375 294.347656 271.886719 288.914062 C 269.984375 285.378906 269.714844 281.03125 270.527344 277.226562 L 265.90625 272.335938 C 265.09375 273.148438 264.550781 273.964844 264.550781 275.050781 C 262.648438 284.566406 258.839844 293.535156 252.863281 301.6875 C 251.230469 303.863281 251.503906 306.851562 253.40625 308.753906 L 257.484375 312.832031 L 245.523438 324.515625 C 245.523438 324.515625 245.253906 324.515625 245.253906 324.515625 L 240.632812 319.898438 C 238.730469 317.996094 236.011719 317.722656 233.835938 319.082031 C 225.683594 324.515625 216.441406 328.050781 206.929688 329.679688 C 204.210938 330.226562 202.308594 332.398438 202.308594 335.117188 L 202.039062 342.726562 L 184.914062 342.726562 L 184.914062 335.390625 C 184.914062 332.671875 183.011719 330.496094 180.296875 329.953125 C 170.511719 328.324219 161.542969 324.515625 153.386719 319.351562 C 152.574219 318.808594 151.484375 318.539062 150.398438 318.539062 C 149.039062 318.539062 147.679688 319.082031 146.59375 320.167969 L 141.972656 324.789062 C 141.972656 324.789062 141.703125 324.789062 141.703125 324.789062 L 129.742188 313.101562 L 133.820312 309.027344 C 135.722656 307.121094 135.996094 304.132812 134.363281 301.960938 C 128.382812 293.804688 124.578125 284.835938 122.675781 275.324219 C 122.132812 272.878906 119.957031 270.976562 117.242188 270.976562 L 111.535156 270.976562 L 111.535156 254.398438 C 111.535156 254.398438 111.535156 254.398438 111.804688 254.398438 L 117.785156 254.398438 Z M 117.785156 254.394531 " fill-opacity="1" fill-rule="nonzero"/></svg>