<svg xmlns="http://www.w3.org/2000/svg" xmlns:xlink="http://www.w3.org/1999/xlink" width="500" zoomAndPan="magnify" viewBox="0 0 375 374.999991" height="500" preserveAspectRatio="xMidYMid meet" version="1.0"><defs><clipPath id="b0e79600fa"><path d="M 80 0 L 309.808594 0 L 309.808594 266 L 80 266 Z M 80 0 " clip-rule="nonzero"/></clipPath></defs><g clip-path="url(#b0e79600fa)"><path fill="#ffffff" d="M 294.5 43.5 C 284.601562 29.398438 270.949219 18.601562 253.550781 11.175781 C 236.226562 3.75 216.199219 0 193.550781 0 C 172.925781 0 154.101562 3.675781 137.074219 11.023438 C 120.050781 18.300781 106.324219 29.476562 95.976562 44.25 C 87.726562 56.023438 82.625 70.273438 80.527344 87 C 79.625 94.273438 85.402344 100.726562 92.75 100.726562 L 138.351562 100.726562 C 144.199219 100.726562 149.152344 96.601562 150.425781 90.898438 C 151.550781 85.800781 153.425781 81.226562 156.050781 77.324219 C 160.25 71.023438 165.652344 66.226562 172.25 63 C 178.851562 59.773438 185.824219 58.125 193.25 58.125 C 200.902344 58.125 207.800781 59.699219 214.175781 62.925781 C 220.476562 66.074219 225.5 70.648438 229.25 76.574219 C 233 82.5 234.875 89.324219 234.875 97.199219 C 234.875 104.625 233.226562 111.300781 229.925781 117.226562 C 226.625 123.148438 222.199219 128.625 216.652344 133.5 C 211.027344 138.449219 204.800781 143.101562 197.75 147.675781 C 188.300781 153.601562 180.199219 160.199219 173.527344 167.476562 C 166.777344 174.75 161.75 184.273438 158.226562 196.125 C 154.777344 207.976562 152.976562 223.800781 152.902344 243.675781 L 152.902344 253.574219 C 152.902344 260.324219 158.375 265.875 165.199219 265.875 L 205.324219 265.875 C 212.074219 265.875 217.625 260.398438 217.625 253.574219 L 217.625 243.675781 C 217.777344 232.5 219.199219 223.125 221.976562 215.550781 C 224.75 207.976562 229.027344 201.226562 234.726562 195.449219 C 240.5 189.675781 247.851562 184.125 256.851562 178.726562 C 267.574219 172.351562 276.800781 165.226562 284.675781 157.273438 C 292.476562 149.398438 298.625 140.25 303.050781 129.976562 C 307.402344 119.699219 309.652344 107.851562 309.652344 94.574219 C 309.425781 74.625 304.402344 57.601562 294.5 43.5 Z M 294.5 43.5 " fill-opacity="1" fill-rule="nonzero"/></g><path fill="#ffffff" d="M 186.5 293.476562 C 175.101562 293.476562 165.425781 297.449219 157.402344 305.398438 C 149.375 313.351562 145.402344 322.949219 145.550781 334.050781 C 145.402344 345.300781 149.375 354.976562 157.402344 363 C 165.425781 371.023438 175.101562 375 186.5 375 C 193.777344 375 200.527344 373.125 206.601562 369.449219 C 212.75 365.699219 217.699219 360.824219 221.527344 354.601562 C 225.351562 348.375 227.300781 341.550781 227.375 334.050781 C 227.226562 322.875 223.101562 313.351562 214.925781 305.398438 C 206.824219 297.449219 197.300781 293.476562 186.5 293.476562 Z M 186.5 293.476562 " fill-opacity="1" fill-rule="nonzero"/></svg>