<svg xmlns="http://www.w3.org/2000/svg" xmlns:xlink="http://www.w3.org/1999/xlink" width="500" zoomAndPan="magnify" viewBox="0 0 375 374.999991" height="500" preserveAspectRatio="xMidYMid meet" version="1.0"><defs><clipPath id="9be7aab9b4"><path d="M 191 28.746094 L 205 28.746094 L 205 40 L 191 40 Z M 191 28.746094 " clip-rule="nonzero"/></clipPath><clipPath id="b5f2002cfd"><path d="M 322 166 L 332.335938 166 L 332.335938 180 L 322 180 Z M 322 166 " clip-rule="nonzero"/></clipPath><clipPath id="36356e89f4"><path d="M 83 65 L 299 65 L 299 364.746094 L 83 364.746094 Z M 83 65 " clip-rule="nonzero"/></clipPath></defs><path fill="#ffffff" d="M 217.085938 208.710938 C 231.777344 197.429688 239.644531 180.902344 237.808594 164.375 C 235.449219 143.125 218.132812 126.074219 196.621094 123.714844 C 176.945312 121.613281 158.058594 131.847656 149.402344 149.160156 C 148.089844 151.785156 149.140625 154.929688 151.761719 156.242188 C 154.386719 157.554688 157.535156 156.503906 158.847656 153.882812 C 165.667969 140.503906 180.359375 132.371094 195.574219 134.207031 C 212.101562 136.042969 225.480469 149.160156 227.316406 165.425781 C 228.628906 178.28125 222.59375 191.132812 210.789062 200.316406 C 200.03125 208.449219 185.078125 219.730469 185.078125 239.140625 L 185.078125 270.359375 C 185.078125 273.246094 187.441406 275.605469 190.328125 275.605469 C 193.210938 275.605469 195.574219 273.246094 195.574219 270.359375 L 195.574219 239.140625 C 195.574219 226.023438 205.28125 217.628906 217.085938 208.710938 Z M 217.085938 208.710938 " fill-opacity="1" fill-rule="nonzero"/><path fill="#ffffff" d="M 195.835938 291.347656 C 195.835938 291.691406 195.800781 292.03125 195.734375 292.371094 C 195.667969 292.707031 195.566406 293.035156 195.4375 293.355469 C 195.304688 293.671875 195.140625 293.976562 194.949219 294.261719 C 194.757812 294.546875 194.542969 294.8125 194.296875 295.058594 C 194.054688 295.300781 193.789062 295.519531 193.503906 295.710938 C 193.21875 295.902344 192.914062 296.0625 192.597656 296.195312 C 192.277344 296.324219 191.949219 296.425781 191.613281 296.492188 C 191.273438 296.558594 190.933594 296.59375 190.589844 296.59375 C 190.242188 296.59375 189.902344 296.558594 189.566406 296.492188 C 189.226562 296.425781 188.898438 296.324219 188.582031 296.195312 C 188.261719 296.0625 187.960938 295.902344 187.671875 295.710938 C 187.386719 295.519531 187.121094 295.300781 186.878906 295.058594 C 186.636719 294.8125 186.417969 294.546875 186.226562 294.261719 C 186.035156 293.976562 185.875 293.671875 185.742188 293.355469 C 185.609375 293.035156 185.511719 292.707031 185.441406 292.371094 C 185.375 292.03125 185.34375 291.691406 185.34375 291.347656 C 185.34375 291.003906 185.375 290.660156 185.441406 290.324219 C 185.511719 289.984375 185.609375 289.65625 185.742188 289.339844 C 185.875 289.019531 186.035156 288.71875 186.226562 288.433594 C 186.417969 288.144531 186.636719 287.878906 186.878906 287.636719 C 187.121094 287.394531 187.386719 287.175781 187.671875 286.984375 C 187.960938 286.792969 188.261719 286.632812 188.582031 286.5 C 188.898438 286.367188 189.226562 286.269531 189.566406 286.199219 C 189.902344 286.132812 190.242188 286.101562 190.589844 286.101562 C 190.933594 286.101562 191.273438 286.132812 191.613281 286.199219 C 191.949219 286.269531 192.277344 286.367188 192.597656 286.5 C 192.914062 286.632812 193.21875 286.792969 193.503906 286.984375 C 193.789062 287.175781 194.054688 287.394531 194.296875 287.636719 C 194.542969 287.878906 194.757812 288.144531 194.949219 288.433594 C 195.140625 288.71875 195.304688 289.019531 195.4375 289.339844 C 195.566406 289.65625 195.667969 289.984375 195.734375 290.324219 C 195.800781 290.660156 195.835938 291.003906 195.835938 291.347656 Z M 195.835938 291.347656 " fill-opacity="1" fill-rule="nonzero"/><path fill="#ffffff" d="M 57.320312 139.453125 C 57.847656 139.453125 58.371094 139.714844 58.632812 139.714844 C 60.992188 139.714844 63.09375 138.140625 63.617188 135.78125 C 63.878906 134.992188 64.140625 134.207031 64.40625 133.417969 C 65.191406 130.535156 63.617188 127.648438 60.730469 126.863281 C 57.847656 126.074219 54.960938 127.648438 54.171875 130.535156 C 53.910156 131.320312 53.648438 132.371094 53.386719 133.15625 C 52.863281 135.78125 54.699219 138.667969 57.320312 139.453125 Z M 57.320312 139.453125 " fill-opacity="1" fill-rule="nonzero"/><path fill="#ffffff" d="M 54.171875 165.425781 C 54.171875 165.425781 54.4375 165.425781 54.4375 165.425781 C 57.058594 165.425781 59.421875 163.328125 59.683594 160.441406 C 59.683594 159.652344 59.683594 158.867188 59.945312 157.816406 C 60.207031 154.929688 58.109375 152.308594 55.222656 152.046875 C 52.335938 151.785156 49.714844 153.882812 49.453125 156.769531 C 49.453125 157.554688 49.1875 158.605469 49.1875 159.390625 C 48.925781 162.800781 51.289062 165.164062 54.171875 165.425781 Z M 54.171875 165.425781 " fill-opacity="1" fill-rule="nonzero"/><path fill="#ffffff" d="M 58.371094 204.511719 C 55.484375 205.300781 53.910156 208.1875 54.960938 211.070312 C 55.222656 211.859375 55.484375 212.90625 55.746094 213.695312 C 56.535156 215.792969 58.632812 217.367188 60.730469 217.367188 C 60.730469 217.367188 60.992188 217.367188 60.992188 217.367188 C 62.042969 214.480469 63.617188 212.121094 65.453125 209.761719 C 65.191406 209.234375 65.191406 208.710938 64.929688 207.921875 C 64.140625 205.039062 61.257812 203.464844 58.371094 204.511719 Z M 58.371094 204.511719 " fill-opacity="1" fill-rule="nonzero"/><path fill="#ffffff" d="M 55.746094 191.660156 C 58.632812 191.394531 60.730469 188.773438 60.207031 185.886719 C 60.207031 185.101562 59.945312 184.3125 59.945312 183.265625 C 59.683594 180.378906 57.058594 178.28125 54.171875 178.542969 C 51.289062 178.804688 49.1875 181.425781 49.453125 184.3125 C 49.453125 185.101562 49.714844 186.148438 49.714844 186.9375 C 49.976562 189.558594 52.335938 191.660156 54.960938 191.660156 C 55.222656 191.660156 55.484375 191.660156 55.746094 191.660156 Z M 55.746094 191.660156 " fill-opacity="1" fill-rule="nonzero"/><path fill="#ffffff" d="M 72.800781 112.171875 C 73.0625 111.382812 73.585938 110.597656 73.847656 109.808594 C 75.160156 107.1875 74.109375 104.039062 71.75 102.726562 C 69.125 101.414062 65.976562 102.464844 64.667969 104.824219 C 64.140625 105.613281 63.878906 106.398438 63.355469 107.1875 C 62.042969 109.808594 63.09375 112.957031 65.714844 114.269531 C 66.503906 114.53125 67.289062 114.792969 68.078125 114.792969 C 70.175781 115.054688 72.011719 114.007812 72.800781 112.171875 Z M 72.800781 112.171875 " fill-opacity="1" fill-rule="nonzero"/><path fill="#ffffff" d="M 170.386719 40.816406 C 170.652344 40.816406 170.914062 40.816406 171.175781 40.816406 C 171.960938 40.816406 172.75 40.550781 173.800781 40.550781 C 176.683594 40.289062 178.785156 37.40625 178.257812 34.78125 C 177.734375 31.632812 175.109375 29.796875 172.226562 30.058594 C 171.4375 30.058594 170.386719 30.320312 169.601562 30.320312 C 166.714844 30.847656 164.878906 33.46875 165.140625 36.355469 C 165.402344 38.976562 167.765625 40.816406 170.386719 40.816406 Z M 170.386719 40.816406 " fill-opacity="1" fill-rule="nonzero"/><path fill="#ffffff" d="M 313.886719 124.761719 C 314.675781 126.863281 316.773438 128.171875 318.871094 128.171875 C 319.394531 128.171875 320.183594 128.171875 320.707031 127.910156 C 323.332031 126.863281 324.90625 123.976562 323.855469 121.089844 C 323.59375 120.304688 323.332031 119.253906 322.804688 118.464844 C 321.757812 115.84375 318.609375 114.53125 315.984375 115.582031 C 313.363281 116.628906 312.050781 119.777344 313.101562 122.402344 C 313.363281 123.1875 313.625 123.976562 313.886719 124.761719 Z M 313.886719 124.761719 " fill-opacity="1" fill-rule="nonzero"/><path fill="#ffffff" d="M 319.921875 146.535156 C 320.183594 147.324219 320.183594 148.109375 320.445312 148.898438 C 320.96875 151.519531 323.070312 153.359375 325.691406 153.359375 C 325.953125 153.359375 326.21875 153.359375 326.480469 153.359375 C 329.363281 152.832031 331.203125 150.210938 330.9375 147.324219 C 330.675781 146.535156 330.675781 145.488281 330.414062 144.699219 C 329.890625 141.816406 327.265625 139.976562 324.378906 140.503906 C 321.234375 141.027344 319.394531 143.652344 319.921875 146.535156 Z M 319.921875 146.535156 " fill-opacity="1" fill-rule="nonzero"/><path fill="#ffffff" d="M 121.070312 58.390625 C 121.855469 58.390625 122.90625 58.128906 123.691406 57.605469 C 124.480469 57.078125 125.265625 56.816406 125.792969 56.292969 C 128.414062 54.980469 129.203125 51.570312 127.890625 49.210938 C 126.578125 46.585938 123.167969 45.800781 120.808594 47.109375 C 120.019531 47.636719 119.234375 47.898438 118.445312 48.421875 C 115.824219 49.996094 115.035156 53.144531 116.609375 55.503906 C 117.660156 57.34375 119.234375 58.390625 121.070312 58.390625 Z M 121.070312 58.390625 " fill-opacity="1" fill-rule="nonzero"/><path fill="#ffffff" d="M 78.832031 91.707031 C 79.882812 92.496094 80.933594 92.757812 81.980469 92.757812 C 83.554688 92.757812 85.128906 91.96875 86.179688 90.660156 C 86.703125 89.871094 87.226562 89.347656 87.753906 88.558594 C 89.589844 86.199219 89.328125 83.050781 86.964844 81.214844 C 84.605469 79.378906 81.457031 79.640625 79.621094 82 C 79.09375 82.789062 78.570312 83.3125 78.046875 84.101562 C 76.210938 86.722656 76.472656 90.132812 78.832031 91.707031 Z M 78.832031 91.707031 " fill-opacity="1" fill-rule="nonzero"/><path fill="#ffffff" d="M 99.820312 73.605469 C 101.132812 73.605469 102.179688 73.082031 103.230469 72.296875 C 103.753906 71.769531 104.542969 71.246094 105.066406 70.722656 C 107.164062 68.886719 107.425781 65.472656 105.589844 63.375 C 103.753906 61.277344 100.34375 61.015625 98.246094 62.851562 C 97.457031 63.375 96.933594 64.164062 96.148438 64.6875 C 94.046875 66.523438 93.785156 69.933594 95.621094 72.03125 C 96.933594 73.082031 98.507812 73.605469 99.820312 73.605469 Z M 99.820312 73.605469 " fill-opacity="1" fill-rule="nonzero"/><path fill="#ffffff" d="M 144.941406 47.109375 C 145.464844 47.109375 145.992188 47.109375 146.777344 46.847656 C 147.566406 46.585938 148.351562 46.324219 149.140625 46.0625 C 151.761719 45.273438 153.335938 42.125 152.550781 39.503906 C 151.761719 36.878906 148.613281 35.304688 145.992188 36.09375 C 145.203125 36.355469 144.15625 36.617188 143.367188 36.878906 C 140.746094 37.929688 139.171875 40.816406 140.21875 43.699219 C 140.746094 45.800781 142.582031 47.109375 144.941406 47.109375 Z M 144.941406 47.109375 " fill-opacity="1" fill-rule="nonzero"/><path fill="#ffffff" d="M 311.789062 96.691406 C 311.265625 95.90625 310.738281 95.117188 310.476562 94.332031 C 308.902344 91.96875 305.753906 91.183594 303.132812 92.757812 C 300.769531 94.332031 299.984375 97.480469 301.558594 100.101562 C 302.082031 100.890625 302.34375 101.414062 302.867188 102.203125 C 303.917969 103.777344 305.492188 104.824219 307.328125 104.824219 C 308.378906 104.824219 309.164062 104.5625 309.953125 104.039062 C 312.574219 102.203125 313.363281 99.054688 311.789062 96.691406 Z M 311.789062 96.691406 " fill-opacity="1" fill-rule="nonzero"/><path fill="#ffffff" d="M 306.804688 241.503906 C 304.441406 239.929688 301.03125 240.453125 299.457031 242.8125 C 298.933594 243.601562 298.410156 244.125 298.148438 244.914062 C 296.574219 247.273438 297.097656 250.683594 299.457031 252.257812 C 300.507812 252.785156 301.558594 253.308594 302.605469 253.308594 C 304.179688 253.308594 305.753906 252.519531 306.804688 251.210938 C 307.328125 250.421875 307.851562 249.636719 308.378906 248.847656 C 309.953125 246.226562 309.164062 243.078125 306.804688 241.503906 Z M 306.804688 241.503906 " fill-opacity="1" fill-rule="nonzero"/><path fill="#ffffff" d="M 287.652344 82 C 288.703125 83.050781 290.015625 83.574219 291.589844 83.574219 C 292.898438 83.574219 294.210938 83.050781 295.261719 82.265625 C 297.359375 80.425781 297.621094 77.015625 295.523438 74.917969 C 295 74.132812 294.210938 73.605469 293.6875 72.820312 C 291.589844 70.722656 288.441406 70.722656 286.339844 72.558594 C 284.242188 74.65625 284.242188 77.804688 286.078125 79.902344 C 286.605469 80.691406 287.128906 81.214844 287.652344 82 Z M 287.652344 82 " fill-opacity="1" fill-rule="nonzero"/><g clip-path="url(#9be7aab9b4)"><path fill="#ffffff" d="M 196.359375 39.503906 C 197.148438 39.503906 197.933594 39.503906 198.984375 39.503906 C 198.984375 39.503906 199.246094 39.503906 199.246094 39.503906 C 201.867188 39.503906 204.230469 37.40625 204.492188 34.519531 C 204.753906 31.632812 202.394531 29.007812 199.507812 29.007812 C 198.722656 29.007812 197.671875 29.007812 196.882812 28.746094 C 194 28.746094 191.636719 30.847656 191.375 33.730469 C 191.113281 36.878906 193.472656 39.503906 196.359375 39.503906 Z M 196.359375 39.503906 " fill-opacity="1" fill-rule="nonzero"/></g><g clip-path="url(#b5f2002cfd)"><path fill="#ffffff" d="M 327.265625 166.472656 C 324.378906 166.472656 322.019531 168.835938 322.019531 171.722656 C 322.019531 172.507812 322.019531 173.296875 322.019531 174.34375 C 322.019531 177.230469 324.117188 179.589844 327.003906 179.851562 C 327.003906 179.851562 327.003906 179.851562 327.265625 179.851562 C 330.152344 179.851562 332.511719 177.492188 332.511719 174.867188 C 332.511719 174.082031 332.511719 173.03125 332.511719 172.246094 C 332.511719 168.835938 330.152344 166.472656 327.265625 166.472656 Z M 327.265625 166.472656 " fill-opacity="1" fill-rule="nonzero"/></g><path fill="#ffffff" d="M 325.429688 192.707031 C 322.542969 192.183594 319.921875 194.019531 319.132812 196.644531 C 318.871094 197.429688 318.871094 198.21875 318.609375 199.003906 C 318.085938 201.890625 319.660156 204.777344 322.542969 205.300781 C 323.070312 205.300781 323.332031 205.5625 323.855469 205.5625 C 326.21875 205.5625 328.316406 203.988281 328.839844 201.363281 C 329.101562 200.578125 329.363281 199.527344 329.363281 198.742188 C 330.152344 196.117188 328.316406 193.234375 325.429688 192.707031 Z M 325.429688 192.707031 " fill-opacity="1" fill-rule="nonzero"/><path fill="#ffffff" d="M 318.609375 217.890625 C 315.984375 216.84375 312.835938 217.890625 311.789062 220.777344 C 311.527344 221.566406 311 222.351562 310.738281 223.140625 C 309.425781 225.761719 310.738281 228.910156 313.363281 229.960938 C 314.148438 230.222656 314.675781 230.484375 315.460938 230.484375 C 317.558594 230.484375 319.394531 229.433594 320.183594 227.335938 C 320.445312 226.550781 320.96875 225.761719 321.234375 224.714844 C 322.542969 222.089844 321.234375 219.203125 318.609375 217.890625 Z M 318.609375 217.890625 " fill-opacity="1" fill-rule="nonzero"/><path fill="#ffffff" d="M 245.15625 51.046875 C 245.941406 51.308594 246.730469 51.832031 247.515625 52.09375 C 248.039062 52.359375 248.828125 52.621094 249.613281 52.621094 C 251.449219 52.621094 253.550781 51.570312 254.335938 49.734375 C 255.648438 47.109375 254.597656 43.960938 251.976562 42.652344 C 251.1875 42.125 250.402344 41.863281 249.351562 41.601562 C 246.730469 40.289062 243.582031 41.601562 242.53125 44.226562 C 241.21875 46.847656 242.53125 49.996094 245.15625 51.046875 Z M 245.15625 51.046875 " fill-opacity="1" fill-rule="nonzero"/><path fill="#ffffff" d="M 221.28125 42.914062 C 222.070312 43.175781 222.855469 43.4375 223.644531 43.4375 C 224.167969 43.4375 224.429688 43.699219 224.953125 43.699219 C 227.316406 43.699219 229.414062 42.125 229.9375 39.765625 C 230.726562 36.878906 228.890625 33.992188 226.265625 33.46875 C 225.480469 33.207031 224.429688 32.945312 223.644531 32.945312 C 220.757812 32.15625 217.871094 33.992188 217.347656 36.878906 C 216.558594 39.503906 218.394531 42.390625 221.28125 42.914062 Z M 221.28125 42.914062 " fill-opacity="1" fill-rule="nonzero"/><path fill="#ffffff" d="M 283.457031 262.226562 C 282.929688 262.753906 282.144531 263.277344 281.621094 264.0625 C 279.519531 266.164062 279.519531 269.308594 281.355469 271.410156 C 282.40625 272.457031 283.71875 272.984375 285.03125 272.984375 C 286.339844 272.984375 287.652344 272.457031 288.703125 271.410156 C 289.488281 270.882812 290.015625 270.097656 290.539062 269.574219 C 292.636719 267.472656 292.636719 264.324219 290.539062 262.226562 C 288.964844 260.128906 285.554688 260.128906 283.457031 262.226562 Z M 283.457031 262.226562 " fill-opacity="1" fill-rule="nonzero"/><path fill="#ffffff" d="M 266.929688 63.636719 C 267.714844 64.164062 268.242188 64.6875 269.027344 65.210938 C 270.078125 66 271.125 66.261719 272.175781 66.261719 C 273.75 66.261719 275.324219 65.472656 276.371094 64.164062 C 278.210938 61.800781 277.683594 58.652344 275.324219 56.816406 C 274.535156 56.292969 273.75 55.769531 273.226562 55.242188 C 270.863281 53.667969 267.453125 54.195312 265.878906 56.554688 C 264.042969 58.652344 264.566406 62.0625 266.929688 63.636719 Z M 266.929688 63.636719 " fill-opacity="1" fill-rule="nonzero"/><path fill="#ffffff" d="M 264.042969 278.230469 C 263.257812 278.753906 262.730469 279.28125 261.945312 279.542969 C 259.582031 281.117188 258.796875 284.265625 260.371094 286.886719 C 261.417969 288.460938 262.992188 289.25 264.828125 289.25 C 265.878906 289.25 266.667969 288.984375 267.714844 288.460938 C 268.503906 287.9375 269.289062 287.410156 270.078125 286.886719 C 272.4375 285.3125 273.226562 281.902344 271.386719 279.542969 C 269.550781 277.179688 266.402344 276.394531 264.042969 278.230469 Z M 264.042969 278.230469 " fill-opacity="1" fill-rule="nonzero"/><g clip-path="url(#36356e89f4)"><path fill="#ffffff" d="M 282.929688 227.074219 C 293.164062 210.546875 298.410156 191.394531 298.410156 171.984375 C 298.410156 113.21875 250.140625 65.738281 190.589844 65.738281 C 131.039062 65.738281 83.03125 113.21875 83.03125 171.984375 C 83.03125 175.394531 83.292969 178.542969 83.554688 181.691406 C 86.703125 179.851562 90.113281 178.804688 93.785156 178.542969 C 93.523438 176.179688 93.523438 174.082031 93.523438 171.722656 C 93.523438 118.992188 137.070312 75.96875 190.589844 75.96875 C 244.105469 75.96875 287.652344 118.992188 287.652344 171.722656 C 287.652344 189.296875 282.929688 206.347656 273.75 221.304688 C 269.027344 228.910156 263.519531 235.730469 257.746094 243.078125 C 251.449219 250.945312 244.890625 259.078125 239.644531 268.261719 C 232.5625 280.589844 226.527344 296.59375 222.855469 312.070312 L 158.847656 312.070312 C 155.960938 300.003906 151.5 287.9375 146.253906 276.65625 C 143.894531 277.441406 141.269531 277.96875 138.644531 277.96875 C 138.382812 277.96875 138.121094 277.96875 137.597656 277.96875 C 137.070312 278.492188 136.285156 279.28125 135.761719 279.804688 C 143.628906 295.804688 149.402344 313.644531 151.238281 329.910156 C 152.023438 335.945312 156.222656 340.929688 161.46875 343.027344 L 161.46875 349.324219 C 161.46875 357.980469 168.550781 365.0625 177.210938 365.0625 L 203.441406 365.0625 C 212.101562 365.0625 219.183594 357.980469 219.183594 349.324219 L 219.183594 343.289062 C 224.691406 341.453125 228.890625 336.46875 229.675781 330.433594 C 231.777344 311.808594 239.121094 289.511719 248.304688 274.03125 C 253.289062 265.636719 259.320312 258.03125 265.617188 250.160156 C 271.914062 242.8125 277.683594 235.207031 282.929688 227.074219 Z M 208.953125 349.0625 C 208.953125 351.945312 206.589844 354.308594 203.707031 354.308594 L 177.472656 354.308594 C 174.585938 354.308594 172.226562 351.945312 172.226562 349.0625 L 172.226562 343.8125 L 208.953125 343.8125 Z M 214.460938 333.320312 L 167.242188 333.320312 C 164.617188 333.320312 162.257812 331.222656 161.992188 328.597656 C 161.730469 326.761719 161.46875 324.925781 161.207031 322.828125 L 220.757812 322.828125 C 220.496094 324.925781 220.234375 326.761719 219.96875 328.859375 C 219.445312 331.484375 217.085938 333.320312 214.460938 333.320312 Z M 214.460938 333.320312 " fill-opacity="1" fill-rule="nonzero"/></g><path fill="#ffffff" d="M 149.140625 263.277344 L 152.023438 260.390625 C 156.484375 255.929688 157.535156 249.371094 155.171875 244.125 C 160.683594 242.027344 164.355469 236.78125 164.355469 230.484375 L 164.355469 226.289062 C 164.355469 219.992188 160.417969 214.746094 155.171875 212.644531 C 157.535156 207.398438 156.484375 200.839844 152.023438 196.378906 L 149.140625 193.496094 C 146.253906 190.609375 142.582031 189.035156 138.644531 189.035156 C 136.546875 189.035156 134.710938 189.558594 132.875 190.347656 C 130.777344 184.839844 125.527344 181.164062 119.234375 181.164062 L 115.035156 181.164062 C 108.738281 181.164062 103.492188 185.101562 101.394531 190.347656 C 99.558594 189.558594 97.722656 189.035156 95.621094 189.035156 C 91.6875 189.035156 88.015625 190.609375 85.128906 193.496094 L 82.242188 196.378906 C 79.621094 199.003906 78.046875 202.414062 77.785156 206.085938 C 77.519531 208.449219 78.046875 210.546875 79.09375 212.644531 C 73.585938 214.746094 69.914062 219.992188 69.914062 226.289062 L 69.914062 230.484375 C 69.914062 236.78125 73.847656 242.027344 79.09375 244.125 C 78.046875 246.226562 77.785156 248.324219 77.785156 250.683594 C 78.046875 254.355469 79.621094 257.769531 82.242188 260.390625 L 85.128906 263.277344 C 88.015625 266.164062 91.6875 267.738281 95.621094 267.738281 C 97.722656 267.738281 99.558594 267.210938 101.394531 266.425781 C 103.492188 271.933594 108.738281 275.605469 115.035156 275.605469 L 119.234375 275.605469 C 125.527344 275.605469 130.777344 271.671875 132.875 266.425781 C 134.710938 267.210938 136.546875 267.738281 138.644531 267.738281 C 142.582031 267.472656 146.253906 265.898438 149.140625 263.277344 Z M 132.613281 252.519531 C 129.726562 254.355469 126.578125 255.667969 123.429688 256.457031 L 123.429688 261.703125 C 123.429688 263.800781 121.59375 265.375 119.234375 265.375 L 115.035156 265.375 C 112.675781 265.375 110.839844 263.800781 110.839844 261.703125 L 110.839844 256.457031 C 107.425781 255.667969 104.28125 254.355469 101.65625 252.519531 L 97.984375 256.195312 C 97.195312 256.71875 96.410156 257.242188 95.621094 257.242188 C 94.574219 257.242188 93.523438 256.71875 92.472656 255.929688 L 89.589844 253.046875 C 88.015625 251.472656 87.753906 249.109375 89.328125 247.535156 L 93 243.863281 C 91.164062 240.976562 89.851562 237.828125 89.0625 234.683594 L 83.816406 234.683594 C 81.71875 234.683594 80.144531 232.84375 80.144531 230.484375 L 80.144531 226.289062 C 80.144531 223.925781 81.71875 222.089844 83.816406 222.089844 L 89.0625 222.089844 C 89.851562 218.679688 91.164062 215.53125 93 212.90625 L 89.328125 209.234375 C 88.015625 207.921875 88.015625 205.300781 89.589844 203.726562 L 92.472656 200.839844 C 93.261719 200.054688 94.574219 199.527344 95.621094 199.527344 C 96.410156 199.527344 97.457031 199.792969 97.984375 200.578125 L 101.65625 204.25 C 104.542969 202.414062 107.691406 201.101562 110.839844 200.316406 L 110.839844 195.070312 C 110.839844 192.96875 112.675781 191.394531 115.035156 191.394531 L 119.234375 191.394531 C 121.59375 191.394531 123.429688 192.96875 123.429688 195.070312 L 123.429688 200.316406 C 126.839844 201.101562 129.988281 202.414062 132.613281 204.25 L 136.285156 200.578125 C 137.070312 199.792969 137.859375 199.527344 138.644531 199.527344 C 139.695312 199.527344 140.746094 200.054688 141.792969 200.839844 L 144.679688 203.726562 C 146.253906 205.300781 146.515625 207.660156 144.941406 209.234375 L 141.269531 212.90625 C 143.105469 215.792969 144.417969 218.941406 145.203125 222.089844 L 150.449219 222.089844 C 152.550781 222.089844 154.125 223.925781 154.125 226.289062 L 154.125 230.484375 C 154.125 232.84375 152.550781 234.683594 150.449219 234.683594 L 145.203125 234.683594 C 144.417969 238.09375 143.105469 241.242188 141.269531 243.863281 L 144.941406 247.535156 C 146.253906 248.847656 146.253906 251.472656 144.679688 253.046875 L 141.792969 255.929688 C 141.007812 256.71875 139.957031 257.242188 138.644531 257.242188 C 137.859375 257.242188 136.808594 256.980469 136.285156 256.195312 Z M 132.613281 252.519531 " fill-opacity="1" fill-rule="nonzero"/><path fill="#ffffff" d="M 117.132812 210.023438 C 106.902344 210.023438 98.769531 218.15625 98.769531 228.386719 C 98.769531 238.617188 106.902344 246.75 117.132812 246.75 C 127.367188 246.75 135.496094 238.617188 135.496094 228.386719 C 135.496094 218.15625 127.367188 210.023438 117.132812 210.023438 Z M 117.132812 236.257812 C 112.675781 236.257812 109.265625 232.84375 109.265625 228.386719 C 109.265625 223.925781 112.675781 220.515625 117.132812 220.515625 C 121.59375 220.515625 125.003906 223.925781 125.003906 228.386719 C 125.003906 232.582031 121.59375 236.257812 117.132812 236.257812 Z M 117.132812 236.257812 " fill-opacity="1" fill-rule="nonzero"/></svg>