<svg xmlns="http://www.w3.org/2000/svg" xmlns:xlink="http://www.w3.org/1999/xlink" width="500" zoomAndPan="magnify" viewBox="0 0 375 374.999991" height="500" preserveAspectRatio="xMidYMid meet" version="1.0"><path fill="#ffffff" d="M 219.484375 137.945312 L 194.980469 137.945312 L 194.980469 113.441406 L 178.640625 113.441406 L 178.640625 137.945312 L 154.144531 137.945312 L 154.144531 154.28125 L 178.640625 154.28125 L 178.640625 178.789062 L 194.980469 178.789062 L 194.980469 154.28125 L 219.484375 154.28125 Z M 219.484375 137.945312 " fill-opacity="1" fill-rule="nonzero"/><path fill="#ffffff" d="M 290.054688 169.75 C 318.601562 141.203125 318.601562 94.742188 290.054688 66.195312 C 261.613281 37.75 215.390625 37.648438 186.8125 65.886719 C 158.25 37.640625 112.023438 37.742188 83.574219 66.195312 C 55.027344 94.742188 55.027344 141.203125 83.574219 169.75 L 173.632812 259.808594 C 177.269531 263.445312 182.039062 265.261719 186.820312 265.261719 C 191.597656 265.261719 196.367188 263.445312 200.003906 259.808594 Z M 170.472656 186.957031 L 170.472656 162.453125 L 145.96875 162.453125 L 145.96875 129.777344 L 170.472656 129.777344 L 170.472656 105.269531 L 203.148438 105.269531 L 203.148438 129.777344 L 227.652344 129.777344 L 227.652344 162.453125 L 203.148438 162.453125 L 203.148438 186.957031 Z M 170.472656 186.957031 " fill-opacity="1" fill-rule="nonzero"/><path fill="#ffffff" d="M 194.980469 342.152344 L 293.003906 342.152344 L 293.003906 374.828125 L 194.980469 374.828125 Z M 194.980469 342.152344 " fill-opacity="1" fill-rule="nonzero"/><path fill="#ffffff" d="M 352.949219 192.164062 C 349.296875 188.019531 343.996094 186.117188 338.601562 186.996094 C 333.554688 187.820312 329.34375 190.910156 327.054688 195.492188 L 303.976562 241.640625 C 302.953125 243.679688 301.582031 245.578125 299.96875 247.488281 L 298.824219 249.019531 C 284.589844 268.128906 262.871094 289.347656 246.003906 300.621094 L 242.605469 302.886719 L 238.074219 296.097656 L 241.464844 293.824219 C 255.082031 284.726562 271.984375 268.816406 285.199219 253.003906 C 287.941406 249.722656 286.03125 244.867188 281.832031 244.089844 C 273.964844 242.632812 265.527344 243.867188 257.917969 248.148438 C 248.863281 255.777344 236.1875 262.804688 219.746094 269.253906 C 209.535156 274.933594 202.570312 285.25 201.121094 296.839844 L 196.476562 333.984375 L 288.722656 333.984375 L 328.15625 288.917969 C 331.621094 284.957031 334.195312 280.304688 335.707031 275.265625 L 355.894531 207.976562 C 357.535156 202.542969 356.703125 196.417969 352.949219 192.164062 Z M 352.949219 192.164062 " fill-opacity="1" fill-rule="nonzero"/><path fill="#ffffff" d="M 78.96875 342.152344 L 176.992188 342.152344 L 176.992188 374.828125 L 78.96875 374.828125 Z M 78.96875 342.152344 " fill-opacity="1" fill-rule="nonzero"/><path fill="#ffffff" d="M 175.488281 333.984375 L 170.847656 296.839844 C 169.394531 285.25 162.429688 274.933594 152.21875 269.253906 C 135.777344 262.796875 123.101562 255.769531 114.046875 248.148438 C 106.441406 243.859375 98 242.625 90.132812 244.089844 C 85.933594 244.867188 84.027344 249.722656 86.765625 253.003906 C 99.980469 268.816406 116.882812 284.734375 130.5 293.824219 L 133.894531 296.097656 L 129.359375 302.886719 L 125.960938 300.621094 C 109.101562 289.347656 87.375 268.128906 73.140625 249.019531 L 72 247.488281 C 70.382812 245.578125 69.011719 243.679688 67.988281 241.640625 L 44.910156 195.492188 C 42.621094 190.917969 38.414062 187.820312 33.367188 186.996094 C 27.96875 186.117188 22.667969 188.019531 19.015625 192.164062 C 15.269531 196.417969 14.4375 202.542969 16.0625 207.96875 L 36.25 275.257812 C 37.761719 280.296875 40.339844 284.957031 43.800781 288.910156 L 83.234375 333.976562 L 175.488281 333.976562 Z M 175.488281 333.984375 " fill-opacity="1" fill-rule="nonzero"/></svg>