<svg xmlns="http://www.w3.org/2000/svg" xmlns:xlink="http://www.w3.org/1999/xlink" width="500" zoomAndPan="magnify" viewBox="0 0 375 374.999991" height="500" preserveAspectRatio="xMidYMid meet" version="1.0"><defs><clipPath id="dd9f2aa7ea"><path d="M 1 47.8125 L 375 47.8125 L 375 374.8125 L 1 374.8125 Z M 1 47.8125 " clip-rule="nonzero"/></clipPath></defs><g clip-path="url(#dd9f2aa7ea)"><path fill="#ffffff" d="M 247.96875 82.4375 C 247.96875 78.925781 250.898438 76.082031 254.410156 76.082031 C 257.921875 76.082031 260.765625 79.007812 260.765625 82.523438 L 260.429688 109.789062 C 260.429688 113.300781 257.503906 116.144531 253.992188 116.144531 C 250.480469 116.144531 247.636719 113.214844 247.636719 109.703125 Z M 364.558594 141.066406 C 367.652344 139.3125 371.585938 140.398438 373.257812 143.492188 C 374.929688 146.585938 373.84375 150.519531 370.832031 152.191406 L 347.078125 165.574219 C 343.984375 167.328125 340.054688 166.242188 338.382812 163.148438 C 336.625 160.054688 337.710938 156.207031 340.804688 154.449219 Z M 320.816406 86.203125 C 322.65625 83.191406 326.503906 82.105469 329.597656 83.945312 C 332.609375 85.785156 333.695312 89.632812 331.855469 92.726562 L 317.972656 116.226562 C 316.21875 119.238281 312.285156 120.324219 309.191406 118.484375 C 306.097656 116.644531 305.175781 112.796875 306.933594 109.703125 Z M 183.738281 69.726562 C 185.492188 66.628906 189.421875 65.628906 192.433594 67.382812 C 195.445312 69.140625 196.53125 73.070312 194.777344 76.082031 L 181.144531 99.75 C 179.386719 102.761719 175.457031 103.847656 172.445312 102.09375 C 169.433594 100.335938 168.347656 96.40625 170.105469 93.394531 Z M 7.261719 122.582031 C 4.167969 120.828125 3.164062 116.898438 4.921875 113.886719 C 6.675781 110.875 10.609375 109.789062 13.617188 111.542969 L 37.203125 125.175781 C 40.214844 126.933594 41.300781 130.863281 39.546875 133.875 C 37.789062 136.886719 33.859375 137.972656 30.847656 136.214844 Z M 53.515625 73.574219 C 51.757812 70.5625 52.761719 66.628906 55.855469 64.875 C 58.867188 63.117188 62.796875 64.121094 64.554688 67.214844 L 78.1875 90.886719 C 79.941406 93.980469 78.9375 97.828125 75.84375 99.582031 C 72.832031 101.339844 68.902344 100.335938 67.148438 97.242188 Z M 118.164062 54.167969 C 118.164062 50.65625 121.007812 47.8125 124.519531 47.8125 C 128.035156 47.8125 130.878906 50.65625 130.878906 54.167969 L 130.878906 81.433594 C 130.878906 84.949219 128.035156 87.789062 124.519531 87.789062 C 121.007812 87.789062 118.164062 84.949219 118.164062 81.433594 Z M 300.410156 160.890625 L 164.582031 160.890625 C 161.574219 160.890625 159.0625 158.796875 158.394531 156.039062 C 155.46875 146.585938 149.613281 138.390625 141.835938 132.621094 C 123.601562 119.070312 98.007812 120.910156 81.867188 137.054688 C 63.882812 155.035156 63.882812 184.140625 81.867188 202.039062 C 98.007812 218.179688 123.519531 220.019531 141.835938 206.472656 C 149.695312 200.617188 155.550781 192.335938 158.476562 182.71875 C 159.3125 179.957031 161.824219 178.117188 164.582031 178.117188 L 212.171875 178.117188 C 215.6875 178.117188 218.527344 180.960938 218.527344 184.476562 L 218.527344 202.875 L 231.410156 202.875 L 231.410156 184.476562 C 231.410156 180.960938 234.253906 178.117188 237.847656 178.117188 L 262.105469 178.117188 C 265.617188 178.117188 268.460938 180.960938 268.460938 184.476562 L 268.460938 202.875 L 281.425781 202.875 L 281.425781 184.476562 C 281.425781 180.960938 284.269531 178.117188 287.78125 178.117188 L 300.324219 178.117188 L 300.324219 160.890625 Z M 169.183594 148.09375 L 306.851562 148.09375 C 310.363281 148.09375 313.207031 150.9375 313.207031 154.449219 L 313.207031 184.558594 C 313.207031 188.070312 310.363281 190.914062 306.851562 190.914062 L 294.304688 190.914062 L 294.304688 209.316406 C 294.304688 212.828125 291.460938 215.753906 287.949219 215.753906 L 262.105469 215.753906 C 258.589844 215.753906 255.746094 212.910156 255.746094 209.316406 L 255.746094 190.914062 L 244.375 190.914062 L 244.375 209.316406 C 244.375 212.828125 241.53125 215.753906 238.015625 215.753906 L 212.339844 215.753906 C 208.828125 215.753906 205.898438 212.910156 205.898438 209.316406 L 205.898438 190.914062 L 169.265625 190.914062 C 160.570312 213.246094 138.90625 228.300781 114.570312 228.300781 C 82.117188 228.300781 55.773438 201.957031 55.773438 169.503906 C 55.773438 137.054688 82.117188 110.707031 114.570312 110.707031 C 138.824219 110.707031 160.402344 125.847656 169.183594 148.09375 Z M 114.402344 152.441406 C 99.261719 152.441406 91.652344 170.84375 102.359375 181.546875 C 113.0625 192.253906 131.464844 184.640625 131.464844 169.503906 C 131.464844 160.054688 123.851562 152.441406 114.402344 152.441406 Z M 93.324219 148.425781 C 104.949219 136.800781 123.851562 136.800781 135.5625 148.425781 C 147.1875 160.054688 147.1875 178.957031 135.5625 190.664062 C 123.9375 202.289062 105.035156 202.289062 93.324219 190.664062 C 81.699219 178.957031 81.699219 160.054688 93.324219 148.425781 Z M 38.460938 260.835938 L 77.851562 260.835938 C 81.363281 260.835938 84.207031 263.679688 84.207031 267.191406 L 84.207031 271.625 C 90.984375 269.617188 97.339844 265.6875 103.027344 260.917969 C 134.140625 234.992188 145.011719 236.414062 182.398438 241.265625 C 190.261719 242.269531 199.375 243.4375 210.417969 244.609375 C 220.789062 245.613281 227.226562 250.382812 230.070312 256.320312 C 233 262.507812 231.996094 269.449219 228.148438 275.136719 C 223.464844 282.078125 214.347656 287.515625 201.886719 287.265625 L 172.945312 286.597656 C 192.851562 295.042969 230.15625 299.558594 247.382812 293.371094 L 300.160156 274.300781 C 314.210938 268.53125 331.523438 270.203125 338.464844 280.492188 C 340.386719 283.417969 341.308594 286.679688 340.890625 290.277344 C 340.222656 295.546875 336.457031 301.066406 328.679688 305.75 C 295.808594 325.320312 235.507812 364.878906 211.085938 370.316406 C 210.5 370.398438 209.914062 370.484375 209.328125 370.484375 L 84.125 363.289062 L 84.125 368.644531 C 84.125 372.15625 81.28125 375 77.769531 375 L 7.679688 375 C 3.5 375 0.0703125 370.984375 1.742188 366.21875 L 32.355469 265.519531 C 33.191406 262.59375 35.699219 260.753906 38.460938 260.835938 Z M 84.292969 284.839844 L 84.292969 350.328125 L 209.328125 357.519531 C 227.5625 352.917969 271.554688 325.820312 302.082031 307.003906 C 309.609375 302.320312 316.382812 298.222656 322.324219 294.625 C 326.171875 292.28125 329.347656 289.441406 328.011719 287.433594 C 327.507812 286.679688 326.671875 286.011719 325.417969 285.425781 C 320.816406 283.082031 313.289062 282.664062 305.09375 286.011719 L 304.84375 286.09375 L 251.816406 305.246094 C 231.074219 312.691406 188.335938 307.757812 165.921875 297.300781 C 156.304688 292.867188 148.945312 286.175781 151.953125 277.648438 C 152.789062 275.054688 155.300781 273.214844 158.144531 273.296875 L 202.304688 274.386719 C 214.683594 274.71875 220.953125 266.4375 218.695312 261.753906 C 217.609375 259.582031 214.683594 257.742188 209.246094 257.238281 C 198.289062 256.152344 188.921875 254.898438 180.808594 253.894531 C 147.6875 249.628906 138.070312 248.375 111.222656 270.703125 C 103.359375 277.394531 94.160156 282.664062 84.292969 284.839844 Z M 71.410156 273.546875 L 43.144531 273.546875 L 16.296875 362.035156 L 71.496094 362.035156 L 71.496094 273.546875 Z M 71.410156 273.546875 " fill-opacity="1" fill-rule="nonzero"/></g></svg>