<svg xmlns="http://www.w3.org/2000/svg" xmlns:xlink="http://www.w3.org/1999/xlink" width="500" zoomAndPan="magnify" viewBox="0 0 375 374.999991" height="500" preserveAspectRatio="xMidYMid meet" version="1.0"><defs><clipPath id="724dbea23f"><path d="M 144 9.027344 L 228 9.027344 L 228 95 L 144 95 Z M 144 9.027344 " clip-rule="nonzero"/></clipPath><clipPath id="eeee3a0a43"><path d="M 10.144531 146 L 97 146 L 97 227 L 10.144531 227 Z M 10.144531 146 " clip-rule="nonzero"/></clipPath></defs><path fill="#ffffff" d="M 157.914062 246.425781 L 217.816406 246.425781 C 227.46875 246.425781 237.917969 245.421875 242.257812 237.976562 C 246.59375 230.53125 242.320312 220.953125 237.566406 212.5625 C 231.203125 201.34375 221.28125 192.839844 209.695312 188.121094 C 217.078125 181.894531 221.789062 172.585938 221.789062 162.191406 C 221.789062 143.484375 206.574219 128.269531 187.871094 128.269531 C 169.164062 128.269531 153.945312 143.484375 153.945312 162.191406 C 153.945312 172.585938 158.65625 181.890625 166.042969 188.121094 C 154.453125 192.839844 144.53125 201.34375 138.171875 212.5625 C 133.414062 220.960938 129.132812 230.546875 133.464844 237.984375 C 137.796875 245.421875 148.257812 246.425781 157.921875 246.425781 Z M 187.867188 140.441406 C 199.859375 140.441406 209.613281 150.199219 209.613281 162.191406 C 209.613281 174.183594 199.855469 183.9375 187.867188 183.9375 C 175.878906 183.9375 166.117188 174.179688 166.117188 162.191406 C 166.117188 150.203125 175.875 140.441406 187.867188 140.441406 Z M 148.753906 218.566406 C 156.605469 204.714844 171.363281 196.113281 187.265625 196.113281 L 188.464844 196.113281 C 204.367188 196.113281 219.125 204.71875 226.976562 218.566406 C 233.070312 229.320312 231.796875 231.753906 231.742188 231.851562 C 231.683594 231.949219 230.199219 234.257812 217.816406 234.257812 L 157.914062 234.257812 C 145.519531 234.257812 144.03125 231.957031 143.976562 231.859375 C 143.921875 231.761719 142.652344 229.339844 148.753906 218.566406 Z M 148.753906 218.566406 " fill-opacity="1" fill-rule="nonzero"/><path fill="#ffffff" d="M 111.136719 282.605469 C 97.066406 272.398438 85.335938 259.691406 76.253906 244.804688 C 74.484375 241.941406 72.871094 239.039062 71.449219 236.171875 C 69.953125 233.164062 66.308594 231.921875 63.292969 233.421875 C 60.28125 234.910156 59.046875 238.5625 60.542969 241.574219 C 62.128906 244.78125 63.933594 248.019531 65.882812 251.171875 C 75.792969 267.410156 88.613281 281.300781 103.988281 292.453125 C 105.066406 293.238281 106.320312 293.613281 107.558594 293.613281 C 109.441406 293.613281 111.300781 292.742188 112.488281 291.101562 C 114.464844 288.378906 113.859375 284.574219 111.136719 282.601562 Z M 111.136719 282.605469 " fill-opacity="1" fill-rule="nonzero"/><path fill="#ffffff" d="M 312.511719 233.441406 C 309.507812 231.921875 305.847656 233.125 304.332031 236.132812 C 302.832031 239.105469 301.199219 242.019531 299.457031 244.839844 C 290.671875 259.253906 279.332031 271.675781 265.753906 281.765625 C 263.054688 283.769531 262.496094 287.582031 264.5 290.277344 C 265.695312 291.886719 267.527344 292.734375 269.386719 292.734375 C 270.652344 292.734375 271.921875 292.34375 273.011719 291.53125 C 287.851562 280.507812 300.246094 266.925781 309.828125 251.203125 C 311.730469 248.125 313.539062 244.898438 315.195312 241.617188 C 316.710938 238.613281 315.511719 234.953125 312.507812 233.4375 Z M 312.511719 233.441406 " fill-opacity="1" fill-rule="nonzero"/><g clip-path="url(#724dbea23f)"><path fill="#ffffff" d="M 155.375 76.234375 C 158.335938 92.398438 161.257812 94.835938 177.691406 94.835938 L 194.5625 94.835938 C 210.996094 94.835938 213.914062 92.398438 216.875 76.234375 L 227.847656 16.296875 C 228.175781 14.519531 227.691406 12.691406 226.535156 11.304688 C 225.378906 9.917969 223.667969 9.117188 221.863281 9.117188 L 150.386719 9.117188 C 148.582031 9.117188 146.867188 9.921875 145.710938 11.304688 C 144.554688 12.691406 144.074219 14.519531 144.402344 16.296875 Z M 204.90625 74.042969 C 204.367188 76.980469 203.554688 81.425781 203.082031 82.152344 C 202.066406 82.664062 197.550781 82.664062 194.5625 82.664062 L 177.691406 82.664062 C 174.703125 82.664062 170.183594 82.664062 169.382812 82.332031 C 168.699219 81.425781 167.886719 76.980469 167.347656 74.042969 L 162.050781 45.109375 C 172.601562 42.988281 178.6875 45.101562 185.058594 47.347656 C 189.636719 48.960938 194.554688 50.695312 200.816406 50.695312 C 203.410156 50.695312 206.238281 50.394531 209.367188 49.667969 Z M 214.5625 21.285156 L 211.835938 36.175781 C 201.460938 40.207031 196.183594 38.363281 189.101562 35.867188 C 182.113281 33.40625 173.625 30.425781 159.855469 33.128906 L 157.6875 21.285156 Z M 214.5625 21.285156 " fill-opacity="1" fill-rule="nonzero"/></g><g clip-path="url(#eeee3a0a43)"><path fill="#ffffff" d="M 96.546875 170.199219 C 95.304688 159.601562 88.457031 151.03125 78.675781 147.835938 C 70.207031 145.070312 61.257812 146.796875 53.828125 152.410156 C 46.40625 146.800781 37.464844 145.070312 29 147.832031 C 19.210938 151.027344 12.359375 159.597656 11.117188 170.203125 C 10.101562 178.871094 11.917969 201.582031 50.652344 225.265625 C 51.625 225.863281 52.726562 226.15625 53.828125 226.15625 C 54.925781 226.15625 56.027344 225.859375 57 225.265625 C 95.734375 201.582031 97.558594 178.871094 96.542969 170.203125 Z M 53.828125 212.878906 C 33.121094 199.460938 21.730469 184.195312 23.207031 171.617188 C 23.894531 165.789062 27.558594 161.105469 32.78125 159.402344 C 34.191406 158.945312 35.625 158.714844 37.058594 158.714844 C 41.394531 158.714844 45.714844 160.789062 49.367188 164.730469 C 50.515625 165.972656 52.132812 166.683594 53.828125 166.683594 C 55.519531 166.683594 57.136719 165.976562 58.289062 164.734375 C 63.152344 159.488281 69.207031 157.554688 74.894531 159.402344 C 80.113281 161.105469 83.777344 165.785156 84.457031 171.613281 C 85.925781 184.183594 74.535156 199.453125 53.828125 212.878906 Z M 53.828125 212.878906 " fill-opacity="1" fill-rule="nonzero"/></g><path fill="#ffffff" d="M 351.808594 156.710938 C 348.101562 153.363281 340.992188 149.335938 330.320312 152.960938 C 331.355469 148.125 333.039062 143.675781 335.382812 142.0625 C 338.152344 140.15625 338.851562 136.363281 336.941406 133.597656 C 335.039062 130.828125 331.25 130.132812 328.476562 132.039062 C 321.757812 136.667969 318.933594 146.226562 317.746094 153.742188 C 305.90625 148.800781 298.121094 153.140625 294.179688 156.703125 C 283.21875 166.601562 281.441406 190.113281 290.445312 206.035156 C 296.042969 215.9375 304.628906 221.167969 314.777344 221.167969 C 317.414062 221.167969 320.160156 220.816406 322.984375 220.097656 C 336.695312 223.578125 348.488281 218.511719 355.542969 206.023438 C 364.546875 190.109375 362.765625 166.601562 351.808594 156.707031 Z M 344.945312 200.035156 C 340.445312 207.992188 333.652344 210.660156 324.75 207.960938 C 324.175781 207.785156 323.578125 207.699219 322.980469 207.699219 C 322.382812 207.699219 321.789062 207.785156 321.214844 207.960938 C 312.328125 210.660156 305.535156 207.996094 301.042969 200.042969 C 294.898438 189.179688 295.550781 171.863281 302.335938 165.734375 C 307.078125 161.453125 314.265625 164.949219 319.464844 168.628906 C 319.472656 168.636719 319.484375 168.640625 319.492188 168.644531 C 319.941406 168.957031 320.441406 169.191406 320.964844 169.375 C 321.09375 169.421875 321.21875 169.464844 321.351562 169.5 C 321.855469 169.640625 322.371094 169.742188 322.917969 169.746094 C 322.933594 169.746094 322.949219 169.746094 322.964844 169.746094 C 322.984375 169.746094 323 169.746094 323.019531 169.746094 C 323.570312 169.746094 324.097656 169.644531 324.609375 169.503906 C 324.734375 169.46875 324.851562 169.433594 324.976562 169.390625 C 325.496094 169.207031 325.992188 168.976562 326.4375 168.667969 C 326.460938 168.652344 326.484375 168.648438 326.503906 168.632812 C 331.707031 164.949219 338.914062 161.453125 343.65625 165.742188 C 350.4375 171.871094 351.09375 189.175781 344.953125 200.035156 Z M 344.945312 200.035156 " fill-opacity="1" fill-rule="nonzero"/><path fill="#ffffff" d="M 242.847656 297.867188 L 230.402344 297.867188 C 222.199219 297.867188 215.519531 304.554688 215.519531 312.777344 L 215.519531 313.660156 L 160.230469 313.660156 L 160.230469 312.777344 C 160.230469 304.554688 153.542969 297.867188 145.320312 297.867188 L 132.90625 297.867188 C 124.683594 297.867188 117.992188 304.554688 117.992188 312.777344 L 117.992188 351.058594 C 117.992188 359.28125 124.683594 365.96875 132.90625 365.96875 L 145.320312 365.96875 C 153.542969 365.96875 160.230469 359.28125 160.230469 351.058594 L 160.230469 350.175781 L 215.519531 350.175781 L 215.519531 351.058594 C 215.519531 359.28125 222.195312 365.96875 230.402344 365.96875 L 242.847656 365.96875 C 251.050781 365.96875 257.726562 359.28125 257.726562 351.058594 L 257.726562 312.777344 C 257.726562 304.554688 251.050781 297.867188 242.847656 297.867188 Z M 148.058594 319.746094 L 148.058594 351.058594 C 148.058594 352.570312 146.828125 353.796875 145.320312 353.796875 L 132.90625 353.796875 C 131.394531 353.796875 130.164062 352.570312 130.164062 351.058594 L 130.164062 312.777344 C 130.164062 311.269531 131.394531 310.039062 132.90625 310.039062 L 145.320312 310.039062 C 146.832031 310.039062 148.058594 311.269531 148.058594 312.777344 Z M 215.519531 338.003906 L 160.230469 338.003906 L 160.230469 325.832031 L 215.519531 325.832031 Z M 245.554688 351.058594 C 245.554688 352.570312 244.339844 353.796875 242.847656 353.796875 L 230.402344 353.796875 C 228.90625 353.796875 227.691406 352.570312 227.691406 351.058594 L 227.691406 312.777344 C 227.691406 311.269531 228.90625 310.039062 230.402344 310.039062 L 242.847656 310.039062 C 244.339844 310.039062 245.554688 311.269531 245.554688 312.777344 Z M 245.554688 351.058594 " fill-opacity="1" fill-rule="nonzero"/><path fill="#ffffff" d="M 251.972656 62.90625 C 275.554688 76.203125 294.859375 97.011719 306.324219 121.5 C 307.359375 123.710938 309.550781 125.003906 311.835938 125.003906 C 312.703125 125.003906 313.578125 124.820312 314.414062 124.429688 C 317.457031 123.007812 318.773438 119.382812 317.34375 116.339844 C 304.816406 89.578125 283.71875 66.835938 257.949219 52.300781 C 255.023438 50.65625 251.308594 51.691406 249.65625 54.617188 C 248.007812 57.542969 249.042969 61.253906 251.96875 62.90625 Z M 251.972656 62.90625 " fill-opacity="1" fill-rule="nonzero"/><path fill="#ffffff" d="M 61.3125 124.429688 C 62.144531 124.820312 63.027344 125.003906 63.890625 125.003906 C 66.179688 125.003906 68.371094 123.710938 69.402344 121.5 C 80.871094 97.011719 100.171875 76.203125 123.753906 62.90625 C 126.679688 61.253906 127.714844 57.542969 126.066406 54.613281 C 124.414062 51.683594 120.707031 50.648438 117.773438 52.300781 C 92.003906 66.832031 70.910156 89.574219 58.378906 116.335938 C 56.953125 119.378906 58.261719 123.003906 61.308594 124.425781 Z M 61.3125 124.429688 " fill-opacity="1" fill-rule="nonzero"/></svg>