<svg xmlns="http://www.w3.org/2000/svg" xmlns:xlink="http://www.w3.org/1999/xlink" width="500" zoomAndPan="magnify" viewBox="0 0 375 322.499991" height="430" preserveAspectRatio="xMidYMid meet" version="1.0"><defs><clipPath id="99ccb03b30"><path d="M 4.34375 184 L 181 184 L 181 255 L 4.34375 255 Z M 4.34375 184 " clip-rule="nonzero"/></clipPath><clipPath id="0e3d82adf4"><path d="M 109 145.410156 L 187 145.410156 L 187 228 L 109 228 Z M 109 145.410156 " clip-rule="nonzero"/></clipPath><clipPath id="cc32bb23c9"><path d="M 197 184 L 373.394531 184 L 373.394531 255 L 197 255 Z M 197 184 " clip-rule="nonzero"/></clipPath><clipPath id="f2709865fd"><path d="M 191 145.410156 L 269 145.410156 L 269 228 L 191 228 Z M 191 145.410156 " clip-rule="nonzero"/></clipPath><clipPath id="1eb0bc72d4"><path d="M 132 39 L 244 39 L 244 185.613281 L 132 185.613281 Z M 132 39 " clip-rule="nonzero"/></clipPath><clipPath id="9f9145517f"><path d="M 187 56 L 247.871094 56 L 247.871094 185.613281 L 187 185.613281 Z M 187 56 " clip-rule="nonzero"/></clipPath><clipPath id="a608c1c550"><path d="M 149.953125 246 L 223.765625 246 L 223.765625 320.875 L 149.953125 320.875 Z M 149.953125 246 " clip-rule="nonzero"/></clipPath><clipPath id="b6d5bf8b55"><path d="M 194.261719 292.699219 L 217.597656 292.699219 L 217.597656 316.035156 L 194.261719 316.035156 Z M 194.261719 292.699219 " clip-rule="nonzero"/></clipPath></defs><g clip-path="url(#99ccb03b30)"><path fill="#003b0a" d="M 4.765625 184.707031 L 40.519531 254.8125 L 19.980469 198.964844 C 19.980469 198.964844 131.597656 208.347656 180.28125 254.8125 C 180.28125 254.8125 162.402344 200.367188 4.765625 184.707031 Z M 4.765625 184.707031 " fill-opacity="1" fill-rule="nonzero"/></g><path fill="#003b0a" d="M 62.160156 159 L 62.160156 184.707031 C 142.238281 194.976562 186.410156 240.777344 186.410156 240.777344 C 154.128906 183.820312 62.160156 159 62.160156 159 Z M 62.160156 159 " fill-opacity="1" fill-rule="nonzero"/><g clip-path="url(#0e3d82adf4)"><path fill="#003b0a" d="M 109.21875 145.410156 L 109.21875 168.160156 C 160.113281 188.699219 186.335938 227.109375 186.335938 227.109375 C 168.386719 173.996094 109.21875 145.410156 109.21875 145.410156 Z M 109.21875 145.410156 " fill-opacity="1" fill-rule="nonzero"/></g><g clip-path="url(#cc32bb23c9)"><path fill="#003b0a" d="M 373.230469 184.707031 C 215.589844 200.367188 197.714844 254.8125 197.714844 254.8125 C 246.394531 208.347656 358.011719 198.964844 358.011719 198.964844 L 337.476562 254.8125 Z M 373.230469 184.707031 " fill-opacity="1" fill-rule="nonzero"/></g><path fill="#003b0a" d="M 315.90625 159 C 315.90625 159 223.9375 183.75 191.65625 240.703125 C 191.65625 240.703125 235.832031 194.902344 315.90625 184.632812 Z M 315.90625 159 " fill-opacity="1" fill-rule="nonzero"/><g clip-path="url(#f2709865fd)"><path fill="#003b0a" d="M 268.777344 168.160156 L 268.777344 145.410156 C 268.777344 145.410156 209.605469 173.996094 191.65625 227.109375 C 191.65625 227.109375 217.878906 188.699219 268.777344 168.160156 Z M 268.777344 168.160156 " fill-opacity="1" fill-rule="nonzero"/></g><path fill="#0c3570" d="M 183.605469 19.917969 C 176.9375 18.878906 164.382812 18.824219 160.371094 19.347656 L 158.289062 32.109375 C 163.964844 31.171875 171.777344 31.273438 180.21875 32.628906 C 188.65625 34.035156 196.105469 36.433594 201.160156 39.140625 L 203.449219 25.179688 L 224.546875 21.429688 L 185.582031 0.0195312 L 141.828125 7.835938 L 159.953125 17.785156 C 170.269531 16.429688 183.605469 19.917969 183.605469 19.917969 Z M 183.605469 19.917969 " fill-opacity="1" fill-rule="nonzero"/><g clip-path="url(#1eb0bc72d4)"><path fill="#0c3570" d="M 182.875 185.464844 C 182.875 185.464844 188.238281 76.488281 243.457031 53.152344 C 243.457031 53.152344 216.003906 44.609375 167.769531 105.035156 C 152.191406 92.585938 143.285156 69.980469 139.742188 39.191406 C 139.691406 39.191406 105.675781 130.769531 182.875 185.464844 Z M 182.875 185.464844 " fill-opacity="1" fill-rule="nonzero"/></g><path fill="#0c3570" d="M 154.746094 56.539062 C 154.746094 68.101562 164.121094 77.53125 175.738281 77.53125 C 187.355469 77.53125 196.730469 68.15625 196.730469 56.539062 C 196.730469 44.921875 187.355469 35.546875 175.738281 35.546875 C 164.121094 35.546875 154.746094 44.976562 154.746094 56.539062 Z M 154.746094 56.539062 " fill-opacity="1" fill-rule="nonzero"/><g clip-path="url(#9f9145517f)"><path fill="#0c3570" d="M 187.824219 185.464844 L 204.804688 146.449219 C 206.210938 167.546875 215.898438 185.464844 215.898438 185.464844 C 206.679688 92.011719 247.988281 56.539062 247.988281 56.539062 C 193.085938 85.605469 187.824219 185.464844 187.824219 185.464844 Z M 187.824219 185.464844 " fill-opacity="1" fill-rule="nonzero"/></g><g clip-path="url(#a608c1c550)"><path fill="#db9100" d="M 186.804688 319.519531 C 186.804688 318.679688 186.542969 316.53125 186.371094 315.949219 C 186.308594 315.738281 186.214844 315.132812 186.15625 314.597656 C 186.101562 314.0625 185.980469 313.164062 185.886719 312.597656 C 185.796875 312.035156 185.621094 310.84375 185.507812 309.953125 C 185.222656 307.785156 185.078125 307.109375 184.203125 303.65625 C 183.433594 300.625 182.492188 297.597656 181.660156 295.441406 C 180.386719 292.136719 179.121094 290.65625 176.488281 289.375 C 174.453125 288.386719 170.992188 287.234375 166.875 286.175781 C 163.628906 285.339844 162.625 285.128906 160.5 284.84375 C 159.609375 284.722656 158.394531 284.546875 157.800781 284.457031 C 157.207031 284.367188 156.332031 284.25 155.855469 284.195312 C 155.382812 284.140625 154.648438 284.023438 154.234375 283.929688 C 153.101562 283.679688 151.898438 283.542969 150.875 283.542969 C 150.347656 283.542969 149.96875 283.496094 149.96875 283.433594 C 149.96875 283.371094 150.363281 283.324219 150.941406 283.324219 C 151.90625 283.324219 153.730469 283.097656 154.554688 282.878906 C 154.792969 282.816406 155.402344 282.722656 155.90625 282.671875 C 156.414062 282.621094 157.289062 282.503906 157.851562 282.410156 C 158.421875 282.320312 159.464844 282.167969 160.175781 282.078125 C 162.367188 281.800781 163.730469 281.519531 166.925781 280.6875 C 170.199219 279.835938 173.800781 278.6875 175.699219 277.886719 C 178.203125 276.835938 179.792969 275.421875 180.847656 273.3125 C 181.804688 271.40625 183.15625 267.332031 184.199219 263.234375 C 185.085938 259.75 185.222656 259.078125 185.507812 256.914062 C 185.621094 256.023438 185.796875 254.832031 185.886719 254.265625 C 185.980469 253.703125 186.101562 252.804688 186.15625 252.269531 C 186.214844 251.734375 186.308594 251.125 186.371094 250.917969 C 186.542969 250.335938 186.804688 248.183594 186.804688 247.347656 C 186.804688 246.015625 186.988281 246.550781 187.054688 248.082031 C 187.089844 248.914062 187.21875 250.019531 187.339844 250.59375 C 187.460938 251.160156 187.609375 252.035156 187.664062 252.539062 C 187.722656 253.042969 187.84375 253.917969 187.933594 254.484375 C 188.023438 255.046875 188.195312 256.238281 188.3125 257.128906 C 188.589844 259.234375 188.816406 260.3125 189.671875 263.597656 C 190.679688 267.464844 192.078125 271.640625 192.925781 273.316406 C 193.964844 275.375 195.46875 276.734375 197.859375 277.789062 C 200.765625 279.070312 209.074219 281.441406 212.136719 281.863281 C 212.847656 281.960938 214.089844 282.136719 214.890625 282.253906 C 215.691406 282.371094 216.710938 282.519531 217.160156 282.578125 C 217.605469 282.636719 218.503906 282.78125 219.15625 282.898438 C 221.011719 283.230469 221.785156 283.320312 222.800781 283.324219 C 223.324219 283.324219 223.746094 283.367188 223.746094 283.417969 C 223.746094 283.46875 223.125 283.539062 222.371094 283.578125 C 221.613281 283.617188 220.65625 283.714844 220.238281 283.796875 C 219.394531 283.960938 218.226562 284.148438 217.160156 284.292969 C 216.25 284.414062 213.71875 284.785156 211.863281 285.0625 C 210.144531 285.324219 205.28125 286.542969 202.585938 287.390625 C 200.25 288.125 197.785156 289.054688 196.851562 289.558594 C 195.195312 290.445312 193.941406 291.695312 193.027344 293.371094 C 192.167969 294.957031 190.722656 299.222656 189.660156 303.316406 C 188.792969 306.683594 188.585938 307.664062 188.3125 309.738281 C 188.195312 310.628906 188.027344 311.820312 187.933594 312.382812 C 187.84375 312.949219 187.722656 313.824219 187.664062 314.328125 C 187.609375 314.832031 187.460938 315.707031 187.339844 316.273438 C 187.21875 316.847656 187.089844 317.953125 187.054688 318.785156 C 186.988281 320.316406 186.804688 320.851562 186.804688 319.519531 Z M 167.367188 271.265625 C 166.957031 268.324219 166.070312 265.390625 165.335938 264.527344 C 165.128906 264.285156 164.734375 263.976562 164.457031 263.835938 C 162.929688 263.066406 159.640625 262.28125 156.558594 261.949219 L 155.855469 261.875 L 156.558594 261.808594 C 158.894531 261.601562 161.703125 261.003906 163.621094 260.308594 C 165.289062 259.703125 165.785156 259.054688 166.535156 256.460938 C 166.984375 254.917969 167.160156 254.042969 167.425781 252.132812 C 167.535156 251.34375 167.652344 250.761719 167.691406 250.835938 C 167.734375 250.910156 167.871094 251.726562 168.003906 252.644531 C 168.257812 254.488281 168.492188 255.527344 169.003906 257.074219 C 169.730469 259.3125 170.117188 259.738281 172.046875 260.414062 C 173.859375 261.050781 176.457031 261.589844 178.757812 261.808594 L 179.511719 261.878906 L 178.863281 261.945312 C 177.332031 262.101562 174.992188 262.503906 173.863281 262.804688 C 171.578125 263.414062 170.511719 263.894531 169.929688 264.582031 C 169.332031 265.285156 168.425781 268.304688 168.050781 270.847656 C 167.902344 271.859375 167.746094 272.773438 167.703125 272.882812 C 167.652344 273.007812 167.527344 272.390625 167.367188 271.265625 Z M 167.367188 271.265625 " fill-opacity="1" fill-rule="nonzero"/></g><g clip-path="url(#b6d5bf8b55)"><path fill="#db9100" d="M 209.09375 307.53125 C 207.460938 309.164062 206.039062 316.257812 206.039062 316.257812 C 206.039062 316.257812 204.621094 309.164062 202.984375 307.53125 C 201.351562 305.898438 194.261719 304.476562 194.261719 304.476562 C 194.261719 304.476562 201.351562 303.054688 202.984375 301.421875 C 204.621094 299.789062 206.039062 292.699219 206.039062 292.699219 C 206.039062 292.699219 207.460938 299.789062 209.09375 301.421875 C 210.730469 303.054688 217.820312 304.476562 217.820312 304.476562 C 217.820312 304.476562 210.730469 305.898438 209.09375 307.53125 Z M 209.09375 307.53125 " fill-opacity="1" fill-rule="nonzero"/></g></svg>