<svg xmlns="http://www.w3.org/2000/svg" xmlns:xlink="http://www.w3.org/1999/xlink" width="500" zoomAndPan="magnify" viewBox="0 0 375 374.999991" height="500" preserveAspectRatio="xMidYMid meet" version="1.0"><defs><clipPath id="0855b9b81d"><path d="M 32 23.539062 L 363 23.539062 L 363 365.539062 L 32 365.539062 Z M 32 23.539062 " clip-rule="nonzero"/></clipPath></defs><path fill="#ffffff" d="M 187.390625 74.808594 C 187.390625 54.519531 170.914062 38.011719 150.65625 38.011719 C 130.398438 38.011719 113.917969 54.519531 113.917969 74.808594 C 113.917969 95.097656 130.398438 111.601562 150.65625 111.601562 C 170.914062 111.601562 187.390625 95.097656 187.390625 74.808594 Z M 150.664062 104.082031 C 134.5625 104.082031 121.449219 90.945312 121.449219 74.808594 C 121.449219 58.671875 134.550781 45.535156 150.664062 45.535156 C 166.777344 45.535156 179.878906 58.671875 179.878906 74.808594 C 179.878906 90.945312 166.765625 104.082031 150.664062 104.082031 Z M 150.664062 104.082031 " fill-opacity="1" fill-rule="nonzero"/><path fill="#ffffff" d="M 169.183594 59.121094 C 167.527344 57.867188 165.171875 58.1875 163.910156 59.839844 L 144.871094 84.902344 L 134.484375 73.3125 C 133.097656 71.765625 130.726562 71.632812 129.179688 73.019531 C 127.632812 74.40625 127.5 76.78125 128.886719 78.324219 L 142.316406 93.300781 C 143.035156 94.09375 144.046875 94.554688 145.113281 94.554688 C 145.164062 94.554688 145.214844 94.554688 145.265625 94.554688 C 146.386719 94.511719 147.429688 93.960938 148.105469 93.074219 L 169.902344 64.386719 C 171.164062 62.730469 170.835938 60.375 169.183594 59.121094 Z M 169.183594 59.121094 " fill-opacity="1" fill-rule="nonzero"/><path fill="#ffffff" d="M 112.347656 155.925781 L 96.144531 155.925781 C 94.0625 155.925781 92.382812 157.605469 92.382812 159.6875 L 92.382812 206.03125 C 92.382812 208.113281 94.0625 209.792969 96.144531 209.792969 L 112.347656 209.792969 C 114.429688 209.792969 116.109375 208.113281 116.109375 206.03125 L 116.109375 159.6875 C 116.109375 157.613281 114.421875 155.925781 112.347656 155.925781 Z M 108.589844 202.273438 L 99.90625 202.273438 L 99.90625 163.449219 L 108.589844 163.449219 Z M 108.589844 202.273438 " fill-opacity="1" fill-rule="nonzero"/><path fill="#ffffff" d="M 143.292969 135.378906 L 127.089844 135.378906 C 125.007812 135.378906 123.328125 137.058594 123.328125 139.136719 L 123.328125 206.03125 C 123.328125 208.113281 125.007812 209.792969 127.089844 209.792969 L 143.292969 209.792969 C 145.375 209.792969 147.054688 208.113281 147.054688 206.03125 L 147.054688 139.136719 C 147.054688 137.066406 145.367188 135.378906 143.292969 135.378906 Z M 139.53125 202.273438 L 130.851562 202.273438 L 130.851562 142.898438 L 139.53125 142.898438 Z M 139.53125 202.273438 " fill-opacity="1" fill-rule="nonzero"/><path fill="#ffffff" d="M 174.238281 149.976562 L 158.035156 149.976562 C 155.953125 149.976562 154.273438 151.65625 154.273438 153.738281 L 154.273438 206.03125 C 154.273438 208.113281 155.953125 209.792969 158.035156 209.792969 L 174.238281 209.792969 C 176.320312 209.792969 178 208.113281 178 206.03125 L 178 153.738281 C 178 151.65625 176.3125 149.976562 174.238281 149.976562 Z M 170.476562 202.273438 L 161.796875 202.273438 L 161.796875 157.496094 L 170.476562 157.496094 Z M 170.476562 202.273438 " fill-opacity="1" fill-rule="nonzero"/><path fill="#ffffff" d="M 205.183594 209.792969 C 207.265625 209.792969 208.945312 208.113281 208.945312 206.03125 L 208.945312 127.804688 C 208.945312 125.726562 207.265625 124.046875 205.183594 124.046875 L 188.980469 124.046875 C 186.898438 124.046875 185.21875 125.726562 185.21875 127.804688 L 185.21875 206.03125 C 185.21875 208.113281 186.898438 209.792969 188.980469 209.792969 Z M 192.730469 131.566406 L 201.414062 131.566406 L 201.414062 202.273438 L 192.730469 202.273438 Z M 192.730469 131.566406 " fill-opacity="1" fill-rule="nonzero"/><g clip-path="url(#0855b9b81d)"><path fill="#ffffff" d="M 353.765625 316.398438 L 267.675781 230.140625 C 271.050781 225.414062 270.632812 218.777344 266.394531 214.53125 L 254.230469 202.339844 C 275.363281 158.300781 267.03125 105.863281 233.136719 70.554688 L 233.136719 47.832031 C 233.136719 34.4375 222.265625 23.539062 208.894531 23.539062 L 92.425781 23.539062 C 79.054688 23.539062 68.183594 34.4375 68.183594 47.832031 L 68.183594 67.027344 C 67.566406 67.621094 66.9375 68.238281 66.277344 68.890625 C 20.726562 114.535156 20.726562 188.800781 66.269531 234.4375 C 88.78125 256.992188 118.597656 268.816406 148.859375 268.816406 C 166.007812 268.816406 183.296875 265.007812 199.476562 257.21875 L 211.625 269.394531 C 213.90625 271.691406 216.949219 272.953125 220.191406 272.953125 C 222.75 272.953125 225.179688 272.152344 227.21875 270.6875 L 313.300781 356.9375 C 318.707031 362.355469 325.894531 365.335938 333.535156 365.335938 C 341.171875 365.335938 348.367188 362.355469 353.765625 356.9375 C 364.921875 345.757812 364.921875 327.574219 353.765625 316.398438 Z M 71.59375 229.121094 C 30.144531 187.589844 29.015625 120.726562 68.183594 77.792969 L 68.183594 206.023438 C 68.183594 208.105469 69.863281 209.785156 71.945312 209.785156 C 74.023438 209.785156 75.703125 208.105469 75.703125 206.023438 L 75.703125 47.832031 C 75.703125 38.589844 83.207031 31.058594 92.425781 31.058594 L 208.902344 31.058594 C 218.121094 31.058594 225.625 38.582031 225.625 47.832031 L 225.625 206.03125 C 225.625 208.113281 227.304688 209.792969 229.382812 209.792969 C 231.464844 209.792969 233.144531 208.113281 233.144531 206.03125 L 233.144531 81.859375 C 260.796875 115.304688 266.289062 162.160156 246.339844 201.394531 C 241.160156 211.605469 234.382812 220.933594 226.207031 229.113281 C 224.167969 231.160156 222.054688 233.117188 219.875 234.988281 C 218.4375 236.21875 216.964844 237.394531 215.46875 238.550781 C 211.402344 241.683594 207.136719 244.53125 202.675781 247.066406 C 201.898438 247.507812 201.113281 247.925781 200.328125 248.34375 C 199.734375 248.660156 199.140625 248.996094 198.539062 249.304688 C 182.746094 257.367188 165.738281 261.289062 148.882812 261.289062 C 120.554688 261.289062 92.652344 250.222656 71.59375 229.121094 Z M 220.191406 265.425781 C 218.964844 265.425781 217.820312 264.949219 216.949219 264.078125 L 206.460938 253.566406 C 207.625 252.90625 208.769531 252.230469 209.90625 251.527344 C 210.023438 251.460938 210.128906 251.386719 210.238281 251.308594 C 211.34375 250.625 212.429688 249.929688 213.507812 249.210938 C 213.898438 248.945312 214.292969 248.675781 214.683594 248.402344 C 215.480469 247.859375 216.265625 247.316406 217.042969 246.753906 C 217.484375 246.4375 217.917969 246.113281 218.363281 245.785156 C 219.082031 245.25 219.800781 244.707031 220.507812 244.15625 C 220.953125 243.8125 221.394531 243.460938 221.839844 243.101562 C 222.539062 242.542969 223.234375 241.96875 223.925781 241.382812 C 224.34375 241.03125 224.761719 240.679688 225.179688 240.320312 C 225.917969 239.683594 226.644531 239.023438 227.371094 238.375 C 227.710938 238.054688 228.0625 237.753906 228.40625 237.4375 C 229.460938 236.453125 230.503906 235.457031 231.523438 234.429688 C 232.542969 233.410156 233.546875 232.363281 234.523438 231.304688 C 234.839844 230.960938 235.148438 230.609375 235.460938 230.265625 C 236.121094 229.539062 236.769531 228.8125 237.40625 228.078125 C 237.765625 227.667969 238.109375 227.25 238.460938 226.832031 C 239.035156 226.140625 239.613281 225.445312 240.179688 224.734375 C 240.53125 224.292969 240.882812 223.851562 241.226562 223.40625 C 241.777344 222.695312 242.320312 221.976562 242.855469 221.257812 C 243.179688 220.816406 243.507812 220.382812 243.824219 219.9375 C 244.382812 219.160156 244.925781 218.367188 245.472656 217.574219 C 245.738281 217.179688 246.015625 216.789062 246.273438 216.394531 C 246.992188 215.308594 247.695312 214.214844 248.371094 213.109375 C 248.4375 213.003906 248.511719 212.894531 248.578125 212.777344 C 249.273438 211.640625 249.949219 210.496094 250.601562 209.34375 L 261.074219 219.839844 C 262.871094 221.636719 262.871094 224.558594 261.074219 226.355469 C 261.074219 226.355469 261.0625 226.363281 261.0625 226.363281 L 223.425781 264.078125 C 222.566406 264.949219 221.410156 265.425781 220.191406 265.425781 Z M 348.441406 351.613281 C 344.457031 355.609375 339.167969 357.808594 333.535156 357.808594 C 327.902344 357.808594 322.601562 355.609375 318.625 351.613281 L 232.660156 265.484375 L 254.730469 243.371094 L 262.5 235.589844 L 348.441406 321.714844 C 356.671875 329.953125 356.671875 343.375 348.441406 351.613281 Z M 348.441406 351.613281 " fill-opacity="1" fill-rule="nonzero"/></g></svg>