<svg xmlns="http://www.w3.org/2000/svg" xmlns:xlink="http://www.w3.org/1999/xlink" width="500" zoomAndPan="magnify" viewBox="0 0 375 374.999991" height="500" preserveAspectRatio="xMidYMid meet" version="1.0"><path fill="#ffffff" d="M 12.582031 162.578125 L 58.457031 185.511719 C 62.78125 187.671875 68.039062 185.921875 70.203125 181.601562 C 72.363281 177.277344 70.613281 172.019531 66.289062 169.855469 L 20.414062 146.921875 C 18.617188 146.03125 17.507812 144.226562 17.507812 142.222656 C 17.507812 140.21875 18.617188 138.425781 20.414062 137.523438 L 178.847656 58.308594 C 184.234375 55.613281 190.675781 55.613281 196.066406 58.308594 L 354.507812 137.523438 C 356.300781 138.417969 357.414062 140.21875 357.414062 142.222656 C 357.414062 144.226562 356.300781 146.023438 354.507812 146.921875 L 284.199219 182.082031 C 262.15625 152.628906 227 133.527344 187.464844 133.527344 C 120.882812 133.527344 66.710938 187.699219 66.710938 254.28125 C 66.710938 320.863281 120.882812 375.035156 187.464844 375.035156 C 254.046875 375.035156 308.21875 320.863281 308.21875 254.28125 C 308.21875 233.523438 302.953125 213.976562 293.695312 196.90625 L 328.792969 179.351562 C 331.371094 185.265625 332.71875 191.679688 332.71875 198.234375 L 332.71875 243.65625 L 321.285156 255.09375 C 319.636719 256.738281 318.71875 258.960938 318.71875 261.28125 L 318.71875 317.28125 C 318.71875 322.113281 322.640625 326.03125 327.46875 326.03125 L 355.472656 326.03125 C 360.300781 326.03125 364.222656 322.113281 364.222656 317.28125 L 364.222656 261.28125 C 364.222656 258.960938 363.304688 256.730469 361.65625 255.09375 L 350.222656 243.65625 L 350.222656 198.234375 C 350.222656 188.941406 348.242188 179.867188 344.464844 171.519531 L 362.339844 162.578125 C 370.101562 158.699219 374.914062 150.902344 374.914062 142.234375 C 374.914062 133.5625 370.09375 125.765625 362.339844 121.878906 L 203.898438 42.664062 C 193.609375 37.515625 181.324219 37.515625 171.03125 42.664062 L 12.582031 121.878906 C 4.820312 125.753906 0.0078125 133.550781 0.0078125 142.234375 C 0.0078125 150.914062 4.828125 158.699219 12.582031 162.578125 Z M 346.710938 264.902344 L 346.710938 308.53125 L 336.210938 308.53125 L 336.210938 264.902344 L 341.445312 259.671875 L 341.488281 259.671875 L 346.722656 264.902344 Z M 187.457031 151.027344 C 244.394531 151.027344 290.710938 197.34375 290.710938 254.28125 C 290.710938 311.21875 244.394531 357.535156 187.457031 357.535156 C 130.519531 357.535156 84.203125 311.21875 84.203125 254.28125 C 84.203125 197.34375 130.519531 151.027344 187.457031 151.027344 Z M 187.457031 151.027344 " fill-opacity="1" fill-rule="nonzero"/><path fill="#ffffff" d="M 145.453125 290.785156 C 140.625 290.785156 136.703125 294.707031 136.703125 299.539062 C 136.703125 304.367188 140.625 308.289062 145.453125 308.289062 L 178.707031 308.289062 L 178.707031 327.539062 C 178.707031 332.367188 182.625 336.289062 187.457031 336.289062 C 192.285156 336.289062 196.207031 332.367188 196.207031 327.539062 L 196.207031 308.289062 L 208.457031 308.289062 C 224.863281 308.289062 238.207031 294.941406 238.207031 278.535156 C 238.207031 262.128906 224.863281 248.785156 208.457031 248.785156 L 196.207031 248.785156 L 196.207031 224.285156 L 229.457031 224.285156 C 234.289062 224.285156 238.207031 220.363281 238.207031 215.535156 C 238.207031 210.703125 234.289062 206.785156 229.457031 206.785156 L 196.207031 206.785156 L 196.207031 187.53125 C 196.207031 182.703125 192.285156 178.78125 187.457031 178.78125 C 182.625 178.78125 178.707031 182.703125 178.707031 187.53125 L 178.707031 206.785156 L 166.457031 206.785156 C 150.046875 206.785156 136.703125 220.128906 136.703125 236.535156 C 136.703125 252.941406 150.046875 266.285156 166.457031 266.285156 L 178.707031 266.285156 L 178.707031 290.785156 Z M 166.457031 248.785156 C 159.699219 248.785156 154.203125 243.289062 154.203125 236.535156 C 154.203125 229.78125 159.699219 224.285156 166.457031 224.285156 L 178.707031 224.285156 L 178.707031 248.785156 Z M 196.207031 266.285156 L 208.457031 266.285156 C 215.210938 266.285156 220.707031 271.78125 220.707031 278.535156 C 220.707031 285.292969 215.210938 290.785156 208.457031 290.785156 L 196.207031 290.785156 Z M 196.207031 266.285156 " fill-opacity="1" fill-rule="nonzero"/></svg>