<svg xmlns="http://www.w3.org/2000/svg" xmlns:xlink="http://www.w3.org/1999/xlink" width="500" zoomAndPan="magnify" viewBox="0 0 375 374.999991" height="500" preserveAspectRatio="xMidYMid meet" version="1.0"><defs><clipPath id="bcb185de54"><path d="M 222 354 L 320 354 L 320 374.875 L 222 374.875 Z M 222 354 " clip-rule="nonzero"/></clipPath><clipPath id="f11423121f"><path d="M 6 203 L 375 203 L 375 374.875 L 6 374.875 Z M 6 203 " clip-rule="nonzero"/></clipPath></defs><path fill="#ffffff" d="M 187.53125 97.09375 C 137.648438 97.09375 97.21875 137.523438 97.21875 187.40625 C 97.21875 237.285156 137.648438 277.714844 187.53125 277.714844 C 237.410156 277.714844 277.839844 237.285156 277.839844 187.40625 C 277.839844 137.523438 237.410156 97.09375 187.53125 97.09375 Z M 184.054688 124.882812 C 189.8125 124.882812 194.472656 129.546875 194.472656 135.300781 C 194.472656 141.050781 189.804688 145.71875 184.054688 145.71875 C 178.304688 145.71875 173.636719 141.050781 173.636719 135.300781 C 173.636719 129.546875 178.304688 124.882812 184.054688 124.882812 Z M 208.367188 242.980469 L 166.6875 242.980469 C 162.847656 242.980469 159.734375 239.867188 159.734375 236.027344 C 159.734375 232.191406 162.847656 229.078125 166.6875 229.078125 L 180.578125 229.078125 L 180.578125 173.503906 L 166.6875 173.503906 C 162.847656 173.503906 159.734375 170.390625 159.734375 166.554688 C 159.734375 162.71875 162.847656 159.605469 166.6875 159.605469 L 187.53125 159.605469 C 191.367188 159.605469 194.480469 162.71875 194.480469 166.554688 L 194.480469 229.078125 L 208.375 229.078125 C 212.210938 229.078125 215.324219 232.191406 215.324219 236.027344 C 215.324219 239.867188 212.210938 242.980469 208.375 242.980469 Z M 208.367188 242.980469 " fill-opacity="1" fill-rule="nonzero"/><path fill="#ffffff" d="M 135.429688 -0.160156 L 59.011719 -0.160156 C 53.253906 -0.160156 48.59375 4.507812 48.59375 10.257812 C 48.59375 16.007812 53.261719 20.675781 59.011719 20.675781 L 135.429688 20.675781 C 141.1875 20.675781 145.847656 16.007812 145.847656 10.257812 C 145.847656 4.507812 141.183594 -0.160156 135.429688 -0.160156 Z M 135.429688 -0.160156 " fill-opacity="1" fill-rule="nonzero"/><g clip-path="url(#bcb185de54)"><path fill="#ffffff" d="M 232.683594 374.976562 L 309.101562 374.976562 C 314.863281 374.976562 319.523438 370.3125 319.523438 364.558594 C 319.523438 358.808594 314.855469 354.140625 309.101562 354.140625 L 232.683594 354.140625 C 226.925781 354.140625 222.265625 358.808594 222.265625 364.558594 C 222.265625 370.3125 226.933594 374.976562 232.683594 374.976562 Z M 232.683594 374.976562 " fill-opacity="1" fill-rule="nonzero"/></g><path fill="#ffffff" d="M 366.113281 85.238281 L 282.753906 1.875 C 281.496094 0.621094 279.761719 -0.160156 277.839844 -0.160156 C 274.003906 -0.160156 270.890625 2.953125 270.890625 6.789062 L 270.890625 34.578125 L -0.0351562 34.578125 L -0.0351562 145.730469 L 92.089844 145.730469 C 108.207031 108.972656 144.894531 83.207031 187.535156 83.207031 C 239.359375 83.207031 282.347656 121.269531 290.304688 170.890625 L 366.121094 95.0625 C 367.378906 93.804688 368.160156 92.074219 368.160156 90.152344 C 368.160156 88.230469 367.378906 86.496094 366.121094 85.238281 Z M 366.113281 85.238281 " fill-opacity="1" fill-rule="nonzero"/><g clip-path="url(#f11423121f)"><path fill="#ffffff" d="M 282.976562 229.085938 C 266.859375 265.847656 230.171875 291.609375 187.53125 291.609375 C 135.707031 291.609375 92.71875 253.550781 84.761719 203.929688 L 8.945312 279.753906 C 7.6875 281.011719 6.90625 282.746094 6.90625 284.667969 C 6.90625 286.589844 7.6875 288.324219 8.945312 289.578125 L 92.304688 372.941406 C 93.5625 374.199219 95.296875 374.976562 97.21875 374.976562 C 101.054688 374.976562 104.167969 371.863281 104.167969 368.027344 L 104.167969 340.242188 L 375.101562 340.242188 L 375.101562 229.085938 Z M 282.976562 229.085938 " fill-opacity="1" fill-rule="nonzero"/></g></svg>