<svg xmlns="http://www.w3.org/2000/svg" xmlns:xlink="http://www.w3.org/1999/xlink" width="500" zoomAndPan="magnify" viewBox="0 0 375 374.999991" height="500" preserveAspectRatio="xMidYMid meet" version="1.0"><path fill="#ffffff" d="M 368.449219 278.707031 L 53.0625 278.707031 C 23.636719 278.707031 -0.292969 254.777344 -0.292969 225.351562 C -0.292969 195.925781 23.636719 171.996094 53.0625 171.996094 L 368.449219 171.996094 C 371.371094 171.996094 373.769531 174.160156 374.0625 177.085938 C 374.355469 179.953125 372.484375 182.644531 369.617188 183.230469 C 343.992188 188.785156 335.921875 211.136719 336.855469 228.570312 C 337.734375 246.238281 348.089844 265.074219 369.089844 267.414062 C 372.074219 267.765625 374.296875 270.339844 374.121094 273.382812 C 373.945312 276.363281 371.488281 278.707031 368.449219 278.707031 Z M 53.0625 183.289062 C 29.894531 183.289062 11.058594 202.125 11.058594 225.292969 C 11.058594 248.460938 29.894531 267.296875 53.0625 267.296875 L 342.707031 267.296875 C 332.703125 258.289062 326.324219 244.773438 325.507812 229.035156 C 324.6875 212.714844 330.363281 194.871094 343.992188 183.230469 L 53.0625 183.230469 Z M 53.0625 183.289062 " fill-opacity="1" fill-rule="nonzero"/><path fill="#ffffff" d="M 331.125 231.027344 L 44.34375 231.027344 C 41.1875 231.027344 38.671875 228.511719 38.671875 225.351562 C 38.671875 222.191406 41.1875 219.675781 44.34375 219.675781 L 331.125 219.675781 C 334.28125 219.675781 336.796875 222.191406 336.796875 225.351562 C 336.796875 228.453125 334.28125 231.027344 331.125 231.027344 Z M 331.125 231.027344 " fill-opacity="1" fill-rule="nonzero"/><path fill="#ffffff" d="M 368.449219 374.0625 L 53.0625 374.0625 C 23.636719 374.0625 -0.292969 350.136719 -0.292969 320.710938 C -0.292969 291.28125 23.636719 267.355469 53.0625 267.355469 C 56.222656 267.355469 58.738281 269.871094 58.738281 273.03125 C 58.738281 276.191406 56.222656 278.707031 53.0625 278.707031 C 29.894531 278.707031 11.058594 297.542969 11.058594 320.710938 C 11.058594 343.875 29.894531 362.714844 53.0625 362.714844 L 342.707031 362.714844 C 332.703125 353.707031 326.324219 340.191406 325.507812 324.453125 C 324.277344 300.878906 336.738281 274.082031 367.21875 267.472656 C 370.261719 266.769531 373.304688 268.757812 373.945312 271.800781 C 374.589844 274.84375 372.660156 277.886719 369.617188 278.53125 C 343.992188 284.085938 335.921875 306.433594 336.855469 323.867188 C 337.734375 341.535156 348.089844 360.375 369.089844 362.714844 C 372.074219 363.066406 374.296875 365.640625 374.121094 368.683594 C 373.945312 371.722656 371.488281 374.0625 368.449219 374.0625 Z M 368.449219 374.0625 " fill-opacity="1" fill-rule="nonzero"/><path fill="#ffffff" d="M 331.125 326.382812 L 44.34375 326.382812 C 41.1875 326.382812 38.671875 323.867188 38.671875 320.710938 C 38.671875 317.550781 41.1875 315.035156 44.34375 315.035156 L 331.125 315.035156 C 334.28125 315.035156 336.796875 317.550781 336.796875 320.710938 C 336.796875 323.867188 334.28125 326.382812 331.125 326.382812 Z M 331.125 326.382812 " fill-opacity="1" fill-rule="nonzero"/><path fill="#ffffff" d="M 177.90625 106.589844 C 177.378906 106.589844 176.851562 106.53125 176.324219 106.355469 L 20.476562 61.308594 C 18.078125 60.609375 16.378906 58.445312 16.378906 55.929688 C 16.378906 53.414062 17.960938 51.191406 20.359375 50.429688 L 176.210938 1.753906 C 177.261719 1.402344 178.375 1.402344 179.425781 1.695312 L 345.046875 48.558594 C 347.503906 49.257812 349.199219 51.480469 349.199219 53.996094 C 349.199219 56.511719 347.503906 58.738281 345.046875 59.4375 L 179.425781 106.296875 C 178.957031 106.53125 178.433594 106.589844 177.90625 106.589844 Z M 41.710938 55.695312 L 177.90625 95.066406 L 322.640625 54.113281 L 177.964844 13.164062 Z M 41.710938 55.695312 " fill-opacity="1" fill-rule="nonzero"/><path fill="#ffffff" d="M 78.042969 183.289062 C 74.882812 183.289062 72.367188 180.773438 72.367188 177.613281 L 72.367188 72.074219 C 72.367188 68.914062 74.882812 66.398438 78.042969 66.398438 C 81.203125 66.398438 83.71875 68.914062 83.71875 72.074219 L 83.71875 177.671875 C 83.71875 180.773438 81.203125 183.289062 78.042969 183.289062 Z M 78.042969 183.289062 " fill-opacity="1" fill-rule="nonzero"/><path fill="#ffffff" d="M 281.394531 183.289062 C 278.238281 183.289062 275.722656 180.773438 275.722656 177.613281 L 275.722656 72.074219 C 275.722656 68.914062 278.238281 66.398438 281.394531 66.398438 C 284.554688 66.398438 287.070312 68.914062 287.070312 72.074219 L 287.070312 177.671875 C 287.070312 180.773438 284.554688 183.289062 281.394531 183.289062 Z M 281.394531 183.289062 " fill-opacity="1" fill-rule="nonzero"/><path fill="#ffffff" d="M 335.160156 120.339844 C 332 120.339844 329.484375 117.824219 329.484375 114.664062 L 329.484375 56.394531 C 329.484375 53.238281 332 50.722656 335.160156 50.722656 C 338.320312 50.722656 340.835938 53.238281 340.835938 56.394531 L 340.835938 114.605469 C 340.835938 117.765625 338.320312 120.339844 335.160156 120.339844 Z M 335.160156 120.339844 " fill-opacity="1" fill-rule="nonzero"/><path fill="#ffffff" d="M 347.445312 144.910156 L 322.875 144.910156 C 319.714844 144.910156 317.199219 142.394531 317.199219 139.234375 L 317.199219 114.664062 C 317.199219 111.503906 319.714844 108.988281 322.875 108.988281 L 347.445312 108.988281 C 350.605469 108.988281 353.121094 111.503906 353.121094 114.664062 L 353.121094 139.234375 C 353.121094 142.335938 350.605469 144.910156 347.445312 144.910156 Z M 328.550781 133.5625 L 341.769531 133.5625 L 341.769531 120.339844 L 328.550781 120.339844 Z M 328.550781 133.5625 " fill-opacity="1" fill-rule="nonzero"/></svg>