<svg xmlns="http://www.w3.org/2000/svg" xmlns:xlink="http://www.w3.org/1999/xlink" width="500" zoomAndPan="magnify" viewBox="0 0 375 374.999991" height="500" preserveAspectRatio="xMidYMid meet" version="1.0"><defs><clipPath id="e12a523af4"><path d="M 4 123.125 L 371 123.125 L 371 368.375 L 4 368.375 Z M 4 123.125 " clip-rule="nonzero"/></clipPath></defs><path fill="#ffffff" d="M 261.679688 174.054688 L 250.054688 200.070312 L 273.304688 200.070312 Z M 261.679688 174.054688 " fill-opacity="1" fill-rule="nonzero"/><path fill="#ffffff" d="M 245.625 268.714844 L 245.625 287.539062 L 283.269531 287.539062 L 283.269531 258.75 L 255.589844 258.75 C 250.054688 258.75 245.625 263.179688 245.625 268.714844 Z M 245.625 268.714844 " fill-opacity="1" fill-rule="nonzero"/><path fill="#ffffff" d="M 245.625 317.429688 C 245.625 322.96875 250.054688 326.84375 255.035156 326.84375 L 282.714844 326.84375 L 282.714844 298.609375 L 245.625 298.609375 Z M 245.625 317.429688 " fill-opacity="1" fill-rule="nonzero"/><path fill="#ffffff" d="M 293.785156 327.394531 L 321.464844 327.394531 C 327 327.394531 331.429688 322.96875 331.429688 317.984375 L 331.429688 298.609375 L 293.785156 298.609375 Z M 293.785156 327.394531 " fill-opacity="1" fill-rule="nonzero"/><g clip-path="url(#e12a523af4)"><path fill="#ffffff" d="M 348.039062 123.125 L 26.957031 123.125 C 14.78125 123.125 4.816406 133.085938 4.816406 145.265625 L 4.816406 346.21875 C 4.816406 358.398438 14.78125 368.359375 26.957031 368.359375 L 348.039062 368.359375 C 360.214844 368.359375 370.179688 358.398438 370.179688 346.21875 L 370.179688 145.265625 C 370.179688 133.085938 360.214844 123.125 348.039062 123.125 Z M 151.515625 160.765625 L 162.585938 160.765625 L 162.585938 224.429688 L 151.515625 224.429688 Z M 91.175781 160.765625 L 110.550781 208.375 L 129.925781 160.765625 L 142.105469 160.765625 L 116.640625 224.429688 L 104.460938 224.429688 L 79.550781 160.765625 Z M 38.03125 268.714844 L 54.085938 268.714844 C 57.40625 268.714844 59.621094 270.929688 59.621094 274.25 C 59.621094 277.574219 57.40625 279.789062 54.085938 279.789062 L 38.03125 279.789062 C 34.707031 279.789062 32.496094 277.574219 32.496094 274.25 C 32.496094 270.929688 34.707031 268.714844 38.03125 268.714844 Z M 77.335938 317.429688 L 38.03125 317.429688 C 34.707031 317.429688 32.496094 315.21875 32.496094 311.894531 C 32.496094 308.574219 34.707031 306.359375 38.03125 306.359375 L 77.335938 306.359375 C 80.65625 306.359375 82.871094 308.574219 82.871094 311.894531 C 82.871094 315.21875 80.65625 317.429688 77.335938 317.429688 Z M 77.886719 274.25 C 77.886719 270.929688 80.101562 268.714844 83.425781 268.714844 L 121.066406 268.714844 C 124.390625 268.714844 126.605469 270.929688 126.605469 274.25 C 126.605469 277.574219 124.390625 279.789062 121.066406 279.789062 L 83.425781 279.789062 C 80.101562 279.789062 77.886719 277.019531 77.886719 274.25 Z M 152.621094 317.429688 L 106.675781 317.429688 C 103.351562 317.429688 101.140625 315.21875 101.140625 311.894531 C 101.140625 308.574219 103.351562 306.359375 106.675781 306.359375 L 152.621094 306.359375 C 155.945312 306.359375 158.15625 308.574219 158.15625 311.894531 C 158.15625 315.21875 155.390625 317.429688 152.621094 317.429688 Z M 194.695312 317.429688 L 181.410156 317.429688 C 178.085938 317.429688 175.871094 315.21875 175.871094 311.894531 C 175.871094 308.574219 178.085938 306.359375 181.410156 306.359375 L 194.695312 306.359375 C 198.015625 306.359375 200.230469 308.574219 200.230469 311.894531 C 200.230469 315.21875 197.460938 317.429688 194.695312 317.429688 Z M 194.695312 279.789062 L 149.855469 279.789062 C 146.53125 279.789062 144.320312 277.574219 144.320312 274.25 C 144.320312 270.929688 146.53125 268.714844 149.855469 268.714844 L 194.695312 268.714844 C 198.015625 268.714844 200.230469 270.929688 200.230469 274.25 C 200.230469 277.574219 197.460938 279.789062 194.695312 279.789062 Z M 201.335938 225.535156 C 191.375 225.535156 182.515625 222.214844 174.765625 215.019531 L 181.410156 206.714844 C 188.050781 212.25 194.695312 215.019531 201.335938 215.019531 C 206.875 215.019531 212.410156 212.804688 212.410156 206.714844 C 212.410156 200.625 206.320312 198.964844 199.675781 197.304688 C 186.390625 193.980469 176.980469 190.660156 176.980469 177.375 C 176.980469 164.640625 187.5 159.105469 199.125 159.105469 C 206.875 159.105469 215.730469 161.875 221.820312 166.855469 L 216.285156 175.160156 C 212.410156 171.285156 204.660156 169.070312 199.125 169.070312 C 193.585938 169.070312 188.605469 171.285156 188.605469 176.820312 C 188.605469 183.464844 195.25 185.125 204.660156 187.339844 C 216.285156 190.105469 224.589844 194.535156 224.589844 206.714844 C 224.035156 218.894531 214.070312 225.535156 201.335938 225.535156 Z M 256.144531 160.765625 L 267.769531 160.765625 L 295.445312 224.429688 L 284.375 224.429688 L 277.734375 210.035156 L 245.625 210.035156 L 238.980469 224.429688 L 227.355469 224.429688 Z M 342.503906 317.429688 C 342.503906 329.058594 333.089844 337.914062 321.464844 337.914062 L 255.035156 337.914062 C 243.410156 337.914062 234.554688 328.503906 234.554688 317.429688 L 234.554688 268.714844 C 234.554688 257.089844 243.964844 247.679688 255.035156 247.679688 L 321.464844 247.679688 C 333.089844 247.679688 342.503906 257.089844 342.503906 268.714844 Z M 342.503906 317.429688 " fill-opacity="1" fill-rule="nonzero"/></g><path fill="#ffffff" d="M 321.464844 258.75 L 293.785156 258.75 L 293.785156 287.539062 L 331.429688 287.539062 L 331.429688 268.714844 C 331.429688 263.179688 327 258.75 321.464844 258.75 Z M 321.464844 258.75 " fill-opacity="1" fill-rule="nonzero"/></svg>